<mxfile host="app.diagrams.net" agent="Mozilla/5.0 (Macintosh; Intel Mac OS X 10_15_7) AppleWebKit/537.36 (KHTML, like Gecko) Chrome/127.0.0.0 Safari/537.36" version="24.7.5">
  <diagram name="architecture" id="anS5FYQXRaBRwy5UhXre">
    <mxGraphModel dx="579" dy="322" grid="1" gridSize="10" guides="1" tooltips="1" connect="1" arrows="1" fold="1" page="1" pageScale="1" pageWidth="850" pageHeight="1100" math="0" shadow="0">
      <root>
        <mxCell id="0" />
        <mxCell id="1" parent="0" />
        <mxCell id="1YvNloGY1ujTHs0pBfhD-2" value="Prometheus" style="rounded=1;whiteSpace=wrap;html=1;" vertex="1" parent="1">
          <mxGeometry x="120" y="130" width="120" height="60" as="geometry" />
        </mxCell>
        <mxCell id="1YvNloGY1ujTHs0pBfhD-3" value="RabbitMQ" style="rounded=1;whiteSpace=wrap;html=1;" vertex="1" parent="1">
          <mxGeometry x="480" y="130" width="120" height="60" as="geometry" />
        </mxCell>
        <mxCell id="1YvNloGY1ujTHs0pBfhD-4" value="RabbitMQ exporter" style="rounded=1;whiteSpace=wrap;html=1;" vertex="1" parent="1">
          <mxGeometry x="300" y="310" width="120" height="60" as="geometry" />
        </mxCell>
        <mxCell id="1YvNloGY1ujTHs0pBfhD-5" value="scraping&amp;nbsp;&lt;br&gt;using&lt;br&gt;exporter" style="endArrow=classic;html=1;rounded=0;exitX=0.5;exitY=1;exitDx=0;exitDy=0;entryX=0;entryY=0.5;entryDx=0;entryDy=0;" edge="1" parent="1" source="1YvNloGY1ujTHs0pBfhD-2" target="1YvNloGY1ujTHs0pBfhD-4">
          <mxGeometry width="50" height="50" relative="1" as="geometry">
            <mxPoint x="200" y="330" as="sourcePoint" />
            <mxPoint x="250" y="280" as="targetPoint" />
          </mxGeometry>
        </mxCell>
        <mxCell id="1YvNloGY1ujTHs0pBfhD-6" value="" style="endArrow=classic;html=1;rounded=0;exitX=1;exitY=0.5;exitDx=0;exitDy=0;entryX=0.5;entryY=1;entryDx=0;entryDy=0;" edge="1" parent="1" source="1YvNloGY1ujTHs0pBfhD-4" target="1YvNloGY1ujTHs0pBfhD-3">
          <mxGeometry width="50" height="50" relative="1" as="geometry">
            <mxPoint x="490" y="300" as="sourcePoint" />
            <mxPoint x="540" y="250" as="targetPoint" />
          </mxGeometry>
        </mxCell>
        <mxCell id="1YvNloGY1ujTHs0pBfhD-7" value="scraping directly" style="endArrow=classic;html=1;rounded=0;exitX=1;exitY=0.5;exitDx=0;exitDy=0;entryX=0;entryY=0.5;entryDx=0;entryDy=0;" edge="1" parent="1" source="1YvNloGY1ujTHs0pBfhD-2" target="1YvNloGY1ujTHs0pBfhD-3">
          <mxGeometry width="50" height="50" relative="1" as="geometry">
            <mxPoint x="390" y="200" as="sourcePoint" />
            <mxPoint x="440" y="150" as="targetPoint" />
          </mxGeometry>
        </mxCell>
        <mxCell id="1YvNloGY1ujTHs0pBfhD-8" value="" style="shape=image;verticalLabelPosition=bottom;labelBackgroundColor=default;verticalAlign=top;aspect=fixed;imageAspect=0;image=data:image/png,iVBORw0KGgoAAAANSUhEUgAABLAAAASmCAYAAAA+rlJJAAAAAXNSR0IArs4c6QAAIABJREFUeF7s3Ql8XXWZ//Hvc+5Nmi5shbZZWmihbW5aKAg6CopWR0F0KL2pwZVxQ9xHHTdQB6PjMuo4bqOOoA6KCxLILeCIMw5aBQQXlK3NTVto6ZKbFsraJWnuPc/fW2T+7M1yl3Pu/dzXa17zsjm/Z3n/Dm3y5CwmPggggAACCCCAAAIIIIAAAggggAACCERYwCJcG6UhgAACCCCAAAIIIIAAAggggAACCCAgBlicBAgggAACCCCAAAIIIIAAAggggAACkRZggBXp7aE4BBBAAAEEEEAAAQQQQAABBBBAAAEGWJwDCCCAAAIIIIAAAggggAACCCCAAAKRFmCAFentoTgEEEAAAQQQQAABBBBAAAEEEEAAAQZYnAMIIIAAAggggAACCCCAAAIIIIAAApEWYIAV6e2hOAQQQAABBOpbYMPSuU3JGVOnTNbI5DBMTNkb5Kc27E1MySdsSqLgkz3wJjdvkgdNcpsqC6dKNs1dU82sSQonS9ZkpknummTuk91sqkmNkpJmSrrUaF78/94oWULSpP9TNwVyNe1nF1zSnsce47slFf98SGYuV/F/y+VDkvaabMilocBst7sPyTQkL/6Z7w7Md3sYPCTTLlO4R257zDRsHu4pKNijhmD3SN53NybDXXuU2HPgzgN2T592+C7r6SnU99lC9wgggAACCCBQywIMsGp5d+kNAQQQQACBKgu4ZFq6NLFlxvqGocamhqa9k5J5eeMByif2hIkpydBbPVSbB95mpla52gJXm5u1SWp+zDCpyr1EPb3J7ndpIHQfCKQtHoQDpsRWt8JA3hu2NoSFuwtBPj+SaMwnZXunNA7nd+8dGtl2yKz8My+4aSTq/VEfAggggAACCNS3AAOs+t5/ukcAAQQQQKAkAr50aXLLoZvmJZVc4EosUMEPD6QFbjpS0uTiVU6B1BC6Gi1Qo1xJPXwVFN+LlGQHRhWkeEXYiEwj7sWrwDTixavBXCMK9JBcG12+ITC7I/TEuoQPr/t1wzM2nsmVXaPC5SAEEEAAAQQQKK8A3zSW15foCCCAAAIIxFbgV0uXJhc2b27R3uThQfEqKbPZ5mqVaYZkM1x+mJkOk+tQSQfGtlEKfzqBvOT3ubRD0t2B7J5QuseknLm25pMaaCgkNk/aG2w6+L9uuw9KBBBAAAEEEECgXAIMsMolS1wEEEAAAQQiLFC8YmpwxpZDCvnkIckwOCRUeLAHQVsgT0nhEZJ1SFrILXwR3sTolbZT0lo33SUpqzDss8C2FMLwviBI3rdr8sh983+4/iF7+NlgfBBAAAEEEEAAgTEJMMAaExcHI4AAAgggEB+Bfc+f6pZpdZdtD/48tzDScJIsPClwO8ldR0sK4tMNldaCgMkflOzGgukGC/XbhtBvOOz4/l37euuWM9yqhV2mBwQQQAABBMojwACrPK5ERQABBBBAoKICd738mEMSDcPHBxYca7JjJT9C0nQ3TTfpYLmmVrQgkiEwOoHi1Vg7XX6/md1jruItirdboFsKYXhz24wD1hgPmB+dJEchgAACCCBQ4wIMsGp8g2kPAQQQQKB2BDZ3LZ6eGCnMkzRXpiPM/Sgzm+9Su6TiwIoPAjUlYKaR0LVBZuvNPeuufkkbvcHvam0ubLSvrR+uqYZpBgEEEEAAAQSeUoABFicHAggggAACERIoPjj9yKk7DmiYEh6QCPMHF9yPlQUnW6iX7Btc8UEAgX0CJhVcvjo0XWdu13jBVzcmgwc9YQ/N6Fmzi9sROVEQQAABBBCoLQEGWLW1n3SDAAIIIBBDgfXpo2Y2qfGlgYcvMbO/dflkyZpMmvTwz+l8EEBgfwIm5SUNuVS8Kutuk64NLby6kNj98zk9W/bsbz1fRwABBBBAAIFoC/BNcbT3h+oQQAABBGpI4J6uhW2FMPGsQsH/xszny2ye3A+XbAaDqhraaFqJmkAo16Cb32kK7nQVbk6Y/f6OxPQ/ndRzA4OtqO0W9SCAAAIIIPAUAgywODUQQAABBBAosYB3zZ6cC6cckQgTc0L3dg90ooU6qfjcKgZVJcYmHALjFwglrXbTbxOy6/MFv8MT+U1tiWfkrKenMP6wrEQAAQQQQACBcggwwCqHKjERQAABBOpGoPjMqvYDHmoMkiPTXEOnuRKvNPeXyrj1r25OAhqtLQHTLnf9dyD95yRvuu7gg+8f0q6NI9Yjhlq1tdN0gwACCCAQMwEGWDHbMMpFAAEEEKi+wKblRx+VTIz8nUJ7mclmSz5T0nRJQfWrowIEECiVgEt7TbpX0nZ3+4Nc/xUc2PA/zRffuqtUOYiDAAIIIIAAAqMTYIA1OieOQgABBBCoQwGXbEfXwtbhgp2QdDuuID/eZMdK3ApYh6cDLSPwiEDx7YdrzfRH9+DPlvA/79yV/9OCq9c/CBECCCCAAAIIlE+AAVb5bImMAAIIIBAzgcGzlky1XXtmSckj3fV3kp/h0tyYtUG5CCBQaQGXu+lamWUU+rVhkN/Wlmjcbj1r9la6FPIhgAACCCBQqwIMsGp1Z+kLAQQQQGBUAhvesLSp6aHBV3robza342VqkPb9H/9GjkqQgxBA4HECrn23HvoDoXRlqMJ32zLrbzSp+Od8EEAAAQQQQGCcAnxzPk44liGAAAIIxE+geEvg3SuOnJ8PG06T9CIzmy9poXzfwIoPAgggUBYBk9/vsjvdfbWC4BfJhP1iZs+awbIkIygCCCCAAAI1KsAAq0Y3lrYQQAABBKQNb5jbNHXXlFQhHx5rppNC16n28POr+CCAAAJVFPCCZDfL/BpXcGMhH9w258rV66tYEKkRQAABBBCIvAADrMhvEQUigAACCIxWYHXXosYDZdMaCuFC9/AtMnulXFNHu57jEEAAgeoJ+IDMLkzY3h8mdgfbpj97/U7rVli9esiMAAIIIIBAtAQYYEVrP6gGAQQQQGCMAsXbArd2ti8NQjvbzJ8t2WGSDhpjGA5HAAEEIiKw7+qse13abm4/8Ybge609qzdFpDjKQAABBBBAoGoCDLCqRk9iBBBAAIHxCHhXVyIX3voMC22ppJMlP1GyGeOJxRoEEEAgBgKhue50+Q1mWmXWuGpW7213xqBuSkQAAQQQQKCkAgywSspJMAQQQACBUgt4t4Ktt85vNVkq8OQKub9CpuJVVnwQQACBuhMwU+iuP7v0I7Pw2oIHd87OZHfUHQQNI4AAAgjUnQADrLrbchpGAAEE4iEweMqSqT5t5PUu/7C55kji36x4bB1VIoBAZQWKz8n6nSXCf2q+bO01lU1NNgQQQAABBConwA8DlbMmEwIIIIDA0wgUH8A+veAvkfvrZDpGbvMknwIaAggggMDoBNx1nwVa66H9osH84hmZ7NrRreQoBBBAAAEEoi/AACv6e0SFCCCAQE0KFB++Prg8dYRJJ3qgl5jrpS611GSzNIUAAghUXqD412xW7j9z8/8tJJO/n9Oz+t7Kl0FGBBBAAAEESiPAAKs0jkRBAAEEEBiFwLrT5k86ZFpw2HA+eWqgwnskWzKKZRyCAAIIIDBxgWF3XR4kgq8qHN7wm+QdO87sUWHiYYmAAAIIIIBAZQQYYFXGmSwIIIBAXQts7lo8vaFQeL+7nyXZoZK4NbCuzwiaRwCBKgq4pIdcfqdk32gZyn/frl4/XMV6SI0AAggggMCoBBhgjYqJgxBAAAEExiKw782BNy98YSIIlks6Sa7jJAVjicGxCCCAAAIVEXjITb+z0H8x3KCeuT39GyqSlSQIIIAAAgiMUYAB1hjBOBwBBBBA4MkFtnctmuZ7wyWFhJ8WuL3JpVasEEAAAQRiJ3Cjmy4yC67L7pjZ/8JVq/Kx64CCEUAAAQRqUoABVk1uK00hgAAClRHwpUuTAwdtblEieW7geqtkicpkJgsCCCCAQLkFTBr0wD+ZD3ZdNHvxlmHrVljunMRHAAEEEEDgqQQYYHFuIIAAAgiMWWAwveRoafjDLjvJTHPc1TDmICxAAAEEEIiLwEPuWm+BrjRv/EZz5tbtcSmcOhFAAAEEakeAAVbt7CWdIIAAAmUT+NXSpcmOQ7efIPe/c/nL5XpG2ZIRGAEEEEAgwgK+xxWscvefFZS/+vCV6++IcLGUhgACCCBQQwIMsGpoM2kFAQQQKKXAH885oaFt+642N19msvdJmlvK+MRCAAEEEIi9gEv2c8k/FxSGszOv3LDdpOJbDvkggAACCCBQcgEGWCUnJSACCCAQf4GBzo6zAoWfCN1aTZoU/47oAAEEEECgjAIu024PdUOiQefP6sneUMZchEYAAQQQqFMBBlh1uvG0jQACCDxaYHPXiZMThftfYQpfJbdnSzoUIQQQQAABBMYhEJrpDne7Rlb4bkvv2j+MIwZLEEAAAQQQeIIAAyxOCgQQQKBOBTYsnds05ZCmZ+RlaVP4BpPNqFMK2kYAAQQQKJOAu99s0gVu4arWzLq+MqUhLAIIIIBAHQgwwKqDTaZFBBBA4BGBS7uUeNbI3AMmJSa9KgiDbpfPQgcBBBBAAIEKCdyoZPgea2paPeviW3fzvKwKqZMGAQQQqBEBBlg1spG0gQACCOxPYGtnxysDD9/v0gKTHby/4/k6AggggAACZRIYdNevQlP37Ex2bZlyEBYBBBBAoMYEGGDV2IbSDgIIIPBoga2dHccnQp3lgXfKdTg6CCCAAAIIREXApEJo+l0Q+qUFb+htu+L2zVGpjToQQAABBKInwAArentCRQgggMC4BYrvM79nWXtL2BD8TVjw82V6xriDsRABBBBAAIHKCey1wC+VB18PEnb7zJ41OyuXmkwIIIAAAnEQYIAVh12iRgQQQGAUArmuZ8xQfs83zHSGuxpGsYRDEEAAAQQQiJpAKOkBC8J/nhWs/ar1qBC1AqkHAQQQQKA6AgywquNOVgQQQKAkAqu7Fk07JF94k1nwGrkXr7ZqLElggiCAAAIIIFB9gR2Srg9l/96W6ftF9cuhAgQQQACBagowwKqmPrkRQACBcQj4OSc03H330LMLKqQlvV7SoeMIwxIEEEAAAQRiI2DSbTJdGMqubO3tuys2hVMoAggggEDJBBhglYySQAgggED5BIrPtrr3tfMPGNmdeGYo+6pJi8uXjcgIIIAAAghEVsAlZSzvH3goXxhYcPX64chWSmEIIIAAAiUVYIBVUk6CIYAAAqUXGDh94WFB0j7msleb6TB3BaXPQkQEEEAAAQRiJTAi2aZQ4WfaMv3fjVXlFIsAAgggMC4BBljjYmMRAgggUF4BX7o0OXjowCkKgzdLOkXStPJmJDoCCCCAAALxFHBpq+SXWzL5rZae1Wvi2QVVI4AAAgjsT4AB1v6E+DoCCCBQQYHNXYunB/mRU0zBuSYdW8HUpEIAAQQQQCDWAiYVQulSD/XvrXvzNxm3F8Z6PykeAQQQeLwAAyzOCQQQQCACAutOmz9p2uTkeXJ9PALlUAICCCCAAAKxFjAplzd7S9uSvqutW2Gsm6F4BBBAAIF9AgywOBEQQACBKgpsSS88NqHgU5JOkjS9iqWQGgEEEEAAgZoSMFPork2S9RTkn5udye6oqQZpBgEEEKgzAQZYdbbhtIsAAtUX2He11aTGM2ThGyW9tPoVUQECCCCAAAK1LeCy+026JLTwB9cnltx4Zk9PobY7pjsEEECg9gQYYNXentIRAghEVGDbsqNnjSTzpyVCfVWmAyJaJmUhgAACCCBQ0wLufm0iaef65MZbmi++dVdNN0tzCCCAQA0JMMCqoc2kFQQQiKbAwOknTLHk7u9I/nKJwVU0d4mqEEAAAQTqTKDgpkGZf+q6YMmFXJFVZ7tPuwggEEsBBlix3DaKRgCBOAjkli/6G1nh/ZL9naQpcaiZGhFAAAEEEKg/Ab/DLPjxpAP3fPGQizbeX3/90zECCCAQDwEGWPHYJ6pEAIGYCGzumj05MTLtZAX2dnNfJimISemUiQACCCCAQL0LDEv+ZVPwg+ZM3+31jkH/CCCAQNQEGGBFbUeoBwEEYinwx3NOaGi5e/fSQOF3JJsTyyYoGgEEEEAAAQT2CZgss8f3vGnucRsftG6FsCCAAAIIVF+AAVb194AKEEAgxgKXdinx/PzCN4UKPmDSUZISMW6H0hFAAAEEEEDgEQHTkELdOJLwDx5+ef8fgUEAAQQQqK4AA6zq+pMdAQRiKnDXy485pLFx5M2SzpbUHtM2KBsBBBBAAAEE9i+Qd9kvgoR9a9b0yT+zC24a2f8SjkAAAQQQKLUAA6xSixIPAQRqWmB716LmfKHwKnP7rKSmmm6W5hBAAAEEEEDgcQL+e7l9uHk4f4NdvX4YHgQQQACBygkwwKqcNZkQQCDGAutOmz9p6pSGfzL398o1NcatUDoCCCCAAAIITEwglPwel69ozay9bmKhWI0AAgggMFoBBlijleI4BBCoS4HB9FEzQyU/YrIuSa11iUDTCCCAAAIIIPBkAi75Hzy0r7SszP7YTA4TAggggED5BBhglc+WyAggEGOBwa72eWHezjbpHyRNi3ErlI4AAggggAAC5RVwM90Qur5YSO68ek7Plj3lTUd0BBBAoD4FGGDV577TNQIIPImAS3b/8uMO2mN7im8UPE+yACgEEEAAAQQQQGC0Au7aFJpetWco/6cFPCNrtGwchwACCIxKgAHWqJg4CAEEal3g7mXtB4wE+qSZ/b2k6bXeL/0hgAACCCCAQNkEQkkb3cIPtPauzZQtC4ERQACBOhNggFVnG067CCDwWIEH06lDd8k/aLKznGdccXoggAACCCCAQOkEXKbfu/vX7ksmehb3rNlbutBEQgABBOpPgAFW/e05HSOAgKQNXYuam8LwFeb6N3c1gIIAAggggAACCJRLwF1/luu8+xqDXzHIKpcycRFAoNYFGGDV+g7THwIIPEagu1vBObemig9n/4pcTfAggAACCCCAAAKVE/DNiWTyRTN7Vq+vXE4yIYAAArUhwACrNvaRLhBAYD8Cl3Z1JZ4f3v4uub/TXfMl8fcfZw0CCCCAAAIIVEOgIOk6V+JjrZnV11WjAHIigAACcRTgB7g47ho1I4DAqAU2vGFu05QHJq0IZedJWjzqhRyIAAIIPL2AS7pXrgGZ7pX0LElTQEMAAQRGK2DSiEw9BdkX23r7/jTadRyHAAII1KsAA6x63Xn6RqDGBfycExoG7tn5N4HbtyWlarxd2kMAgbIL2G6Z3yP3dQXZzyxM9rRdcfvmYtrBFYue7WF4A1d2ln0TSIBAzQq4dGEyGZw/s2fNNknFATkfBBBAAIHHCTDA4pRAAIGaExjsWjIvzA9nArNFPKC95raXhhCorIBrg8y+mB8prMzv3Ltj3qqNQ48uwLsVDN6S+oOk4ytbGNkQQKDWBEx6qCD/SWLapPc2X3zrrlrrj34QQACBiQowwJqoIOsRQCAyArkVixYrDLslpSUlIlMYhSCAQLwEXA8p0AVJ80sOu7z/JnuaqyEGVnQstzC8TDL+zonXLlMtApEVcPlms+DCrYdN+ZdnXnDTSGQLpTAEEECgwgIMsCoMTjoEECi9wEDX4sM9n39XYPZu3ixYel8iIlA3AqYNJn17ViL4V+tZs3d/fQ+cvvAwJYNNJk3e37F8HQEEEBirgLtvloJ/KDQc/N9zem7YM9b1HI8AAgjUmgADrFrbUfpBoI4Eis+5yt390LtNwRfrqG1aRQCB0gvsNPePzTqu/2vWrXC04bekU/+YkPj7Z7RgHIcAAuMVWD3SmD9jzk/W3/l0V4SONzjrEEAAgbgIMMCKy05RJwII/J+AdymRy6feZNK5ko6EBgEEEBi/gH0hKCS+OOvK24sPTh71Z9urj54VDuXXSTpg1Is4EAEEEBi/wJBJv8lb/s2ze9dvGX8YViKAAALxFWCAFd+9o3IE6lJg4IzUqUGgD7n0oroEoGkEECiFgMu0KnB9dFYmW3x74Jg/uXTH5yX/4JgXsgABBBCYiIBrl8y/acp/oTlzx/aJhGItAgggEDcBBlhx2zHqRaAOBVyybV3tc8MR+7SZXl2HBLSMAAKlE9gp9y+1rOw/f7whNyyd2zT5kKY7XWoZbwzWIYAAAhMSMO0K3N+anFK46tAfrn9wQrFYjAACCMREgAFWTDaKMhGoVwF3Wa4z9a+S3mFSU7060DcCCExcwKUdlkw8v6VndZ+e5s2C+8s0sDz1GTOdt7/j+DoCCCBQAYFBl7+xNdP/8wrkIgUCCCBQVQEGWFXlJzkCCDyVwL4HtG/f+Q4ze5+kI5BCAAEEJiDgbrqgIe8fnHFl/0MTiKM7uo48aEq+Ya1kMycSh7UIIIBAqQRMGnHZb4Ig/MdZl/ffWqq4xEEAAQSiJsAAK2o7Qj0IIKCB9MLnSfYZk50MBwIIIDBBgZ0W+MeaL+//ygTj7FueW9HxMoX+U0l8D1UKUGIggEApBYpvUf1ywfJf4kHvpWQlFgIIREWAb76ishPUgQACuuvlxxzS2LD3mzJ7JRwIIIDAhAVMuzyhF7T2ZG+acKziPYddSgyOpNbJNK8U8YiBAAIIlElgp0J75b2N9r+Le9bsLVMOwiKAAAIVF2CAVXFyEiKAwOMFig9pz3V2vMfcPyrpMIQQQACBiQv4ncmCTp5xZf/AxGM9HGGgs+P55v7rUsUjDgIIIFBGAZd0W5jQ29suy/62jHkIjQACCFRMgAFWxahJhAACTxhcdSvI3dJ+isk+KelZCCGAAAIlEliVT4avm9OzdmuJ4j08wEp3fNnk7yllTGIhgAACZRbY4+Y/asjr/FIO9MtcM+ERQACBJxVggMWJgQACVRHILU/NVeCflNvreJZMVbaApAjUooCb65r7Q+9MTfBh7Y/HWXfa/EnTmpKbJc2oRTh6QgCBmhfYbe7/kAh16URfZlHzUjSIAAKRFWCAFdmtoTAEalOgeLvgYGf7x+R2vqRkbXZJVwggUA0Bc/3uoeH8CxZcvX641PkHlrW/1hL2g1LHJR4CCCBQQYHibYXbAis8d1bvujsrmJdUCCCAQEkEGGCVhJEgCCAwGoHBzvZlLvuMXIu46mo0YhyDAAKjFjBdPnTg0OvmXbRxaNRrxnBgLt3+M8lOG8MSDkUAAQQiKuAFya4Iw5H3tl1xR/HKUj4IIIBALAQYYMVimygSgXgLbOtccGTBk58wefF2QT4IIIBAqQUuaz5o6Cwr0/CqWGwunSo+T6u11IUTDwEEEKiiwHaXf7xlqPCfVoYrV6vYF6kRQKBGBRhg1ejG0hYCURDY8Ia5TU0PTDpdZt+XqykKNVEDAgjUjoBJ7tLtNq3xxOaLb91Vrs42r2hfkgztlnLFJy4CCCBQZYG1CoLO5svXrCn+vVrlWkiPAAIIPKUAAyxODgQQKIvA3enUwoL8Jy47ltsFy0JMUAQQkNbcmwyevbhnzc5yYgymU70upcuZg9gIIIBANQVc2h1IFzdnsm+rZh3kRgABBJ5OgAEW5wcCCJRU4N6uIw/aO9LQ7WZvlnRASYMTDAEEEPirgMtu3mt62dzevlw5UQZOP2GKkrt2mLiKtJzOxEYAgcgI3BkE+tDMy7O9XI0VmT2hEAQQ+KsAAyxOBQQQKImAdyvI3ZZ6SRD61112VEmCEgQBBBB4coF78oH/7ZzL+28tN9CWdGphQuqTFJQ7F/ERQACB6Aj4pflk8qNzelavj05NVIIAAvUuwACr3s8A+kegBALedeLkwfy9P5XsRSUIRwgEEEDg6QQKssSJLb2r/1AJpoEVqVMt1M8rkYscCCCAQMQERkL521qP7b/IuhVGrDbKQQCBOhRggFWHm07LCJRKwCXbtrz9H9zsI5JmlioucRBAAIGnECiY66z/OC77k+4K/TCVS3d8U3KeCcMpiQACdSvg0k2WDN/R0rP293WLQOMIIBAJAQZYkdgGikAgfgKD6Y6jXf7vkl4Qv+qpGAEE4ijg0ldbM9n3VKr24pA+l26/y2RzKpWTPAgggEAkBUy7zP3Lu5IjXziq584HIlkjRSGAQM0LMMCq+S2mQQRKKzB41pKpvnvvGxXqy5ISpY1ONAQQQODJBQLpNzOPfdULrbu7YrexbO5a2JbMB1vYEwQQQACBvwq4NlkiOHPW5Wt+z0PeOSsQQKDSAgywKi1OPgRiLDB4evs8TwY/NXlH8cqEGLdC6QggEC+BvWE4Mr/tijs2V7Ls3PKFp8mCn1UyJ7kQQACBqAu4tDcw//6sJf1v5dlYUd8t6kOgtgT4AbS29pNuECiLwOApS6b6tOHzze1tLh1YliQERQABBJ5cYHdBevHsTPaGSgMNLO94r5l/qdJ5yYcAAgjEQsCUDQv27rYr+v43FvVSJAIIxF6AAVbst5AGECivwOCKBc8uhIkvBdKJ5c1EdAQQQOAJAi7zLzT39p9bjVtVculU8Tl/72RfEEAAAQSeWsDkX83LPjk7k92BEwIIIFBOAQZY5dQlNgIxFlh32vxJ06YkP6JQ/yRuF4zxTlI6AjEWMP2qpTf7omp1MJjuWOnyM6qVn7wIIIBAjAQeKig8ue3YtbdxW2GMdo1SEYiZAAOsmG0Y5SJQCYGBrtQJyuvHJs1neFUJcXIggMATBXxPIplfMrPnjvXV0smlU8XbFp9TrfzkRQABBGImsDeUr7T8tDe2XnXT7pjVTrkIIBADAQZYMdgkSkSgUgJ+2vxJg5MbPiH3d0uaUqm85EEAAQQeLxC6XtO2Mvvjasrk0qk7JB1ZzRrIjQACCMRQ4E43+0DLkr4ruBorhrtHyQhEWIABVoQ3h9IQqJRA8Y2CueWp42V+hcnaKpWXPAgggMCTC9h12ftmvfCFq1blqymUS6cekjStmjWQGwEEEIitgPk3dnn+E/Mzd2yPbQ8UjgACkRJggBWp7aAYBKojsK0z9fHQ9TFJyepUQFYEEEDgYQGTcrPuaz7cqjy8Gjh94WGWDO5mXxBAAAEEJiLg20MLTmvr7fvTRKKxehc8AAAgAElEQVSwFgEEEPjr94lAIIBAvQoMdi2ZFxb2/sB83xsGGWjX64lA3whEScD0xpbe7EXVLmnzivYlydBuqXYd5EcAAQTiLuDSsFzfawj9AzOu7C9e2coHAQQQGJcAP7COi41FCMRbYHXXosbDCuEbC66vmDQp3t1QPQII1JDAZS2ZbFcU+hno7Hi+uf86CrVQAwIIIFATAqZbA/k7ZvX2X18T/dAEAghUXIABVsXJSYhAdQXuWz734D3WdKlJL6luJWRHAAEEHiMw4kG4pPXytdkouAyuSJ3uoa6MQi3UgAACCNSQQBiaPrl7T/5fFly9friG+qIVBBCogAADrAogkwKBqAgMdrYvc7fvSDosKjVRBwIIIFAUcNPbWnuz34qKxkDnwrPMg+9HpR7qQAABBGpIwCXdPpz0M+b29G+oob5oBQEEyizAAKvMwIRHIAoCf30Y8eclvYFnXUVhR6gBAQQeLWDSnUEyOHZmz5qdUZHJrUi9S6G+FpV6qAMBBBCoQYG7A/n5MzP93zKpONTigwACCDytAAMsThAEaljAu7oSufwtJwYWXOKuthpuldYQQCCmAsWH+4ZmS2f39t0YpRYGOjvea+5filJN1IIAAgjUoIB7oEx+xN99+JX9AzXYHy0hgEAJBRhglRCTUAhETWCgM/UZc50XtbqoBwEEEHiUQGQe3P7oXdnaufAdgQdfZ6cQQAABBMov4NIeJYJTWy9bc235s5EBAQTiKsAAK647R90IPI3A5q6FbYlCcKm5TgIKAQQQiLDAcL6QOHrOlavXR63GrZ0dZwfuF0atLupBAAEEalhgt5t/b9eewvt4wHsN7zKtITABAQZYE8BjKQJRE9h3y+De214ZBP4Nlx0UtfqoBwEEEHiMgPn5Lb39/xxFlVx64d9LwfeiWBs1IYAAArUs4LLrLLC3tVy+ZnUt90lvCCAwdgEGWGM3YwUCkRS4t+vIg4YLDZ+V29sjWSBFIYAAAo+dXu3eU0gceeSVt2+LIszWzo5XBu6XRLE2akIAAQTqQGB3qOA1rZk1V/KA9zrYbVpEYJQCDLBGCcVhCERZ4O5lz2gtJPZc69KRUa6T2hBAAIFHBEL58rZM/xVRFRlYsfhUCws/j2p91IUAAgjUgUDezX86fODwq+ddtHGoDvqlRQQQ2I8AAyxOEQRiLHBplxInF1LvlevTkibFuBVKRwCBOhJwad3AjKmLn3nBTSNRbXtTuuPoBvltUa2PuhBAAIF6EXC3P4fm75ydyd5QLz3TJwIIPLkAAyzODARiKrBpWXtrQ9K+KteKmLZA2QggUJ8C7h6+vnXl2ouj3P6G5XMPbrKm+6JcI7UhgAACdSSwM7Twfa33tl5kq1bl66hvWkUAgUcJMMDidEAgZgIu2Y7TF7bnk8HvXDowZuVTLgII1L2A3diS6TsxDgy5dGpYUmMcaqVGBBBAoD4E7JoHCmE6dWX/Q/XRL10igMCjBRhgcT4gECOB4vBqMN3+WZe917hlMEY7R6kIIPB/AmGiq+WK1ZfFQWQwndrm0sw41EqNCCCAQN0ImDYp0OtbLsuuqpueaRQBBPYJMMDiREAgJgLbuxY15/Ph90w6JSYlUyYCCCDwGAGX39IyY9qzLMLPvnp0wbl0+xrJOthGBBBAAIHICez8y0+y3c2J4GvWs2Zv5KqjIAQQKIsAA6yysBIUgdIJdEvBW16Rek5Q0C8kTSldZCIhgAACFRUICx6cMnvlmmsqmnUCyXLpVLHWF00gBEsRQAABBMoqYD2eL7yj9aq195Q1DcERQCASAgywIrENFIHAUwvkOlMfN+mj7mrACQEEEIixwL355M7Zc3q27IlLD7nO9u/L7ay41EudCCCAQH0K+GbL6wXNV/VvqM/+6RqB+hFggFU/e02nMRO4t+vIg/bmG38g08vcFcSsfMpFAAEEHi3gMju9pbfvv+LEMpBOfdakc+NUM7UigAAC9Shg0gN5+bnfzvRf0C2F9WhAzwjUgwADrHrYZXqMncDWzvbnJtwuc6k5dsVTMAIIIPBEgdtbMtlj4gaT61z4Dnnw9bjVTb0IIIBA3QpY8O8FD7tnZ7I76taAxhGoYQEGWDW8ubQWPwHvVpC7ddFbzMP/iF/1VIwAAgg8uYBJ5zVnsv8SN5/cioUvUxjE6qqxuBlTLwIIIFByAdPqKYnE8w/qWX1vyWMTEAEEqirAAKuq/CRH4P8LbO6aPTmZn3aJmU7jeVecGQggUEMCO2xa4xHNF9+6K249DXa1z/O83Rm3uqkXAQQQQED3hZZ4Q1vv6iuxQACB2hFggFU7e0knMRbYvKx9STJpF8j17Bi3QekIIIDAkwl8siWT/XgcaS7t6kqcnL+teBvKQXGsn5oRQACBuhYwhXJ9eedQ/iMLrl4/XNcWNI9AjQgwwKqRjaSN+AoMrEidqtAvMdnB8e2CyhFAAIEnFXCFiaNbrli9Jq4+A+nU/5j0krjWT90IIIBAvQuYtMqT+TNbetbfXe8W9I9A3AUYYMV9B6k/1gJbOzs+FLh/VuItg7HeSIpHAIGnEvhpSyZ7epx5cp2pbrlieQVZnN2pHQEEECipgGkkTPgxbT39/SWNSzAEEKioAAOsinKTDIGHBXacNv/AvU3J/5TUiQkCCCBQowIjCvPHtVyxPrZXXxX3JXdGx8sUOA9yr9GTlLYQQKB+BFx+v7s+0Lay/zv10zWdIlBbAgywams/6SYGAtu7Fs8v5AsXS3pODMqlRAQQQGCcAn7H0H3DR89btXFonAEisWww3XG0m98i50rZSGwIRSCAAAITEyjI7IvNbSPn29d4LtbEKFmNQOUFGGBV3pyMdSrQ3a3gnNvajw9C+6VLB9QpA20jgEDdCPiHWjL9X4h7u1vSqUOT0qBLybj3Qv0IIIAAAg8L/OXZhteH+XB561Vr78EEAQTiI8AAKz57RaUxFxhYkfpHC/UZSZNi3grlI4AAAvsTuPveZDB7cc+avfs7MOpfd8kGl6c2ynR41GulPgQQQACBMQi4NrkVXtqaWdc3hlUcigACVRRggFVFfFLXh8Cvli5Npg4ZLN5rf9bDv/DhgwACCNS4gOmilt7sG2uly4HO1GfMdV6t9EMfCCCAAAL/J3CPZO9vzvRdbJLjggAC0Rbgh+lo7w/VxVxgW+eCI0NPXCHp6Ji3QvkIIIDAqAXyYfjyOVes/dmoF0T8wFzX/EWWT95evBor4qVSHgIIIIDAGAXMFMr9/DA/7UutV920e4zLORwBBCoowDdiFcQmVX0JbEmnTkxIvxHPTamvjadbBOpewO9uPvbVzdbdHdYSRS6d2iFpei31RC8IIIAAAv9fIJRf05rsP9V6VMAFAQSiKcAAK5r7QlUxFij+hn5bZ+pd7vq0eFh7jHeS0hFAYJwCH2zJZP91nGsjuyzXmfqDXM+MbIEUhgACCCAwcQHXmmRgL57R25ebeDAiIIBAqQUYYJValHh1LTBw+glTguSuf5Lp/X8ZYDXUNQbNI4BAPQp4g5KLD8vcXnMPxB1It19osrPrcVPpGQEEEKgnAZfuC+SvaM70/7Ke+qZXBOIgwAArDrtEjbEQuLfryIOGRhq/YabXxKJgikQAAQRKLeC6p/n+5hZbtSpf6tDVjjfY2b7M3YrPNOSDAAIIIFDzAh5K/sbmzFoe7l7ze02DcRJggBWn3aLWyAqse/f8SdO2JH4v2ZLIFklhCCCAQJkFTOE5zZm1F5Y5TVXCe9eixsF8+KCkSVUpgKQIIIAAApUWyEv27eZj+95p3aqp5zpWGpJ8CJRKgAFWqSSJU7cCuc6Fz3IPMia11S0CjSOAQN0LmPTAjmQwc3HPmr21ipFLp66R9KJa7Y++EEAAAQQeJ/DwGwp7JyVHzp7ec+cD+CCAQHUFGGBV15/sMRfIdba/wkP7gRm/kY/5VlI+AghMXOCGlkz2pImHiW6EgXTqXJM+G90KqQwBBBBAoDwCdu1wPnz93Kv6N5QnPlERQGA0AgywRqPEMQg8TqBbCs5JL/6QqcAPMpwdCCCAgKTQ7cNtK/s+X8sYmzoXPL/BE7+u5R7pDQEEEEDgKQW2J5LBsTN71gxihAAC1RFggFUdd7LGWMDfMLdp2wNNP5J0ukvJGLdC6QgggECpBEJTY0tz5tbtpQoYxTiDZy2Z6jv33ifxltko7g81IYAAAhUQ2GkqvLo5s+6nFchFCgQQeJwAAyxOCQTGILD1jKPmBEHDBZJeOoZlHIoAAgjUusBvWjLZF9R6k8X+Bpa3f9/MzqqHXukRAQQQQOCJAmYacfnHWnr7a/qqY/YegSgKMMCK4q5QUyQFcstTc930c5PaI1kgRSGAAAJVEnDpvNZM9l+qlL6iabd2tj83cLtWEt9DVVSeZAgggEC0BELp67uH8u9fcPX64WhVRjUI1K4A33zV7t7SWQkFti2ff1RoyZskHVTCsIRCAAEEakIgSOi5sy7L/rYmmtlPE7mu+TOskFznzr8H9bDf9IgAAgg8jYDL9et7G4JTa/kNvJwBCERJgAFWlHaDWiIpsDXdfkYg+76kAyNZIEUhgAAC1RRwPTh0/9Cseas2DlWzjErl9i4lBvOpP0s6plI5yYMAAgggEF0Bl64PNNLZnLmjpp8DGd0doLJ6EmCAVU+7Ta9jFhjoTJ1jrq9KmjTmxSxAAAEE6kPg6y2Z7Lvqo9WHu9zaufAdgQdfr6ee6RUBBBBA4GkFbg+s4YxZvbfdiRMCCJRPgAFW+WyJHGOBXy1dmkxNH3yPXF/gOScx3khKRwCBcgu4PHhOy8o1vy93oijF9+6lyW23Dt7vrqlRqotaEEAAAQSqKGAaKYSFv5m9ct3NVayC1AjUtAADrJreXpobj8ClXUqcnE99V1LxLVP8NzIeRNYggEC9CDy0p5BccOSVt2+rl4Yf6TOXTv1S0gvrrW/6RQABBBB4agGTHpSCv2/OrLkCJwQQKL0AP5yX3pSIMRYYPGvJ1PChkR+Y+fIYt0HpCCCAQKUENjbPmLrQLrhppFIJo5JnIN3+UZN9Kir1UAcCCCCAQGQEdsrCDzf3rv2mSR6ZqigEgRoQYIBVA5tIC6UR2Lbs6FmFxMjPTXZcaSISBQEEEKh5gX9ryWTfX/NdPkmDuTPmL7IgeZtLQT32T88IIIAAAk8tYFI+NP9gy57CN+3q9cNYIYBAaQQYYJXGkSgxF9hxxtFz9gYjayVrinkrlI8AAghUTMDzYUfrVWuzFUsYsUS5ztSNcj07YmVRDgIIIIBAdATq7kUn0aGnkloUYIBVi7tKT2MSyC1PLZXph5Jax7SQgxFAAIE6FjBpcFYm21rPt0ds7Vx4duDBhXV8GtA6AggggMD+BFxXNWeyZ5hxO+H+qPg6AvsTYIC1PyG+XssCNnBG6hQL9ANJh9Vyo/SGAAIIlEHgly2Z7N+WIW5sQg6kF3SYEmtiUzCFIoAAAghURcDdrw3N0rMz2R1VKYCkCNSIAAOsGtlI2hibgEu2/YzFp3iicJW7Gsa2mqMRQAABBFz6amsm+556lvBuBYM3pzbLuIK3ns8DekcAAQRGJeBaM9QQ/O28njWDozqegxBA4AkCDLA4KepSYHB5x5vd/JsSw6u6PAFoGgEEJizgrle0rsxePuFAMQ8wsKL9dRbaxTFvg/IRQAABBCogYKb1eddzuBKrAtikqEkBBlg1ua009VQCxSuvcumFH/7LS6O6TZqEFAIIIIDA+ASGkkELv0WWNrxhbtOkByblTHbw+CRZhQACCCBQZwJ3Dif9xXN7+jfUWd+0i8CEBRhgTZiQAHERWHfa/ElTmhreG8g/LSkRl7qpEwEEEIiagEnrmjPZhVGrqxr1FH8xMphu/41kz6tGfnIigAACCMRSYMjMXtjc23djLKunaASqJMAAq0rwpK2swKVdSjx3pP0zgdmHKpuZbAgggEANCpj+s6U3+6Ya7GxcLW1Nt78pkH1nXItZhMDDAi6J78s5GxCoKwEvuAUvau3t+01dtU2zCExAgH8oJ4DH0vgIDHR2fN/cX8c3h/HZMypFAIHoCoTuZ7et7Gdg89ct8tPmTxpsSm7hjbbRPWejXJlLe839JzI7K8p1UhsCCJRewKQHQtM7WnuzPyp9dCIiUHsCDLBqb0/p6FECg6csmepTR/5T8i5gEEAAAQRKI5BQePLMzNrrShOtNqIMdHZ829zfXBvd0EUFBbZYUHiFh4l/kvTyCuYlFQIIREXANCTp7c292e/Zw1dj8kEAgacQYIDFqVGzAg90LZ6+O59fKdnJNdskjSGAAALVEJikeS2XZDdWI3VUcw52ti9ztyuiWh91RVLgT56fenJDctfsvJTlKvFI7hFFIVAxgTC0d7Y+o+8/rFthxZKSCIGYCTDAitmGUe7oBPzd8ycNbkn+XtKS0a3gKAQQQACB0QoMHTQ0ed5FG4u/MebzVwF/w9ym3ANN95nUBAoC+xNw95/tGi50Lrh6/TBX7+1Pi68jUB8CJhUkfa45k/1ofXRMlwiMXYAB1tjNWBFxgYHTT5hiiV2/lumZES+V8hBAAIHYCZh0S3Mme1zsCq9AwbnlqY//5THc3RVIRYr4Crjcv9k4tXDeoT9c/2CxjVw6Vbya8Yj4tkTlCCBQQoERuX+puWHJR6ynpzjQ4oMAAo8SYIDF6VBTAjs6l8zeG478Subza6oxmkEAAQSiImD2+Zbevg9HpZwo1bF92eL5hURhtaTGKNVFLZERKLj5Rbv2FN5ZvPKqWNXWdPsZgWxlZCqkEAQQiIJA8TlY/7x1xtRPPfOCm0aiUBA1IBAVAQZYUdkJ6piwwLZlR8/yRP53zm8xJ2xJAAQQQOCpBAoevHj2yjXXIPREgT+ec0JD290775RsNj4IPE4glOkbLb3Zdz/y596tYNstHWtdfhRaCCCAwBMF/AvNx/afyzOxODcQ+P8CDLA4G2pCYHPX4umJfOEGkxbWREM0gQACCERTIL9zKH/ogqsfvvWJzxMFcunU6yVdhA0CjxEwfaL53uZP2apV+Uf+PLc8NVemfq7Y41xBAIGnECi4+0Utx/WfwxCLcwSBhwUYYHEmxF5gS+f82Ykw+SuZuG0w9rtJAwggEHGBHUP3Dc2et4oHuD/VPl3apcTJ+dQWSc0R30vKq4xA6IG+smt3/rxHbht8JO1gZ+o17vphZcogCwIIxFGg+GB3d/9W88HD7zdenhLHLaTmEgswwCoxKOEqK7B9RceCQhheJ9nMymYmGwIIIFCXAhubZ0xdaDyT42k3P7e8/RKZvbIuzxCafrRAaPIf9d3X8sYXPurKq+IBLtlgOvU7Sc+CDAEEENivgOtrQwcPfYg3AO9XigNqXIABVo1vcC23t2lZe2tDwm6VdGgt90lvCCCAQGQETLdem8gef2bPvld983kKgYEVqVMt1M8BqncBv7Q50/8q2zeveuxnU7rj6Ab5bfUuRP8IIDAWAb+0JdPPL0fGQsaxNSfAAKvmtrQ+Ghro7DjC3H/Na6frY7/pEgEEIiPw65ZMdmlkqoloId7Vlcjlb7vdpFRES6SsMgu4+c8mTS68+tAfPvnz4nLp9g9K9vkyl0F4BBCoLYHQpZXDBw29liuxamtj6Wb0AgywRm/FkRER2LaifUkY2i+58ioiG0IZCCBQRwL+Hy2Z/rfXUcPjbjXXmXq/XP867gAsjK2Ay/uU9+e3XrX2nqdqItfZ8V9yf1lsm6RwBBCoikDxik53/0Ey1DtnXNn/UFWKICkCVRRggFVFfFKPXeCvl9z/XtLksa9mBQIIIIDARARc4T+2ZtZ+aSIx6mVtrmvxIuULq+ulX/p8RMC33JtMHLW4Z83epzL54wknNLTN2XmPzA7EDQEEEBiPgEs/3jWUf+PjXw4xnlisQSBOAgyw4rRbdV5r8bbBwP1G581OdX4m0D4CCFRLIJQvb8v0X1Gt/HHK690KBm9J/UHS8XGqm1onJDAcBvkT2y5f/+enizKwIrXCQl02oUwsRgCBehcoPlvvv5qPzZ5h3QrrHYP+60eAAVb97HWsO916xlFzgkTDdXIdHutGKB4BBBCIsUAQ+LGzLu8vvjyDzygEBjo7nm/uv5IUjOJwDom5QCh7dVum75Kna2Pf2weXp66Q6fSYt0v5CCBQfQF36RLlHzy79aqB3dUvhwoQKL8AA6zyG5NhggJ3p1ML89KNkg6ZYCiWI4AAAghMQKBxSv6gp3oo9QTC1uzSgdNPmGLJXesltdRskzRWFAjd9bnWldmP7I9j3WnzJ01rSmYlzd3fsXwdAQQQGJWA+zeGDh5+Pw92H5UWB8VcgAFWzDew1stfnz5q5lQlb5dsRq33Sn8IIIBAxAV2tmSyB0S8xsiVN7g89UM3vSZyhVFQ6QRMf9562NRnP/OCm0b2F3THa+cfOLw7ud2kSfs7lq8jgAACoxfw7zZn+s8uPuR99Gs4EoH4CTDAit+e1U3Fm7sWT0/mC7+V1F43TdMoAgggEF2Bu1oyWa4aGeP+bDy9fd6kpNZJlhjjUg6Ph8Caxin5E0d7ZeK2zo506N4bj9aoEgEEYiRQkPx72fta3vrCVavyMaqbUhEYkwADrDFxcXClBDYta29NJmyVSQsqlZM8CCCAAAJPI+C6rWVldglGYxfIpVPXSHrR2FeyItoCvkey01oy2V+Pts5cOnWVpL8b7fEchwACCIxBIAzc/nXmzCkfs1FcETqGuByKQGQEGGBFZiso5BGB7V2Lmgv58HpJR6KCAAIIIBANAZOub85knxeNauJVxcDy1Dlm+la8qqba/Qm4/O2tmf7/2N9xj3x9c9fsycn81J2S8VD/0aJxHAIIjFnA3D81q2FJt/X0FMa8mAUIRFyAAVbEN6jeynv4gbe7/yh5R731Tr8IIIBApAVMP2/pzZ4W6RojWtwdXUceNCXfuF1SY0RLpKyxC/w6e1/zi8dyq05uxaLFCsPbx56KFQgggMCYBMLA9aVZK7MfGNMqDkYgBgIMsGKwSfVS4rp3z580bUvyWknPqpee6RMBBBCIj4D1tGT6zoxPvdGqNJfu+LzkH4xWVVQzHgGXtkyakl882udePZJjYPnC5WZBZjw5WYMAAgiMUWDEZZ+/Lnn0x8/kSqwx0nF4lAUYYEV5d+qotoHTFx5myWCVpMV11DatIoAAAvERMF3U0pt9Y3wKjlalg2ekjvFAN0vi9rFobc1Yqxk28zObe/uvHOvCXDr1CUnnj3UdxyOAAALjFHB3+8cLjuv7ane3wnHGYBkCkRJggBWp7ajPYrxrUeNgvnC1ZDzgtj5PAbpGAIEYCJjpgube7FtjUGokS/zjCSc0tB2+a0DSYZEskKJGJWDmX27u7X/fqA5+3EG5ztTVcr10PGtZgwACCIxbwP0dLSv7vznu9SxEIEICDLAitBn1WspgZ0evu6frtX/6RgABBGIh4P6NlpX974xFrREtMveKRV0qhJdGtDzK2p+A2abGySPHjPXWwUfC5tKpeyQdur80fB0BBBAoscAeSW9vyWS/V+K4hEOg4gIMsCpOTsJHBPycExoG7951oaTXo4IAAgggEG0Bk32lOdP33mhXGe3qXLJcZ2qzudqiXSnVPYnASCC9YFYme8N4dDYtn39UgyXXj2ctaxBAAIESCOz0QK9ovTz73yWIRQgEqibAAKtq9PWdeHXXosZD8uHHTTpPEudhfZ8OdI8AAnEQMH2xpZc3Gk10qwaXp37optdMNA7rKytgsu/OyvSdbZKPJ/OWFe1nJkL7yXjWsgYBBBAokYB7GLyg9Yo1xZdm8UEglgIMDmK5bfEveiDd/lGTfSr+ndABAgggUB8CJv1LcyZb/KUDnwkIDHSlTrC8/jiBECytuID1NR/bd7RN4CHIA+nUZ006t+KlkxABBBB4rMDuMOnHt/X09wODQBwFGGDFcddiXvNgOlX8Bu6fXUrGvBXKRwABBOpGwGWfbs30faxuGi5jowOdqevM9dwypiB0CQXCUMvarsheNZGQuXT7TyQ7cyIxWIsAAgiUQsBdm/Khn3j4lf3FF4vwQSBWAgywYrVd8S62WwrOWd7+GgvsQrma4t0N1SOAAAJ1JmD6REtvtrvOui5Lu4OdHW9292+XJThBSyvg9t2WlX1vnmjQXDq1StILJhqH9QgggECJBAbCMPmctitu31yieIRBoCICDLAqwkySosDAK1KnWEE/+8vVVwlEEEAAAQTiJWDm/9Tc28+t3yXYtruXtbfmE9okGf8elsCzjCGGJyUTC6f3rN400Ry5dKpPUmqicViPAAIIlErA5HfkZc+encnuKFVM4iBQbgEGWOUWJv4+gYF0+0tN1itpMiQIIIAAAvETcNdHWldmPxu/yqNZ8eCK1AUe6i3RrI6qJHmo8DVtmbWXlEIjl07dK+mQUsQiBgIIIFA6Af999r6W575w1ap86WISCYHyCTDAKp8tkf8qMHDGopMtCC+TNBMUBBBAAIG4CviHWjL9X4hr9VGre/OKjgXJ0G+TNClqtVHPPoHbdw7ln7ng6vXDE/XY3LV4ejJfuIe3Lk9UkvUIIFAOAZf+p/++5pczxCqHLjFLLcAAq9SixHuMwEBnxxHm/jtJs6BBAAEEEIivgEvvb81k/y2+HUSr8nWnzZ80tSl5m0kLolUZ1bg0HEovnJ3J3lAKja2dHS8O3H9RiljEQAABBMoh4GYXFxIPvXVOz5Y95YhPTARKJcAAq1SSxHmCQK5r/gzlk8XnRvDAds4PBBBAIOYCJn9Pc6b/qzFvI1LlD6Tb32ayb0aqKIqRy37Qmuk7q1QUA+n2fzDZV0oVjzgIIIBAmQQ+2ZLJfrxMsQmLQEkEGGCVhJEgjxdY3bVo2qH58BcuPQcdBBBAAIEaEDB7Z0tv3zdqoJPItLC6a1Hj9Hy4QVJrZIqq80JMGgmSI4tm9tyxvlQUuc7U1+R6V6niEQcBBBAok0Aot/NaVvZ9vkzxCYvAhL83dkcAACAASURBVAUYYE2YkACPF/BuBbmbOy438+XoIIAAAgjUhoCb3tbam/1WbXQTnS4G0u0Xmuzs6FRU35WEsnPbMn2fK6XCYDr13y6dUsqYxEIAAQTKJDBknnjTrJWrLzHJy5SDsAiMW4AB1rjpWPhkAr50aXLw4Nx3ZVayS++RRgABBBCovoC5nd28su871a+ktioYSC9+nqnwGx7wXf19NWln2BTOa/3x2uID10v2yaU71kt+VMkCEggBBBAoo4BLQwr85NbL+/9YxjSERmBcAgywxsXGoqcSyKXbPyhZ8TeXnFucJggggEANCVio1zZfkf1RDbUUiVa6peCt6dSNkp4ViYLquQgPXtmycs2lpSTwrkWNg/lwM29iLqUqsRBAoAICuy2p5zT3ZItvy+WDQGQEGDJEZiviX8hgZ/ub3e1Chlfx30s6QAABBB4vELilZ63sW4lM6QUGl6de7SaGg6WnHUvE21sy2WPGsmA0x969rP2AkYRtNGn6aI7nGAQQQCAqAi6tVTLxktae1cWXcvFBIBICDLAisQ3xL2JLesHfJZS4TNKk+HdDBwgggAACjxdw16mtK7P/g0zpBe5+VXtrftiKV+kEpY9OxFEIuId6XWsZrjC8/zXHHDK0Z++dLjt4FHVwCAIIIBAtAdefvfDg81qvGtgdrcKopl4FGGDV686XsO+dy46etTORX+fSASUMSygEEEAAgQgJeCJ4futla66NUEk1VcrWdOrHgfSqmmoqNs34dS2Z/pPLUW6ua/4MyyfXu3RgOeITEwEEECi7gNua5uGR4+3q9cNlz0UCBPYjwACLU2RCApuXLZ7fkAj/4HJ+szghSRYjgAAC0RZw1zNbV2ZvinaV8a1u4PSFhykZbDGuZK74JrqFna29azPlSLxpWXtrQ2BrZZpajvjERAABBCoh4OYXt/T2v543E1ZCmxxPJ8AAi/Nj3AKbuxa2JfPBzyUdPe4gLEQAgVoVcJPucukwSdNqtcl66suVXNSaub2vnnquZK8u2WA6VXzj0/GVzFvvudy1ZvjgoRPmXbRxqBwWA6cvPtyShaykyeWIT0wEEECgUgIm+3Rzpu9jlcpHHgSeTIABFufFuATWnTZ/0rTJySvkOnVcAViEAAI1LWBSwS08sbl37R+3rOiYn1T4YoW2TFLKpNkuJWsaoAabc7O5rb19d9Vga5Fpaevy1LsD01cjU1DNF+KFMJF/fttld/y2XK1u61xwZMETfSY1lisHcRFAAIEKCbiZXjerN/tjrsSqkDhpniDAAIuTYswC3q1g2y2py1xazhsHx8zHAgTqRsDNLm7t7fv7RzdcHH5PndzQLPd/NVOnnIdWx+aESOZntvSsvzs29cawUF+6NDk4fXCbnDfWVWj77to5lG9fUMbnumxf0bGgEPoaMbSv0JaSBgEEyiywx4OG41svv614ZSkfBCouwACr4uTxT5hLt3/QZJ/hCor47yUdIFBmgb3DZnPn9vblnixP8TbkRD54WSB90qXmMtdC+AkK2LTGac0X37prgmFYvh+BXDr175LeCVTZBdwTemnrZeV9s+bWZe3tiYTdzvdMZd9PEiCAQOUE7h2RveDwTN/tlUtJJgQeFmCAxZkwJoFcur1LskvHtIiDEUCgbgVC+ZvbMv3ffToA716aHLwl9z6ZvV2ueXWLFe3Gw+Zjsw3WrTDaZca/us3LU0uTpl/Fv5Nod+Cu37auzD633FUOrFiYsjAo/pCXKHcu4iOAAAIVFPiTqfG05syt2yuYk1QIMMDiHBi9wGBX6hjP6w/iDUmjR+NIBOpdwHR5S2/2FaNhGDj9hClK7LzQzLokNYxmDcdURsDMH2ju7edtsxXg/uvD3DdIOqIC6eo2hYd6besV2R+VG2AgvaDDlCgOsIJy5yI+AgggUEkBk18zK9l/qvWoUMm85KpvAa7Aqu/9H3X3G5YubWo6ZLB4rzPfUI9ajQMRQEDSQ/cmg8MW96zZOxqN4jP2crcsaDdL9MqVGs0ajim/gLv6W1dm2Y/yU+/LkFvRfqZC+0mF0tVjmtXNxzYfZ92r8uVuPnfG4kWWKNzmPO+v3NTERwCBygsU3zj9k1nHZl/LFdqVx6/XjAyw6nXnx9D3XS8/5pBJjXt/6bLjxrCMQxFAAIF9Am729629fRePhWNz1+LpyZH8p/bdVsgnAgL+y5ZM/99GoJC6KGF716LmQj5cJ2laXTRc4SZd/rrWTP8PK5E2t2LRYoXhbTy2oxLa5EAAgSoIhK7gfa2ZNbxBtwr49ZiSAVY97voYet7whrlNkx+YdKHLXjeGZRyKAAII/J/AvkvMM/0vGc8rlwc6U6+R699NOgTS6gm42w9aV/adVb0K6itz8TbC3PLU/5jpxfXVeUW6HVIyf3il3qg5mO442uW3MsCqyN6SBAEEqiTgHqZbV65dWaX0pK0jAQZYdbTZ42l1ML3w067gI+NZyxoEEEBgn4Bp09bDps5/5gU3jYxHZGNnR8sk158lnzWe9awpgYD551p6+88tQSRCjFJgsKt9nuftzlEezmGjFAjl57Zl+j83ysMnfBi3EE6YkAAIIBAPgT2BFY6e1buOf7fisV+xrZIBVmy3rvyFb093vDMv/zeTGsufjQwIIFCrAibLJ0yHz+jty423x4GuxYdrpPBjM5003hisG7+ABcF7mi/n9oDxC45v5UA6dZNJx49vNaueRGB7PnnI3Dk9N+yplE7xIe6BErc5byGsFDl5EECgegIbHyj4ktSV/Q9VrwQy17oAA6xa3+Fx9jewPHWCPfwa7wPGGYJlCCCAwP8JhB52t61c+4mJkGxYPvfgSUHTJeY6dSJxWDt2gYL8zNmZ/p6xr2TFRARy6dT5f7mGcUL/3Uwkf62tddkPWjOVvRV267L29kTCbncpWWue9IMAAgg8QcD1xyENvWTeyo33o4NAOQQYYJVDNeYxBzo7jjD3teLKq5jvJOUjECmBHc3HZmeW4i01uXTqakkvjVR3NV5MaInntfWuvr7G24xce4Ppo2a6GrZIaohccfEraMTNFrT29t1VydI3r+hY0OC+2p09rKQ7uRBAoKoCX29OHvMe6+kpVLUKktekAAOsmtzW8Tfl3UuTg7cO3iDXM8cfhZUIIIDAEwU8mTiitWf1ponabO6aPTmRn/Ydk1490VisH5VAGCg8flZm7S2jOpqDSiow0Nn+fXPjAfoTVHXpx62Z7GsmGGbMy7ctP/qo0PJr+KXgmOlYgAAC8RUIJTu3JdP3hfi2QOVRFWCAFdWdqVJduXTqu5LeWKX0pEUAgRoWSITh82desfbaUrR4R9eRB03NT/qey88oRTxiPK1A3lVY0ppZ14dT5QW2pTteEsr/p/KZayyjhy9rWbm2ePVmRT+Dp7fP86QV/9uZVNHEJEMAAQSqK/BgXlo2J5P9dXXLIHutCTDAqrUdHWc/3q0gd2vqLYH0DXcF4wzDMgQQQOApBUzBe5ozpXsQ+OBZS6b6zpFfSv43sJdVYHivFRYdwZuFyor8VMG3dy2aVhgJt8p0YFUKqIGk7r75vobE/MU9a/ZWup0dnfNn7/WGfsmnVDo3+RBAAIEqCzzgZsdW+tbtKvdM+jILMMAqM3Bcwm9Zvui4hIW/5zkbcdkx6kQgjgL205ZM3+mlrNy7u4PcLZesNilVyrjEeozAnnwyXDCnZ+1WXKojMLBi4T9aGHyxOtnjn9VMr23uzf6oGp1s71rUXMiH6yRNq0Z+ciKAAALVFfCN+eT0RZV8+2t1+yV7uQUYYJVbOAbxB1YsTCkMrjdpegzKpUQEEIitgD/QnOk/xCQvZQubly2en0wUbpR0aCnjEuthAZN25qW5szPZHZhUR+Culx9zSGPj3g2SHVSdCmKc1bUr0RDMn9mzZrAaXTyYTh26W7rDJfauGhtATgQQiICAfbcl0/fmCBRCCTUgwACrBjZxIi0Ub8HRrr3/7a7nTiQOaxFAAIHRCOQDWzjn8r7i1Qgl/eQ6218ot2senrfwKaWASQ+E+amtrVfdtLuUcYk1eoF9t/nf3L7KzE4e/SqOLAqYdOWsTHZ5qQfno9W9t+vIg4byjRtMOmS0azgOAQQQqDEBl/m5Lb39n6+xvminCgJ8o18F9KikdMkGO9t75LYiKjVRBwII1LhA4K9subz/0nJ0mVueepdMX5KULEf8Oo65vbk322xW2ivn6thzXK0PpFOdJl0+rsV1ushMI6GGF7T2brirWgQPP6tv70ZJh1WrBvIigAAC1RfwPQVPnDR75Zqbq18LFcRZgAFWnHdvgrXnOlPvl6s4Ceeh7RO0ZDkCCIxOwKV/ac1kzxvd0WM/ajCd+pFLrx77SlY8tYDf0JLpPwmh6goUr8IavCV1h6S51a0kPtlNur45k31eNSv2c05oGLx712ZJs6pZB7kRQACBagu4tDdhhY5ZvBSm2lsR6/wMsGK9feMvfmB56hQz/ZzbbcZvyEoEEBiPgF3akul75XhWjmbN6q5F06YXwv+V69mjOZ5j9i/g8m+3Zvrfsv8jOaLcAoPp1L+59L5y56mZ+GbvbOnt+0a1+xlMp9a6tKDadZAfAQQQqLaAu/48WU0vOmTlzfdXuxbyx1OAAVY8921CVQ+cvjBlyeB68dD2CTmyGAEExi5gpuube8t7RcTAsv/H3p0HyFGW+QN/nuqeyamQhCRdPRNCkpnp6skFBnBZDgMsKChkqkMDiiAeP7x3FVwVvKKyivd6rsK6goIcQ7o6QYwKq1EERImQkKSrkwlXMl09CRCOJCQz3fX8bNAVIcn0Ud11fftf3vd5vs+nmmTyTndV4miK0O+YeFztCbHjFQJMH1EzJp6A54G3xuAS7Z8VhSp/f+M1ioAQPx2N8oxp/Rt3uY1l9Wm/IKbXu50D/SEAAQh4QYBJro8Z+Qu9kAUZ/CeAAyz/XbOGEsvixVFrknU3Ex/bUCFshgAEIFCfwKOqYc6qb2v1uwp92lKF6RbBV6SrRzvAylJEOXPGrRtXNVwIBRwRKOrJDULS60ixIBdh+raaMf/VCyNafdq3iekDXsiCDBCAAAS8ICCK/Ju6PP9ttx6w4QUDZKhPAAdY9bn5ctctaYqcWNZuIqFzfDkAQkMAAkEQGIlF54/j/v5yM4e5/5JFbfHtu3/OTP/SzD6hqC00S82alZtQ4+UBgUJKewsL3eCBKJ6OUBI6eUbWXO2FkIVU8kMsUnnABF4QgAAEIPCiwB6h8tFxY3MOIBCoRQAHWLVo+Xyt1addTEzX4AldPr+QiA8BnwuIYifjyzeZzR6j8vj6feX2tSQ0s9m9glq/8hS36QvMsbyM7KDO6Le5BpfMm6EopcrN3Nv8lr1leYV28p72GbFfrdvdsp4HaVQ8R3uTlOk2L2RBBghAAAJeEWCmwXI5elzHivWVB13gBYGqBHCAVRWT/xcVl/a+Vmz7D/6fBBNAAAJ+FxClfE58+eblrZjDSmkXk9AP8bTVurWfUA1zat27sdFxASHiYp92LzEeVHBAXI/dt+3xvq45bRwdcPzNgIIQgAAE/C7AtPypiPKWuf0bh/0+CvK3RgAHWK1xdrXLIxcfMXbM02M2MfMMV4OgOQQgAIEXBT6jGubnWoFR+ce+ldKuZ6G3tKJf8HrIFtXIdwVvLn9PVDivO8nDkY3+nqJp6Z8bHm6bOfP2h3Y2rUPthdnStb1E1F77VuyAAAQgEHiBr6qG+e+BnxIDOiKAAyxHGL1dxEppK0noLG+nRDoIQCA0AiI3q9n8+a2at5BKzlRINovgK1e1mgvRn+OGuajWfVjffIGCrplMlGh+J391qLxn1ej8Y5t9n71aVSxdGySieK37sB4CEIBA4AWYdkvZPiO+YtNdgZ8VAzYsgAOshgm9W2DZMlLevVa7lIi+TES41t69VEgGgbAJ/Flt8aFIYWnvW9m2ryWiSNiwG5lXhO6MZ83TGqmBvc0RsHTtO0T0/uZU93XVi//ypNPrvDZBUdceFKKFXsuFPBCAAAQ8IvCcMM+PZ3KPeSQPYnhUAIcaHr0wTsTadlbynyJR+T3+weaEJmpAAAIOCjwaW2jOaeWNwWXx4ujQpKE/CcmRDs4R+FIs9NNY1rwg8IP6cMDC0vmaYo+sFxzKvuTqyfaYkY958bHslp68k0hO9eFbDZEhAAEItETAJrp3z97Syd2rBva1pCGa+FIAB1i+vGyjh37kzN7YuLH2OhHCzXdH58IKCECghQJCNKjuLc3hFv+AsnVpYkHU5j/jUL/6i83CV8ayuU9VvwMrWylg6Yk7iRiHIn9Hv041zItbeQ2q7WX1JW4i5vOqXY91EIAABMIoIERfjxvmZWGcHTNXJ4ADrOqcfLeqoCeyTLzEd8ERGAIQCIPAUCSqdE3r37ir1cMWUsnvsch7W93Xr/3KZL+t09j0Y7/mD3puq0+7mJh+FPQ5q56PJa1m8rdWvb6FCwu69kUm+ngLW6IVBCAAAT8KDIso74xnN17vx/DI3HwBHGA137ilHV54vHZK+wwJfaaljdEMAhCAQPUCTw4Pt3W78ZSwQnru4VwqryeiV1UfN7wry0T/3GmY94ZXwNuTb0t1dUYk+ggRRb2dtAXpmHbvGleKd98w8GwLutXcopDquZBFwWFwzXLYAAEIhFDgiTK3H9WZWbcthLNj5FEEcIAVsLeI1XfkEcJ784xHNQfsymIcCARKYGeZqLvTMJ90Y6rBVPJdisg1bvT2W88Jr6LDXv1jd66T36zcymvp2o1E1LKnero156h9Wf5LzeTfN+o6lxYU0toiLtH9LrVHWwhAAAK+EmASa/re8qxW327CV0ghDYsDrABd+B3nJ+KlffwAEU0L0FgYBQIQCJ7As0wj3TFjy3Y3RnvsjfMntbePVJ5yg09hHeQCCNFO1TCnePGG2G68b7za00rP7aVSeW3IP4UlCsuJ0zP5u716ndaevmDCtAnDz+Gp0F69QsgFAQh4TUCYvhjPmFd4LRfyuCuAAyx3/R3rLstIGVqbuE6I3+pYURSCAAQg0ByBXfuYe47I5KzmlB+96ra+3nMjbFc+uaKMvjqkK4TuV7PmMSGd3jdjF85aNF5p271JhDp8E9r5oPtK0Uh8Rv+Gp5wv7VxFS09sIeLZzlVEJQhAAALBFWCiMot9zvTspmxwp8RktQrgAKtWMY+uL+i9/8pkf9Oj8RALAhCAwEsF9rRF7Z7D+jcNusli6dofiQgHNAe6CCw3q5k8vprm5pu0yt5WKvE9Eg7vwwmYlqsZ85wquVxbhgfsuEaPxhCAgE8FROjx3RNK8716f0Ofsvo6Ng6wfH35Xgz/8Nnzpo+LlDbj6zABuJgYAQLhEHi+zKWezsyAqzfntPREmohvCQd57VMKyX/Ejfwna9+JHa0WKJzVc5gSVSwJ583cRZhnxTO5yteCPf2ydO3Tf/kK4Wc9HRLhIAABCHhMQEge3BmNvHZu/8Zhj0VDHBcEcIDlArqTLbekZx8yvtR+HxElnKyLWhCAAASaKPB8O5d6prh8gFX56nVxbeK3RHxCE2f1bWkmeWfMyP+PbwcIWXBL135LRCeFbOzKuJtUw/TFz0CFVFJnkUwIrxFGhgAEINCIgM3Ml8Uyuf9spAj2BkMAB1g+vo63pClyYkn7MhFd6uMxEB0CEAifwF7bjvZ0rFi/1e3RB1OJsxXhFW7n8GR/5jepmdztnsyGUK8QsHTtI0T0lbDRMNGNMcN8ix/mfjzVc0ybKJWvLuMFAQhAAAK1CQgRnawaZuWXNXiFWAAHWD6++IN6z/kKKZWbEOMFAQhAwD8CTHvby9GeKR44wJJ0OmKVHnqUiTr9A9iapFKWY+Ir8/e3phu6NCrwZKqrc1iila/RherBBDbLko5MfmWjfq3YvyOVVEsihVb0Qg8IQAACgRMQGohNm9DLV68ZCdxsGKhqARxgVU3lrYVb0z0d0ZLyABFN9VYypIEABCAwqoAnvkL4t5RWqucYEuVeIoqMmjxEC9qidqfbN9oPEbcjoxZSCYOF+xwp5o8iTz4VVeJ+uS/Ki19b1p7GPUv98eZCSghAwIMCLz60I01ElU9k4RVCARxg+fCiV34AstZqv2Oi430YH5EhAAEI7CmN2D0zfubuUwj/dhk2n9E1ZuLY6FrcS/Af3pj7BqdOeNXR+C2nr/5vtVLJN5LIz3wVuoGwQnRd3DAvbqBEy7cW+rRbmWlpyxujIQQgAIEACDDTiG3b74xnN/0kAONghDoEcIBVB5qbWyqHV0PrtI+J0BfczIHeEIAABOoVEKHdbQp3T83krHprOL2vkOq5kEW57i9PCMPfiy8i3B0zTNzc3uk3WpPrDb153nR7b6nyFbVQfI2Qbfv82IpNNzeZ1dHyxVTyPBG5ydGiKAYBCEAgbAKKMk9dvnFD2MbGvPhB3XfvgWIq+U8icg/+keW7S4fAEIDA3wWe27tP6Zn1841Fr6AIERf1xAYiTnolk5s5RKGr4svNy93MgN71CQzq2gqF6Oz6dvtrlzAfEc/kKvf98s3rsTfOn9TePrKdiKK+CY2gEIAABLwmwLQutuD8o3jZMttr0ZCnuQL4TXNzfR2tvrPviEP30tg/EVOXo4VRDAIQgEBrBZ6haKlb7R/Y0dq2B+82qCc/ppBc5aVMbmUpiX3mjOymVW71R9/6BR7v65rTztG8BP+ebvfGDPN49tl9ULamO8dFSxMfIaLp9V9l7IQABCAAASG6Km7gl21heyfgAMtHV7ygJ65h4nf5KDKiQgACEHiFgBA9NX5cW9ehP31op5d4rHTXVC61bRKSQ72Uq/VZpBxlZYaXvuLZegP/dvzrpwk3E/Ec/05RRXKWtJrJ31rFSk8tqTz5tFh6qHLPvbmeCoYwEIAABPwmwLR7ZMQ++fDbNv3Jb9GRt34BHGDVb9fSndvO6T01UrbvwFcHW8qOZhCAQHMEdrSPL3VNuWHg2eaUr7+qtVT7NNn02forBGLnM2Nl7BGTsg9WnpaGlw8FrFTixyR8oQ+jVxt5l1KOdk1fuX6o2g1eWmfpiVuIuPIULbwgAAEIQKABAWYaVCKKNq1/464GymCrjwRwgOWDi7U1PXdytFTKEfE0H8RFRAhAAAKjCRR5YntX7Cfrdo+2sNX/vaB3J5kiG1vd12P9tklpQiJ+25o9HsuFOFUKDKaSr1FE1lS53H/LhB6PtSnd3L9x2H/hiayl2tvIpmv9mB2ZIQABCHhMQGym6zoy5ts9lgtxmiSAA6wmwTpV9v5LFrXFn9hzC4v0OVUTdSAAAQi4LLBt195SV/eqgX0u53hF+8rXe6zSQ39kotd4LVur8giRqUbnz+P+/nKreqKP8wJFPfGAEB/pfGUvVOTvq0buvV5IUk+Gbbo2JUJUeYgFbuReDyD2QAACEHiZALMsiWXyKwETfAEcYHn8Glsp7WIS+pHHYyIeBCAAgVoEHo4ZZpdXb768Na3NbyvRnyWs/7hk+bmayb+xlguKtd4TKOiJTzDxld5L1nAiKSly5Izl+XUNV3KxgNWnbSCmXhcjoDUEIACB4AiIbKV95UXqKm89ICg4wN6ZBAdY3rkWr0hSvHDONNnV9igRjfNwTESDAAQgUJMAs9wTy+SPr2lTixdbKW09SThvslwW+XRnNv/5FpOjncMChbS2iEt0v8NlvVDuUdUwZ3khSCMZrJR2HQld1EgN7IUABCAAgZcICP9czebwC7iAvylwgOXhC2zp2q+J6GQPR0Q0CEAAAjULMNFNMcN8c80bW7ihqCc/ISRB/PTKqIoK8enTjVzloSF4+VjgxafdrVtPxJqPx9hPdO5Xjdy5fp+pmNI+KELf8vscyA8BCEDAKwLMNGITXRzPmD/1SibkcF4AB1jOmzZcsfIIbEvv+RCT8jU8dbBhThSAAAQ8JiBCX4xnzSs8Fusf4rz48Ixy5ROwr/JyTuezSTlapklTV+afc742KrZaYFtKuzgStNsQ2Px+dUXue622dLrfNl07LkJ0j9N1UQ8CEIBAmAWEaJ8SlWSsP/9ImB2CPDsOsDx4dbeenVjQFuHK/VciHoyHSBCAAAQaEiiT/bZOY9OPGyrSgs2FVOLHLHxhC1p5p4XQI2rWnO2dQEjSiMDgknkzFKWUD9CtCERpj3ZPv3n9lkZcvLB3Q7q3fXKp/DQR4zYRXrggyAABCARGQITv3NnGb5zr0yfVBuZCNGkQHGA1CbbespLubbdG7HXMlKi3BvZBAAIQ8LQA28eqmU1/8nRGIhpcop2lKBSqJ9oI053xjHma168N8lUnIIsXR4uTigNENLO6Hd5exURrpxvmUV59AEStetaS5I2kyPm17sN6CEAAAhAYVeDfVcP86qirsMB3AjjA8tglK6SSn2eRT3osFuJAAAIQcEpAomU5xA9fUdue7p1YLtmPEdFkp4b3fh3+vmrk3uv9nEhYrUCQ7rXEQlfEsuYXq53d6+uGUkndFsl4PSfyQQACEPCbgBA9VY5GXjujf0Pllzh4BUgAB1geupjW0t65VLbvI6YJHoqFKBCAAAScExB6Vs2ahzhXsLmVBvXkxxSSq5rbxTvVReRD8Wz+m95JhCSNClQ+2T1UsncI0asbreX2fiH7xLix6fdu53Cq/w5d6ykzrRehNqdqog4EIAABCPyfwJ8GH59w/NFr1ozAJDgCOMDyyLWs3AthUsl+iIl6PBIJMSAAAQg4LsBEm2OG6Zs/555cMm/GcLDuIXTQa2oTn96BJxA6/r53u2AhlbyDRf7F7RyN9h8pS8fhK/OFRut4Zf8Ln/Is20US/OLSK9cEOSAAgWAJ2Aq9pWO5eWOwpgr3NDjA8sj1L/RplzNT5ZHtikciIQYEIACBJgjIXaqRP6kJhZtS8v5LFrV17NhtElEobmwetAOCprwpfFi0oCc/zCRf92H0v0dmeTi2IN/Ny8j29RwvC2/1aSuJ6awgzYRZIAABCHhIYJ9Q+ai4sTnnoUyIkAF4+gAAIABJREFU0oAADrAawHNq62Aq+RpF5H4iwvVwChV1IAABjwpwv2rkzvVouP3GsvTk+4nkO37KXE9WIRqMG2ZnPXuxx9sCO85OxEsRrjxSvN3bSQ+cToguixumvw/h9jNe4ZyeE7ms/M6v1wW5IQABCHhdQEhW5XeqZ5+8enXJ61mRb3QBHJiMbtTUFZvP6BozYWzkDiY+samNUBwCEICABwSE6Ftxw/w3D0SpOoKk05Fiad2TROybe3dVPdxLForQjfGs+ZZ69mKP9wUsXfsZEb3R+0lfmZCJSmNk79RJ2Uef9mP+0TIXU9p2EZo62jr8dwhAAAIQqE/AZvrXjoz57fp2Y5eXBHCA5fLVsFLaMhL6jMsx0B4CEIBASwRsoQ92ZE3ffZrJ0pM/J5IzWoLkUhNhek88Y/7ApfZo22QBq6/3XGL75ia3aVb5x+6KmnPO7adysxq4WddKab8lId98tdpNK/SGAAQgUKfAk3sPiXXOunb13jr3Y5tHBHCA5eKF2Jru6YiWlHXhekS7i+BoDQEIuC5g2+XTOlZsvtP1IDUGKKS0d7PQ92vc5qflokTohOm3mvf4KTSyVi/wWKp7drtEtlS/w1MrfxszzJOZSDyVyqEwhb7E55n5kw6VQxkIQAACENiPgBDdvXtv6dTuVQP7AORfARxguXTttqaPGxcp7byXiRa6FAFtIQABCLRcoBS1O2f0bxpseeMGG27TtSkRoseJaHyDpby63S6VI4kZKzcMeDUgcjUmIEQ8pCceFOIFjVVyYzd/XDVyX3Kjcyt6Duk9C21SHmxFL/SAAAQgEGIBuyzy5s5s/pYQG/h+dBxguXQJLb3nIibl2soPlC5FQFsIQAACrRZ4RjXMQ1vd1Kl+lp68mUh8dQP6GmYvtY8vTZlyw8CzNezBUp8JDC1N9tm2GD6LLaVopGdGf7APVy1dyxNRj8+uDeJCAAIQ8JmAlG27bVbHivVbfRYccf8qgMMTF94KxbQ2X0p0HxGNc6E9WkIAAhBwSUB+oxr5U1xq3nDbgq6lmGh5w4U8WICJN8SM3HwK6Fe0PEjuSqTt6d6J5ZJd+SThJFcC1NGUmQdimVx3HVt9taWga//BRFf4KjTCQgACEPClAN+iGrnzfBkdofHpHzfeA5ae+DkRB/pmwG64oicEIOBxAZYvq5n8xzye8oDxiunELCnxw37Nf9DcLJ9WM/nPB3I2DPV/ArekKXJCSbuPiRb5hYVJro8Z+Qv9krfenIN68jSF5Ff17sc+CEAAAhCoWkCI6R1qxry26h1Y6BkBfAKrxZei0Kddwkx4ylOL3dEOAhDwgIAo56nZjb6970DlK99FPbGBiJMe0HQygpRpWOs0Ht7kZFHU8qaAldIuI6GvejPdflIJfVD14ZNLa/V97C3zJ7U/PzJERG217sV6CEAAAhCoTUBItlJpoha/bc2e2nZitdsCOMBq4RW4/5JFbR07dlc+uh9rYVu0ggAEIOAJAWY+LpbJ/cETYeoMYaUS55Bwf53bPblNSJ6OG3nffKXMk4g+ClU4a9F4ju5+2i8HJTbLCR2Z/N0+Iq47qqX33EiknF93AWyEAAQgAIGqBWzhWzqy+Cph1WAeWYgDrBZdCFlGSnGtVvlHT6pFLdEGAhCAgLcEhGapWfNRb4WqLU3xwgUTZNe+QSI+pLadnl69QTXMeZ5OiHCOChR07VdMdJqjRZtSTMrRMk2aujL/XFPKe6zo1r6eY6Os3EtEiseiIQ4EIACBQAqE6ZckQbmAOMBq0ZUs9vWeKmzf2aJ2aAMBCEDAUwJCNLx7b+nV3asG9nkqWI1hJE2RoVLifiE+ssatXl7+C9UwcV9GL18hh7MVdO1SJvqaw2WbUe7XqmGe2ozCXqy5JT37kPGl9s1ENNWL+ZAJAhCAQNAEROgB5VXtJ8Z+sm530GYL6jw4wGrBlX1k8RFjx04a+wARaS1ohxYQgAAEPCcgRHfEDfN0zwWrI5ClJ79MJP9ex1avbvmMapif82o45HJewEp39VIpup7I2w/zEab3xDNmaO4bWrnP3pCu/VqIFjt/1VERAhCAAAT2J6AILZueNT8LHX8I4ACrBdepmNK+IEKXt6AVWkAAAhDwpIBw+d3xzOarPRmuxlCFpT0a20quxm2eXW5H6PiOW817PBsQwRwXePGgJPlnIfHsJwmZqCR2ZKG6YsNGxwE8XNBakjyTFLndwxERDQIQgECgBJjomRLRnE7DfDJQgwV0GBxgNfnCFlLJmSxS+fQVbpDbZGuUhwAEPCtgR/n5zqmZxyzPJqwxWEHX8kzUU+M2Ly5/LjZ1whS+es2IF8MhU/MErFTyfSTy3eZ1aLjycxQtzVH7B3Y0XMlHBSr3TLXWao8zUYePYiMqBCAAAV8LCMldO6ORf5nbv3HY14OEIDwOsJp4kSXd214sl+8m4aOb2AalIQABCHhaQIieUKNKBwfoh4JCSvsBC13iafjqwv1GNcxTqluKVUESsJbM7WWlvFaIoh6d6zFzZ6zr5NWrSx7N17RYBV27nokuaFoDFIYABCAAgZcLlCminKXeunEVaLwtgAOsJl6fQp92OjP9wuv3mGgiAUpDAAIQqAg8dFfUPOrcfioHhaPYp71ZmH7q93lY6IuxrHmF3+dA/toFtqd7J5bLdpGEJtS+uyU7vqsa5gda0sljTbalEudEhCtPrsYLAhCAAARaJiBlipbVsH3yt2W8DjXCAZZDkC8vU0jPPZxL5XVEFKRHrTdJC2UhAIFgC8gtqpE/L0gzbk33dERLyja/z8Q2nx9bkbvZ73Mgf30CRV27UYjOr293c3dFIvZJ027ddFdzu3izuqQ7x1kjEweZcfsJb14hpIIABIIqwETfihnmvwV1viDMhQOsJl3Fgq59n4ne3aTyKAsBCEDARwL2xaqx6TofBa4qqqUn/kjEx1S12KuLFGWeunzjBq/GQ67mClh9vccS2/c1t0td1XfFovMP5f7+wHxqs1YFqy/xJWL+aK37sB4CEIAABBoSGCkRnTbDMH/bUBVsbpoADrCaQGvp2uuI6Df46mATcFESAhDwm4D9fHlffPbKR4b8Fny0vIVU4kMs/I3R1nn2vzPtHnxswqSj1+AG7p69Ri0IZula5Sbph7WgVdUthGht3DA9+4TEqgdpYKGVmnsMSfmPDZTAVghAAAIQqEOg8neQmjGPYiapYzu2NFkAB1hNAC7o2oNMtLAJpVESAhCAgL8EhPJq1tT8Fbq6tNv0noURUtYQUaS6Hd5aJcLXx7O5C72VCmlaLVDQtd8z0fGt7nuwfkKUiRvmUi9lanWWwlmLxnN017NE7Ms/X1rthX4QgAAEHBQQVpQPxZZv/JaDNVHKIQEcYDkE+bcyBT35YSb5Gj595TAsykEAAr4UEKIb4ob5Vl+GHyW0le6aSqXoo0Q03pfziXKmmsXTdnx57RwMbela5WeWSx0s2XApJro8ZphXNVzI5wWsVPJTJPI5n4+B+BCAAAT8KLBPSpGe+G0bHvdj+CBnxgGWg1f3kT7tiHFMA+LT38Y7SIFSEIAABF4QEOJL40bOv1+zO8h1FCIu6lqOiBJ+u9xCtNfmUndnZsD3N6L3m73X8g7pydNskl95KZfNckJHJn+3lzK5kWVDurd9csl+gohe5UZ/9IQABCAQZgFhulrNmO/hyo+zeHlGAAdYDl2KF/4hs1T7Edn0NodKogwEIAAB/wsInaxmzdX+H2T/E1gp7TIS+qoP59v+TFm6tJX553yYHZEdFJDFi6PFScVdRDTGwbKNlBoenDph4tFX495sFcSirv1ePPYVz0YuLvZCAAIQ8JUAyylqJl+5tzVeHhHAAZZDF2JbKvnGiMhKIlIcKokyEIAABHwuIPae6MTJc/rXPOPzQQ4Yf2ffkYfu5eef8N19aoTui2XN4/BbxaC+M2uby9KTdxLJqbXtatrq1aphnty06j4rPJhKvFMR/m+fxUZcCEAAAgERkLtUI39SQIYJxBg4wHLgMsoyUqwHtfuY6WgHyqEEBCAAgUAI/OVTA3fEDfP0QAxzkCEsPTlAJHN8NafQB9Ws+R1fZUbYpgkU+hKfZObPN61BbYU/pxrmZ2rbEtzVcvERY4vPjK3ca296cKfEZBCAAAQ8LMD8fjWT+56HE4YqGg6wHLjcVirxURL+kgOlUAICEIBAgAT4baqR+3GABtrvKFaf9gtier1f5mSi0kg0Mn1G/4an/JIZOZsrYKWSbySRnzW3S3XVmaQvZuRXVLc6HKuKqeQ3RORD4ZgWU0IAAhDwnEBxTHRYm9z/cGC/UeA58YMEwgFWg1fryTO6Xj08NrqFiA5rsBS2QwACEAiMABONlMsyv2NlPh+YoQ4wSFFPXikkn/DLnEKSixv5Xr/kRc7mC2xfmuwu27Kp+Z1G71CW8lGd2c0Pjr4yPCuGUonjbeHfh2diTAoBCEDAWwJC/P24kXuvt1KFMw0OsBq87pae/CGRvKPBMtgOAQhAIGgCz46JDh8eht9WWX3aYmLyzw0+mW9WM7nzg/aGwzz1C9x/yaK2jh27K5/Im1h/FWd2Dg+3TZ55+0M7nakWjCp/vdH+A0Q0LxgTYQoIQAACvhMQEvuf1OymP/ouecAC4wCrgQs6pGvH2UT3NFACWyEAAQgEVeAPqmEeF9ThXjqXnNE1pjgm+iQxTfDDvELyb3Ej/y0/ZEXG1glYeuJmIj63dR3300loQM2a3a5m8GjzQiqps8hyIsLP7h69RogFAQgEW0CIfqVG55/J/f3lYE/q7enwl2Cd1+eWNEVOGNF+wUz/UmcJbIMABCAQYIFw3P/qbxew0Kfd4Ze/D0aI5x9u5NYH+M2H0eoQsFJzzyEp99ex1bktzF9WM7mPOVcwOJWe1bUpe4gHhOTQ4EyFSSAAAQj4TUB5h2ps/JHfUgcpLw6w6ryag6nkuxSRq/GbsDoBsQ0CEAisgBDt27dz76GzVj+6N7BDvmywQirxSRbPPMXtgOzM9Mj0BWYXLyM7LNcGc1Yn8GSqq3OEog+LUFt1O5qwKmq/Vu3H1zP2JytEXFiS+Imi8AVNkEdJCEAAAhCoTuBh1TD99eTp6ubyzSocYNVxqWTZMqW49qYcEfXUsR1bIAABCARdYJ1qmAuDPuRL5/PSU9wO5i5E34gb5qVhujaYtTqBnX1HHvo8793CRJOr2+H4qj3t40vqlBsGnnW8ckAK7kgl1ZLQAJGMD8hIGAMCEICA7wSE5T/VTP5SJhLfhQ9AYBxg1XgRK78Bs1KJz7Lwp2rciuUQgAAEwiHA/GM1k3tbOIZ9ccrC0h6NbaXyiw1PvyIkZ0wz8r/wdEiEc0VA0r3txbJtktAsVwIQb917yPM9s64Nzyc363Eu6NoqJnpDPXuxBwIQgAAEHBF4fpjL82ZmNj/sSDUUqUkAB1g1cRENLpk3Q1FKlcfCj6txK5ZDAAIQCIdAWTlXXbnR3XvptFhaLlnUVtyxu/KVSaXFrWtqx1GZHevPP1LTJiwOjUCxL3GnMJ/qxsBCtFZdaL4GX289uH4xlTxPRG5y4xqhJwQgAAEI/J/ATaphvhkerRfAAVaN5pau/Q8Rvb3GbVgOAQhAICwCz0eiyrRp/Rt3hWXgv81Z0BOrmNjLn4woxqJmJ/cTnp4TtjdnlfNaqcRHSfhLVS53eBn/j2rk3ulw0cCV23xG15hXjYmuF6auwA2HgSAAAQj4R0BY7NNi2U3/65/IwUiKA6warmNhSc+JrCi/q2ELlkIAAhAIm8BK1TCXhG3oyrzFVM+7RJRrvDp7WfhTndnclV7Nh1zuC1ipnmNIlD+6kUQU5cL48o3Xu9Hbbz0LeuI9TPxffsuNvBCAAAQCJrA6Zpin4F5Yrb2qOMCq0vvFe19pq1jo9VVuwTIIQAACoROwRd7Vkc3/MHSDE9GTqQWdIzL8qBBFvDY/E5XssRPU+I1rnvBaNuTxjoDICz/r7GGisS1OJfaYkZkdN23Z2uK+vmy3LdXVGZHIo0TsuT9rfAmK0BCAAATqF7hYNczr6t+OnbUK4ACrSrFBPXm+wnIDibfvb1LlOFgGAQhAoCkCZSkf1Znd/GBTinu86CN9Rxw6lsduIfee4nZgIaZHzKdiPSevXl3yOCPiuSxg6doGIuptZQwmHooZuVgre/q916CufUcher/f50B+CEAAAv4W4C3mzukafr5q3VXEAVYV1rJ4cdQ6tLiemRJVLMcSCEAAAqEUYJJnnttbnt69amBfGAFeeIpbya48iXC2B+e/XTXMswiPfPbgpfFWpGJKWylClfdKy15CclfcyJ/UsoYBaLRN16ZEiCoPZHhVAMbBCBCAAAT8KiBE9FHVML/q1wH8lhsHWFVcMUvvuYhIuZaI4FWFF5ZAAAKhFfi6apiXhXZ6IrJ07ddEdLLXDJSI8tbpt268wWu5kMd7Alaf9i1i+mArkwnJf8eN/P9rZU+/95JlpAyt1VYJ0el+nwX5IQABCPhaQEikHDkiftuGx309h0/C40BmlAtV1OdME2ob8sn1REwIQAACrggwk00j0hW7LV/5REBoXwU98Qkm9tqN0vc9FVVePbd/43BoLwwGr1qg2Kd9UJi+VfUGBxYK2ZfFjU1fd6BUqEo8cV53cmQ4UvnKJ36eD9WVx7AQgIDXBIToqrhhXu61XEHMg7/wRrmqQ6nEp2zhzwXx4mMmCEAAAk4JMJFFu9u7Y79at9upmn6sU0wl/0lE7vVUdqZfqhnzDZ7KhDCeFSjoiTcw8apWBiyJfeaM7KaW9mzlfM3sVdS1FUJ0djN7oDYEIAABCBxcQIj2lcty7IyV+XWwaq4ADrAO4rs1PacrOtL2IDFNaO5lQHUIQAACfhfg/40ZudPC/ihhuWRRW3HH7meIaJx3rih/VDVyX/FOHiTxskAxnZglJX64lRmF+Yh4JvdYK3sGpZe1NHkm2XJ7UObBHBCAAAT8K8D9qpE717/5/ZEcB1gHuU5WKvFjEr7QH5cSKSEAAQi4J1AmObfTyPe7l8A7nQu6tp6J5nolkUTp6Hi/ucYreZDD2wJCpBT1xC4ibtUh7M6YYU4J++F3ve8KIeIhPfGAEC+stwb2QQACEICAIwIlUpQj1eUbK1/txqtJAjjAOgDsgL5g2gQartyIbUyT7FEWAhCAQCAERGjn79vMqef2UzkQAzU4RCGVMFi4r8EyjmxnosHvLzQPX7aMbEcKokgoBCxdu4eIjmvFsDbZP+swNrX0qYetmKuVPQpnd5/Ekchq3AurleroBQEIQOCVAkJiFqZOXHD01WtG4NMcARxg7cf1N4sXRxOTincy0euaw46qEIAABAIlkFENc2mgJmpgGEtPXkUkH2ughINb+eOqkfuSgwVRKgQCVirxXRJ+XytGZaYrYhnzi63oFdQexQsXTJDdwwMkFAvqjJgLAhCAgE8EShEunzots/l3Psnru5g4wNrPJSsu0eaLQn/Cp698935GYAhAwA0Bkfep2fx/udHaiz0tPXkRkVzngWylNiovOMzYnPNAFkTwkUAx1fMuEeWaVkS2iU/vMHJ3tKJXkHtsSyXOiQjfgk9hBfkqYzYIQMAfArxl++62hQtD/mCjZl0rHGC9TFaWkTK0Vvu9tOij8826sKgLAQhAoEUCQkKz1az5aIv6eb7N1iXdr40qkT+4HVSIn969d2Rm96qBZ93Ogv7+ErB0rfIJ9MpX0pr9KjPxkTEjt77ZjcJQ39KTG4kkGYZZMSMEIAABLwsozBdNz+R+4uWMfs2GA6yXXTmrr/cMYvvnfr2gyA0BCECglQJCdHfcME9oZU+v93qk78hDx/LenW7nFKEb41nzLW7nQH//CRT15DwheagFyYdLUXv2jP5Ngy3oFfgWxZT2QRH6VuAHxYAQgAAEPC7ATAPTI/M17u/H/WEdvlY4wHoJaOVJLkVdq/zG8SSHnVEOAhCAQFAFLlYN0wtfl/OUr6VrlU+kzXQxlG1H23s7+tflXcyA1j4V2Jbq6oxIdGsL4j8vpQmHxW9bs6cFvQLfYvMZXWMmjo3+mYh6Az8sBoQABCDgcQERuiKexT0enb5MOMB6iai1NHEu2Xyz08ioBwEIQCCgAuUoUe9Uw9wU0PnqHquQStzKwm7e2N5UDRNfJar7CoZ74ws3Bd81vKsFChtVw5zbgj6haVHQExcw8fWhGRiDQgACEPCuwKPmzlj3yatXl7wb0X/JcID10gMsXVtHRPP9dxmRGAIQgIALAkLPxp6OTWH8xfwK/OJS7eNik3tPVmO6Vs2Yb3fhXYGWAREo6ImdTHxoM8cRm74RX2Fe2sweYastZ3SNGRobKUqTr13YXDEvBCAAgXoEhOkT8Yz5hXr2Ys/+BXCA9VeXytNbosI3CVEEbxYIQAACEBhdQIQ/FM/mvjn6yvCtKOiJNzDxKrcmt20+rWNF7k63+qOv/wUKfcmfM8sZzZxEFHpDfLn5y2b2CGPt4jm9p1LZ/iV+pg3j1cfMEICAxwT2Rcsye+rKfMFjuXwbBwdYRPT0W+ZPev75kceJaKJvrySCQwACEGitwK5de0uHda8a2Nfatv7oNri09yjFtte480h72RqLLpiFG4f6473i1ZSFvuQnmeXzTcxX5t3th8TwmHHHiR+5+IixY58Z+wARaY4XR0EIQAACEKhJgFm5IpbZ6N6n8mtK6/3FOMAioiE9eZFNgpsQe//9ioQQgIBXBJjuUzPmP3kljtdyFNJzD+dy+RESUlqfjb+kGrmPt74vOgZJYNs5PadGykoTP8XHQ6qRiwXJzEuzFFI9ukLKreLKn0FekkAWCEAAAu4KMFEpUh43c+rKB/ApLAcuRegPsJ5KLzpkX2n3Y0R0iAOeKAEBCEAgHAJCy9Ss+dlwDFv7lDvOTryqFOGniVp/gCW2fVJ8xaa7ak+NHRD4u8DaCxdMmLZr+LkmforwIdUwF8C8OQIvPlk7+TsiOaE5HVAVAhCAAASqFRCSb8aN/IeqXY91BxYI/QGWlUp8ioQ/hzcJBCAAAQhUKyBliUZnx/s3VL56jdd+BF74x2NKe4KEJrcSiEmetksTO+K3rdnTyr7oFUwBS9eeJaJXNWc6+bVq5E9tTm1UrQgMLtHOUhRaCQ0IQAACEHBXQIR2clspofYP7HA3if+7h/oASy4+Yqz1zFiTiWb6/1JiAghAAAItE/iNapintKybTxtZfYnbifnMVsZnhS6PLTevamVP9AquQEFPPM7EM5o04XWqYV7cpNoo+1eBop7ICvESgEAAAhCAgLsCIvwTNZt7GxOJu0n83T3UB1iFvsTnmfmT/r6ESA8BCECgxQI2v19dkftei7v6rl1B1z7ORK28aefzpWikc0b/hqd8h4XAnhSwdG0dEc1vRjghuixumF9vRm3U/LtAUU/OE5LKdQz1z/x4T0AAAhBwW4CJnhk73Dbr0Nsf2ul2Fj/3D+1fZpX7k5QjnBci1c8XENkhAAEItFpghHj+4UZufav7+q1fQZ97AlO5hfei4lxs5/QFvHp1yW9WyOtNAUtP3tWseyjZzKd1ZHJNvEm8N01bnUqWkWKt037CQm9pdW/0gwAEIACBfxQQomvihnkJXOoXCO0BltWXfC+xfBe/kar/zYOdEIBA+AREaL16pLmQl5Edvulrm3hr+rhxbaWdzwlRpLad9a6Wj6pG/iv17sY+CLxcoKAns0zSlK+fKeVobPrK9UNQb75A5c+iaGnno0Q0rfnd0AECEIAABA4iIG2K3XvY8k0mlOoTCOUBVuGsnsM4qlhEFK2PDbsgAAEIhFJAiOQ81cj3h3L6Ooa2dO1JohbcyF3o2V37StO6Vw3sqyMmtkBgvwIFPfl1Jvmw8zyyQzXyOExxHvaAFYf0xFds4o+0sCVaQQACEIDAfgSY6Bsxw7wUOPUJhPIAy1qqfYBs+nZ9ZNgFAQhAILQCzzK1d8eMddtDK1Dj4JaeGCDiOTVuq3m5EN0YN0x8RahmOWw4mIC1JPk+Ul74tLqjLxG+K57NneRoURQ7qMCGdG/75BF7MzEdDioIQAACEHBPgIlGRKhHzZqVT8biVaNA6A6wtqd7J5bKtslCHTVaYTkEIACBcAsIPRBrM4/hfiqHG6L66Qu6dj8TLap+R30rhWhp3DAz9e3GLgjsX2DoHO10u0y/dNpHmK6OZ8x3O10X9Q4uMKgn3q4Q/w+cIAABCEDAZQGma9WM+XaXU/iyfegOsAp68hNMcqUvrxZCQwACEHBRQGy6IL7C/KmLEXzX2tK1/yWiU5obXLbHDtk3k699dG9z+6B62ASGUvNn2zKyxfG5RfmImt34NcfrouBBBR65+IixY58Zez8RzQUVBCAAAQi4KvDknujwnDn9Dz/jagofNg/VAdayvzyJ5d1rtc1ENNuH1wqRIQABCLgp8IRqmFPdDODH3gU9cT0TX9DM7KLQ5fHl5lXN7IHa4RSQZcuU4tobh4nY4QcRyLm4l54776mCPi+pcGmtCLW5kwBdIQABCEDgrwI/jhnmxUwkEKleIFQHWAU9+WEmqfzGL1RzV/92wEoIQAACBxBgulXNmGn41CZg9Wmf+cvfOMtq21X9aiYq24o9L46n2VSPhpU1CVh68nEimVHTplEWi62cFF+x8S4na6JWdQKSTkeGSg+tEqLTqtuBVRCAAAQg0CSB58tc6unMDGxrUv1Alg3NQc42XZsSJdkixIcE8kpiKAhAAAJNFMDXB+vDLeiJC5j4+vp2V7VrfWxn7ChevbpU1WosgkCNApau3UtE/1TjtoMuj0Qj3dP6Nww4WRO1qhfYnu6NlUv2hpY8IbX6WFgJAQhAIHwCIp9Xs/lPh2/w+icOzQGWpScvIpLr6qfCTghAAAKhFdj1VFRR5/Zv3BVagToHt9I9x1JJua/O7aNts22Wkzoy+btHW4j/DoF6BQop7VYWWlrv/v3sk6eiyqvx54mDonWUKuja15gIj3Gvww5bIAAVvb+pAAAgAElEQVQBCDgnIGXbLs3qWLFlq3M1g10pFAdYW9Od46KliUUienWwLyemgwAEINAEAabvqBnzg02oHPiSW18/d3J0fPnJJg2aVw1Ta1JtlIXACwJFXfumEP2rUxxCsjVu5A93qh7q1CdQOGvReI7ufpyIptRXAbsgAAEIQMARAXwKqybGUBxgWX2J9xLz92qSwWIIQAACEHhBQJhfF8/kfgeO+gSKemKnEB9a3+4D77Jt+UrHivxHna6LehB4qUAhpV3OQl9wUOVW1cD99Bz0rLsUvp1QNx02QgACEHBSoCilCXPit63Z42TRoNYK/AGW/OXJg9baxJ+ZeGFQLyLmggAEINA0Aaa9eyLDMTzmt37hgq6tZ8cfWy/Pl7mMG3/Wf1mws0qBYir5LhG5psrloy9j+ZiayX959IVY0WyB7eneieWS/RARHdHsXqgPAQhAAAIHFhDmK+OZ3KdgNLpA4A+wCn2JtzLzT0anwAoIQAACEHiFgNDX1Kz5EcjUL1BIJe9gkX+pv8J+d16nGubFDtdEOQi8QqCwJKmzIhmnaMosp3Rm8r9xqh7qNCaw4zytpzxM64WorbFK2A0BCEAAAvUKiNDjapvSzf0bh+utEZZ9gT7AksWLo8VJxT8T0fywXFDMCQEIQMAxAaa9e+296qzso087VjOEhQq6dj0TXeDo6CynqDgEcJQUxfYvUDin90Qu2458hZiJSm12dPaUFetxs1qPvOGEiIt64k4iPsUjkRADAhCAQBgFREQuimfzzXxydSBcA32AZfX1HktsV57OFA3E1cIQEIAABFor8FBsoXkkLyO7tW2D1c1KaV8locucmkqINqhTJxzFV68Zcaom6kDgQALWkrm9pJQ3OCT0HEVLc9T+gR0O1UMZBwS2L012l22p/MJ3ogPlUAICEIAABOoQYJKnn5dxs2ZlH8Qvjg/iF9gDrA3p3vZJJfshJuqp4/2DLRCAAAQggKeiOPIesHSt8hXMrzhSjMi2id/QYeTucKgeykDgoAJFfc40obYhh5i2t48vdU+5YeBZh+qhjEMCBV37Jjv4tEmHYqEMBCAAgVAJRFjS0zL5W0M1dI3DBvYAa7vec0KZlLtq9MByCEAAAhCoCDDZw/vaDpt5+0M7AdKYgJXSLiahHzVW5cXdzFRUIkr3tP6Nu5yohxoQGE3gljRFTixplU/7OfEz42O79pYS3asG9o3WF/+9tQLb072xcskeJCKltZ3RDQIQgAAE/ibATOtiGRMPnzvIW8KJH0Y8+Y6z+pI3E8u5ngyHUBCAAAQ8LiBEt8cN800ej+mLeIN6YolCnHUkLNNn1Yy5zJFaKAKBKgUKuvYoE82scvkBlzHThukZcz4TSaO1sN95AatP+wAxfdv5yqgIAQhAAALVCghzKp7JGdWuD9u6QB5gbV06b0HULj2A3yKF7e2MeSEAAacEWPhdsWzuh07VC3MdBz8RXIjtLc1mfHolzG8nV2Yv9Gl3MFPDT9JUSG6dbuTTrgyBpqMKbE3PnRwtlfNEdNioi7EAAhCAAASaIsBEv4oZ5uubUjwARQN5gGXp2rVE9LYAXB+MAAEIQMANgVK0LDOnrswX3GgetJ7W0t65ZNvrHZjr66phOnYzeAfyoERIBAp68r+Y5D2Njisin4pn81c2Wgf7mycweE7yfKUsN+CXwM0zRmUIQAACBxeQMgl3qVnzUUi9UiBwB1hyyaK2oR17tgvJobjgEIAABCBQu4AQ3RA3zLfWvhM79iew4/xEvLSPK/eWaeAldmlk7OEzfra2wToNRMDW0ApYeu9HiOyGH0RgK3R2x3LzttBC+mBwIeKinvwDkRzrg7iICAEIQCCQAsJ0z9ULzBOX4Ungr7i+gTvAsnTtO0T0/kC+kzEUBCAAgeYLlEt2+fgZKzbf1/xW4eiwPd07sVyyn2toWqavqRmz8jRDvCDQcoHCUm0p29TwU5Ha7ejhU1as39ryAdCwJgGrr+cMYuXnNW3CYghAAAIQcFJgT7sd1fB35itJA3WAVfnufqRU2sLE+PSVk//7oBYEIBAmgaf2RIdnz+l/+JkwDd3MWSufaBhKaftEqK3uPnZkrrpiw8a692MjBBoQKPRpi5jp/gZKEJE8HzPyE3AD98YUW7W7kEoYLNzXqn7oAwEIQAACLxPALy/3+5YI1AHWUKpHt0XJ4M0PAQhAAAL1CQjRNXHDvKS+3dh1IIGCnniciWfUJST8czWbe2Nde7EJAg4IbF2a7G6zZaMQResuJ/SImjVn170fG1sqUDg7cbQS4T9WDuBb2hjNIAABCEDg/wSizPGpmZwFkr8LBOYvJUn3tg+V7YdFqAMXGAIQgAAE6hIYpui4TrX/gR117camAwoUU9rdIvTPdRA9Wyaa3WmYT9axF1sg4IhAIT33cH7x6XRj6y3IRPfGDLOe/wfqbYl9DQjIMlKG1iavExLcD7EBR2yFAAQg0IgAk/xbzMh/q5EaQdsbmAOsYipxtgivCNoFwjwQgAAEWijwB9Uwj2thv9C0svTkLUSSrn1g7o8ZufPwtava5bDDOYGhN8+bbu8tbSaiV9VbVYhXxI0cvpJWL6AL+4bOnjfdjpQqB5eHuNAeLSEAAQhAgGlDLDJ/Iff3l4HxokBgDrAKejLLJEtwYSEAAQhAoE4Blk+rmfzn69yNbQcRKC7Vvi42fbhGpOdJqBePUa5RDcsdF3jsjfMntbWPbGGiSfUWx9eT65Vzd19B165joovcTYHuEIAABMIrYLN9fkdm083hFfjHyQNxgDWYTiSUEldubqvgwkIAAhCAQB0CQqLYUXX6yvVDdezGllEEtqW0yyJCX60FSoh+EDfM99SyB2sh0AyBwlmLxnN09yNENK2B+p9TDfMzDezHVhcE5OLFY61nioNMNNmF9mgJAQhAIPQCwnRPPGMeH3qIvwIE4gCrqGvXC9EFuKgQgAAEIFC3QEY1zKV178bGgwoMppLnKSI3Vc3EZFO5NF9dMYAnD1aNhoXNEvjN4sVRbVLxMSKK19uDbf5/sRW5/653P/a5J1BMJT8vIp90LwE6QwACEAixANPefcSzj8DN3F94E/j+AOvFH6qGthHJ9BC/rTE6BCAAgYYEhDkVz+SMhopg8wEFrD5tMTH9ploiIboqbpiXV7se6yDQbAFLT6wl4gX19hGF3hBfbv6y3v3Y556Ale6aSqVojoimuJcCnSEAAQiEV0BEVqlH5t/Ey8gOr8KLk/v+AKuo93xYSPl62C8k5ocABCDQgIDN1K7GjHXbG6iBrQcRKOrJeULyUDVITPQsl6M9+DpnNVpY0yqBQl/CYOb6b8KuKPPU5Rs3tCov+jgrUOxLvlNY8Ak6Z1lRDQIQgEC1AqJwuWt6ZvPD1W4I6jpfH2Dt7Dvy0L3KXouk/sc6B/XCYi4IQAACVQsIXfeXG4VfXPV6LKxZYHt6ble5VK48zWvUezUK0xXxjHkVEUnNjbABAk0SKPT1fJVZuaze8u3jS4dMuWHg2Xr3Y5+7Ajv7jjj0eRpbZKYx7iZBdwhAAAJhFZCPqkb+K2Gd/m9z+/oAq6hrbxKi28J+ETE/BCAAgQYEhiPRyNxp/RsGGqiBraMIFM9KzJIoVw6w2kZZmr8ras49t5/wuGS8qzwlMJhKvk8R+W6doZ5SDRNfP6sTzyvbtumJdJT5JpHRD+K9khk5IAABCARIYMde2dszK/vo0wGaqeZRfHuAdUuaIieUE79j4X+ueWpsgAAEIACBvwrwll17R+Z2rxrYB5LmCQwumTdDUUqbiA7+iWEheW/cyH+/eUlQGQL1CQwtnft62y7/or7d8ifVyB9b317s8pKApWtriajue6F5aRZkgQAEIOA3Afyc6ON7YG1LJU6OCP/ab2865IUABCDgJQER/s94NvdhL2UKYpYdqaRasmUzMU048HxyV8zIv47x1cEgvgV8P9PWpbO7o3Z75RC25pdNdFOHYb655o3Y4DkBS++5iEi5znPBEAgCEIBACASE6Z54xjw+BKMecETffgKroGvXM9EFYb54mB0CEIBAgwLDkagyc1r/xmKDdbB9FIGiPmeaUNtmInr1gZYqNh0/fYV5DzAh4EWBDene9skj9l7i2h8AJEJfjGfNK7w4FzLVJvDi07+LlT+njqltJ1ZDAAIQgEDjAlJmLp8Qywz8ofFa/qzgywOsJy/oevXwnuijRDTJn+xIDQEIQMB9ASG6I26Yp7ufJPgJnknPnbynVK7cZ2y/f28JyfWqkb8In74K/nvBzxMWde0ZOcgh7IFmE6JL4oZ5jZ9nR/a/CxRTyfNE5CaYQAACEICAGwL8v7GFudN5GdludHe7py8PsAqp3i+w2Je7jYf+EIAABHwtIPRBNWt+x9cz+CT8lvTsQ8aX2isHWIe9PLIQ7VAmts+K/WTdbp+Mg5ghFbD05ONEMqPm8cU+U81uWlXzPmzwpEDl03hTyvbDItThyYAIBQEIQCDYAs9Iye6K37bpiWCPuf/pfHeAVThr0XiO7jHr+gEqjFcYM0MAAhDYv4BEokocXx9szdtje7p3YrlkbyGiaa84wFL40vjy3DdakwRdIFC/gKVrDxHRvFor2CwndGTyd9e6D+u9K2Dp2uuIqHIvWsW7KZEMAhCAQEAFFPmoujz/lYBOd9CxfHeANZhKHK8I/ZaII2G8YJgZAhCAgCMCIjer2fz5jtRCkVEFtqaPGxct7XyYiGIvXSxEq9WF5qlh/Rj4qHBY4CmBgq79nolqvnks27QgtsKsHH7hFRCBF/5MK+/cQEKzAjISxoAABCDgJ4HnxsrewydlH33aT6GdyOqrAyxJU6Qwot2tML3WieFRAwIQgEBIBYSITlYN87chnb/lY8sZXWOKY6OVA6z4S5rvKynK62Ys33hfywOhIQTqECikErez8Jk1bxWapWbNyr1L8QqQQCGV1FnkVnwKK0AXFaNAAAK+ERChc+JZc7lvAjsU1FcHWDtSydeURNY4NDvKQAACEAilgBDts4k6Og3zyVACuDC0XLKorbhjd+UAq/Nv7W2Sj3cY+S+5EActIVCXQLFPu0GY3lLr5jLRYfjzplY1f6y39OR9RHKsP9IiJQQgAIEACbD8XM3k3xigiaoaxVcHWEU9eaWQfKKqybAIAhCAAAT2K8DE18eM3IXgaZ3ALel05MTyQw+T0OGVrkL01Njo8OzJ/Q8/07oU6ASBxgSslPZtEvpArVWeiipj5vZvHK51H9Z7X6DQl3grM//E+0mREAIQgECwBJioJIpypLp844ZgTXbwaXxzgLU13TmurTRxQP7x6xdhulaYFQIQgIATAsO2PdLVsWLLVieKoUZ1AkLERV2rfALrCCLaZSulkzqWDzxQ3W6sgoA3BAp9iU8y8+drScNChVjWxNPqakHz0VpZvDhanFz8Iwkd5aPYiAoBCEAgGALM/6Vmcu8LxjDVTeGbA6xiKvFOEf7v6sbCKghAAAIQOIDAOtUwF0Kn9QKWrlV+Q9YrIt+MZ/Mfan0CdIRAYwKDqeS7FJFraqkiRL+KG+bra9mDtf4SGEwlzlaEV/grNdJCAAIQCIAA08OxjNnFL3y4Pxwv3xxgWSnttyR0UjguC6aEAAQg0CQBW76irsh/tEnVUfYgAkU9eZ+ISGzahBP56jUjwIKA3wQGl2pnKTatrCW3iPxnPJv/cC17sNZfAsXTF0yQCfueIOKx/kqOtBCAAAR8LyBl5rM6M7nbfT9JlQP44gBra7pzcrQ0sfJ1l/FVzoVlEIAABCDwSoEyl6Q7dlv+EeC0XqCQ0u4glsvjy/P3t747OkKgcQEr1XMMifLHWioJ03viGfMHtezBWv8JWKnEOSR8CxH54t8W/hNGYghAAAL7FxCizTujyryw3GvSF3/JWH3JHxLLO/CmhQAEIACB+gWE6I64YZ5efwXsbERgW7r7yM7+zQ82UgN7IeCmQCE993AulR+rMcNi1TB/W+MeLPeZQOVeWNak4gATzfRZdMSFAAQg4HeBEVHsBfHlm0y/D1JNfs8fYBXO6jmMo8rjRDSumoGwBgIQgAAEDiDA9HY1Y14LHwhAAAL1CEi6t32oZO+tPJSg2v3Pl6Ox2SvXD1W7Huv8K1DUtf8Qoiv8OwGSQwACEPCnADNfGcvkPuXP9LWlrvoHkNrKOre6cI52OpfpF/hIsnOmqAQBCIRTYEw0MnNy/4bKLwTwggAEIFCXQEHXnmCiKVVuHo4tNMfxMrKrXI9lPhZ48V5Yw1uIaLqPx0B0CEAAAv4TYNq1a1ypo/uGgWf9F762xJ4/wLJ07TdEtLi2sbAaAhCAAAT+UYBXqUbuTKhAAAIQaETA0rV1RDS/yho7f7DQPGwZDrCq5PL/sqKevFJIPuH/STABBCAAAX8JsE0XxFaYP/VX6trTevoAa2tamx8tUeUHJbwgAAEIQKB+AZvEPk7Nbqrp5sv1t8NOCEAgqAKFlPYLFnp9lfNtixnm4WF6vHeVLoFdtnVpsjtqywYiagvskBgMAhCAgAcFmDkby+R0D0ZzNJKnD7AsXfssEX3a0YlRDAIQgED4BIZ27S31dK8K/seKw3dpMTEEWitg6YkfEnG1D9bJxwwziQOs1l4jt7tZKe3bJPQBt3OgPwQgAIGQCZRK0cj0Gf0bngry3J4+wCroWo6JtCBfAMwGAQhAoOkCIjfHsvk34x+RTZdGAwgEXqDGXy7+OWaYR+PPnsC/Lf5hwK3puV3RUnk9EY0J1+SYFgIQgIC7AkL0jbhhXupuiuZ29+wBVqFPO52Zftnc8VEdAhCAQOAFysOKsnDm8o2Vr3TgBQEIQKAhgUKfdgkz/aCaIkL8+7iRO7GatVgTHIFb0unIiaV1q4n4hOBMhUkgAAEIeF+AmQa2HTah9+ir14x4P219CT15gFV5PHNR11YT0Un1jYVdEIAABCBQERCiP8cNcxE0IAABCDghUNQTS4Q4W00tIVkVN/J4eEQ1WAFbM9TXNcfmaJ6IIgEbDeNAAAIQ8LKAzVHpivXnH/FyyEayefIAq3DWovEc3V151Hu1j2luxAB7IQABCARWgIm+EDNMPBEqsFcYg0GgtQJFPXGKEP9vNV2Z+L9jRu7/VbMWa4InUNS13wvR8cGbDBNBAAIQ8LCA0G1q1jzbwwkbiubJA6xBPXm+QnJjQ5NhMwQgAAEIECnKPBVfH8Q7AQIQcEigcHbiaI7wn6oppzB9dnrGXFbNWqwJnkBRT7xDiH8YvMkwEQQgAAFvC7RzacaUzMA2b6esL53nDrDuv2RRW8eO3ZuJaGZ9I2EXBCAAAQhUBJjo7phh4h4keDtAAAKOCQymEwmlxGY1BYXp3fGMeXU1a7EmeAKyeHHUmlzcwkKHB286TAQBCEDAuwJM/OaYkbvJuwnrT+a5A6zBVPI1isia+kfCTghAAAIQeOEAy6YLYivMn0IDAhCAgFMCO1JJtSRSqKZemflNnZnc7dWsxZpgCgz2aR9QmL4dzOkwFQQgAAGvCsivVSN/qlfTNZLLcwdYVir5KRL5XCNDYS8EIAABCBCNSKnr8OzAFlhAAAIQcEqgeOGCCbJreFc19cpSPqozu/nBatZiTTAFHu/rmtPG0YFgToepIAABCHhWoCwUnR831uc8m7DOYJ46wNqQ7m2fPGJvJsZHjeu8ntgGAQhA4K8CkostzM/jZWSDBAIQgIBTAn99UnTlAGv8qDWjpWlq/8COUddhQaAFrFTiVhJeGughMRwEIAABzwnIl1Qj/3HPxWowkKcOsAZTibMV4RUNzoTtEIAABMIuIEKRM+PGhl+EHQLzQwACzgsU9eQDQnLkwSoz0ch0wxzDROJ8AlT0k8DgknkzFKVU+RRWu59yIysEIAABPwsI0dq4YR7072o/zuepAyxL1ypPHjzfj5DIDAEIQMBDAsVYdH4n9/eXPZQJUSAAgYAIFPTE9Ux8wSjjFFXDVAMyMsZoQKByM/fipKF1RJJsoAy2QgACEIBAbQJ2RBnWpi1/uPKAvMC8PHOAVflI+lBK2ypCHYHRxSAQgAAEXBAQoV/Gs+YbXGiNlhCAQAgECintchb6wiijblANc14IODBiFQLFVPJdInJNFUuxBAIQgAAEnBJgWq5mzHOcKueFOp45wCqkkjqLZLyAggwQgAAE/CxQEjpnRtZc7ucZkB0CEPCuQDW3fBDiu+JG7iTvToFkrRSQZcuUoXU3PY5fVLdSHb0gAAEI0FN7ZeycWdkHnw6KhScOsJYtI+Xda5Pr8dHioLytMAcEIOCWAJNsjxn56W71R18IQCD4AkOp+bNtGRnlCaeyUjXyS4KvgQmrFbBS2rdJ6APVrsc6CEAAAhBoTICJbFvo2HjWXNNYJe/s9sQB1tY39XRE25U8CU3wDg2SQAACEPChAMv31Ez+/T5MjsgQgIBPBLaneyeWS/ZTRNR2wMhM16oZ8+0+GQkxWyCwTdeOixDd04JWaAEBCEAAAn8VEKJM3DAD8yRYTxxgFfTEBUx8Pd5lEIAABCDQoADzm9RM7vYGq2A7BCAAgQMKSPq4cUOlpwtCcuiBFgnRN+KGeSkYIfA3ARHiYkq7j4iOgQoEIAABCLRMwG6L2ocf1r9psGUdm9jI9QMsWUZKca22lohwo88mXmiUhgAEwiDAeyJRnj6tf+OuMEyLGSEAAXcENp/RNWbi2OjDRBQ/UAIW/lQsm7vSnYTo6lWBoVSPbouCe9569QIhFwQgEEwBprerGfPaIAzn+gHWkN6z0CblwSBgYgYIQAACrgowfVvNmP/qagY0hwAEAi9w/yWL2jqe2L2RhLoOOKzQB9Ws+Z3AY2DAmgQePzsRb4vwY0QUrWkjFkMAAhCAQN0CwpKNZ/J63QU8tNH1AyxLT/w7EX/ZQyaIAgEIQMB3AkxUUkQ5Zlp2I34h4Lurh8AQ8JfALWmKnFTS1gjRwgMlF+aL4pncT/w1GdI2W0CIuNiXuJ2Yz2h2L9SHAAQgAIH/E9hTJjq80zCf9LuJ6wdYRV27R4iO8zsk8kMAAhBwU0CIdj4fHZ41p//hZ9zMgd4QgEA4BAp64i4mPuFA09okfR1GfkU4NDBlLQLblya7y7ZsxKewalHDWghAAAKNCSgKXTZ9ufn1xqq4v9vVA6yhvq45NkcH3GdAAghAAAJ+F+B+1cid6/cpkB8CEPCHgKVrlXtpvO1AactlOaVzZf43/pgGKVstYOnaeiKa2+q+6AcBCEAgrAJM9IeYYfr+g0OuHmBZfT3fIlY+GNY3EeaGAAQg4JCA7CHS5hjmJofqoQwEIACBgwoUdO3jTPTFAy0SRY6JL8/fD0YI7E/A0rWvENFHoAMBCEAAAi0TeC5mmIcwkbSsYxMauXaA9cJ34HXtIfz2pQlXFSUhAIGQCUhONfK9IRsa40IAAi4KDOq9SxSyswc+wLKT8eWbTBcjorWHBV78FkYkT8QRD8dENAhAAAKBEhCb3hNfYf7Az0O5doD1SN8Rh47lsUUiGuNnQGSHAAQg4LYAE10TM8xL3M6B/hCAQHgEBtOJhFLiAx5QtUXtzsP6Nw2GRwST1ipg6dqviejkWvdhPQQgAAEI1C3w5ODUCerRV68ZqbuCyxtdO8AqLNW+yDZ93OX50R4CEICA/wVYTlEzuNeM/y8kJoCAfwQknY4USw8NE5Gyv9RjosOHTsZDJfxzQV1IWkhpl7CQrz8J4AIbWkIAAhBoSMAui9axMp9vqIiLm105wCqctWg8R3ZvJ6YJLs6O1hCAAASCIPBYbGesi1evLgVhGMwAAQj4R6Cga9v+8gnQjv0kltjOWDv+XPLPtXQj6daz53ZFI+XNbvRGTwhAAALhFZB3qEb+R36d35UDrMGlvUcptv1nv6IhNwQgAAGvCNjMX+7I5D7mlTzIAQEIhEfA0hP3EfGxL5+YSZ6OGflJ4ZHApPUKFPoSv2PmE+vdj30QgAAEIFCjgNC9atb85xp3eWa5KwdYlq5VnjpSefoIXhCAAAQg0IBAmeWUTnx9sAFBbIUABOoVKKYShgj3vXK/bFKNfKLeutgXHoFBPXmaQvJLInLl3yThkcakEIAABP4uEFG4Z9rynC8/AevKXxZFXdskRN14E0EAAhCAQGMCw8Ntk2fe/tDOxqpgNwQgAIHaBay+xHeJ+X37OcD6vWrk8ama2klDt6NwVs9hSjSyWUgODd3wGBgCEICASwJMdHnMMK9yqX1DbVt+gLW1r+fYKCv3NZQamyEAAQhAgIjlZjWTPx8UEIAABNwQKKa0K0ToP17eW4gyccNc6kYm9PSXwC1pipxUStwrxMf4KznSQgACEPCvADPdGcuYp/lxgpYfYBX15JVC8gk/YiEzBCAAAQ8J2KWyHDVjZX6dhzIhCgQgECKBQl/yQmb58SsPsPj7cSP33hBRYNQGBAp64gL+/+zdeZxcZZX/8XNuVRZIWAIkqaokbFn6dgcSmICICwZcEBXo6tCIA477Ni7jOKPOOP40jjquo+Oo44aKogi2qeqwDA6K4CAKQoQASd9Kwpp0VSUsYcnSSaru+VmBQZYk3VX11P6p18u/eJ7vOeddbZJ+qu69oj+pIoKtCCCAAALlCJhs1QPGT49dfMfWcrY1w9q6H2Bl+/wb1aRlbxrWDG8aPSCAAAIikitEt8yeNbBhOxoIIIBAIwRySf9lInL9Hmr/azwdfLIRPVGzNQVySf9hETmkNbunawQQQKAFBTx9X3zZ0DdbrfO6HmDd/9fHThm/fVdORCa0GhT9IoAAAs0lYL+JpTOvUBFrrr7oBgEEOkUg1+sfKSr3Pnfe0OT9MwaDb3SKA3NWL5BL+leIyOuqTyIBAQQQQGAsAip6+/To0Ak6IMWxrG+WNXU9wMomu/5FRT/TLMPTBwIIINC6AnZuPJ0ZaN3+6RwBBFpdwN65aFz+wa1bRGT8s2fhz6dWf2/r3X+2t+vvVPU/6l2XeggggEAHC2zeb79xsw++pLUeBuJsUNoAACAASURBVFW3A6zrFi+Odk3Jr1KReR38Q8LoCCCAgAuBzbHosVN1YKClPjFxMTgZCCDQXAL5pH+7iSx8TleL4+ngt83VKd00s0C+v+soK+g6EfGauU96QwABBNpKwOTU+GCwp1sBNO2YdTvAyvXPmSqF6N0ickDTatAYAggg0AoCKr+Ip4L+VmiVHhFAoL0Fcn3+D8Xkzc+Y0jSUhbHlwZ3tPTnTuRbI9/o3mnKfXNeu5CGAAAJ7E1CRa2Lp4PRWEqrbAdZwsudsT8K0iNStZiu9EfSKAAIIjFnA9G/jg0PfGvN6FiKAAAI1Esj2dX1QTb/6l3grWsGOSVyxJqhRSWLbVGBjsuvdoSh/t7Xp+8tYCCDQlALhDtWZR6aGSvcpb4lX3Q6Tskn/typySkuo0CQCCCDQxAJh1PwZA5lME7dIawgg0CEC+eT800yK1z5j3J2eFXqmD64rfeueFwJjFtiYnLcwFO/2MW9gIQIIIIBA1QJhKGfNWB6UHqTREq+6HGA9eFZXohDR4ZYQoUkEEECguQXuiqeDY5u7RbpDAIFOEcgnu48xsdKhQ+SpmbdbIeInrlj1QKcYMKcbgfX9M/eLFiaXHgrAfbDckJKCAAIIjCpgol9LpIc+OOrCJllQlwOsbO+8XlWvdPkgLwQQQACBKgRClQ/MSAVfryKCrQgggIAzgWz//MOlUFyjIhOeCt2yq2hdh1+eyTorQlDHCGST/o9U5G86ZmAGRQABBBouYOvj6czhDW9jjA3U5QBruLfrm57q346xJ5YhgAACCOxZoKiix8XSQ3cBhAACCDSDwMPnzzlw57Zo6Vv2k0v9qMjjIuPnxtJ3bGqG/uihtQTuX9Izf4KFd5jxLazWeufoFgEEWlnAi8qLpg8Ef2iFGWp+gGX9/ZF84Y57RXRWK4DQIwIIINC0AiZbx+8oJA69et3jTdsjjSGAQEcJmIjmkl0PqOjMJw+w9NGC2JyZ6eDhjoJgWCcC1y1eHPWn5NeLSMxJICEIIIAAAqMKmMh/JtLB3426sAkW1PwAK9s39xS1yG+bYFZaQAABBFpawEyWJQaDc1p6CJpHAIG2E3jOZV+PTIhOOvqQgRWPtd2gDFRzgdKB6Makf6OJnFzzYhRAAAEEEHhSQOXWeCo4sRU4an6Alevt/qaocflgK/w00CMCCDS1QNGKx88cXMsTmpr6XaI5BDpPYOM5XeeHRf3JU5M/FIl6R00bWF26GTcvBMoWyCX9T/z516lPlb2RDQgggAAClQpseyTqTZk/sHpnpQH12lf7A6ykf6uILKrXQNRBAAEE2lFAVYZjqWD3JTq8EEAAgWYS2NTfEysWwtJN20v/rtxUiG45ctbAhu3N1CO9tI5Adsk8X0Nv9VM/T63TOJ0igAACrSwQem+NL1/9w2YfoaYHWLuvYz84/6ioTGp2CPpDAAEEmlnARK5JpIPTm7lHekMAgc4VyCb9R1RkiojkY1MnHa7fXbGrczWYvFqBXNK/W0SOrjaH/QgggAACYxWwoVg6M19FbKw7GrGupgdY2SVdF2ioFzdiMGoigAAC7SQQhvLhGcuDL7fTTMyCAALtI5BN+qtUpEdEst9JB7OWioTtMx2T1Fsg1+f/UEzeXO+61EMAAQQ6VkBlxJsQPXL6z+7a2MwGNTvAKt2EMd/XdbuYLmhmAHpDAAEEWkDAdllh7uGD60qfSPNCAAEEmk4g3+f/ykxeISrr4qlgbtM1SEMtJTDc1/12z+x7LdU0zSKAAAKtLKASeiYvmZ4O/tDMY9TsAGvjWcdML0YKD6jI+GYGoDcEEECgBQRWxdPBMS3QJy0igECHCmSTXd9T0beryC2xdPCCDmVgbEcCG5d0LQhDXekojhgEEEAAgTEJ6Jfi6aGPjGlpgxbV7AAr1zfvRDHvZm7A2KB3lrIIINA2AqHol2Y0+V8mbYPNIAggUJHAcN+8t3vmfU/M+5/44OpXVxTCJgSeErClS738HZc+LsZ9dPmhQAABBOolYCIPx9PB1Ga+D1bNDrDyff5nzeRj9cKmDgIIINCuAurJWbFlwRXtOh9zIYBA6wvcv6Rn/vgwvEtFLo2lgze0/kRM0GiBXNK/SETe1Og+qI8AAgh0koB5dmJiWebWZp25JgdYtlS8/MrdTw85slkHpy8EEECgVQTCcNfhM5bfvb5V+qVPBBDoPIHSv/02rux+2Cy8JD6YeW/nCTCxa4F80n+difDhjWtY8hBAAIF9CJjIPyTSwVeaFakmB1gPJLuPGSd2Z7MOTV8IIIBACwlw/6sWerNoFYFOFsglu35t4t2USA99vJMdmN2NwMa+uUeHFlktIhPcJJKCAAIIIDCagKmkE6mgb7R1jfrvNTnAyiXnvVfE+0ajhqIuAggg0C4Cnth7pqcz326XeZgDAQTaVyCb7PqMqm6Op4J/b98pmaxeAmvPmHPgpImR+1X04HrVpA4CCCCAgD0UT2emNqtDjQ6w/J+JyHnNOjR9IYAAAi0isGN8GJ176PK7uHywRd4w2kSgkwU2Jv2+UOygeDrzw052YHY3AiaiuV7/j6pygptEUhBAAAEExiiwOJ4OfjvGtXVd5vwAq/SXTb7Xv09UDq/rJBRDAAEE2k8gp5PHz41dfMfW9huNiRBAoN0E8v3+sWEYzk4sWzPYbrMxT2MEhvu6P+KZfaEx1amKAAIIdKzAD+Pp4K3NOL3zA6zhJT3He2H4p2Yclp4QQACBVhJQkRtj6eAlrdQzvSKAQOcK3PvmIydO2LL/iYlfrL6hcxWY3KVAtu+oI9Qm3OcykywEEEAAgVEFgtjm2LF6/fWFUVfWeYHzA6xs0v+ainygznNQDgEEEGg7ARN7T4L7X7Xd+8pACLSzwKr+nvHzB1bvbOcZma2+ArmknxeR6fWtSjUEEECgowUej0S9GdMGVm9pNgWnB1jW3x/JF+68TUSObbZB6QcBBBBoMYGCFcJ44oo1D7VY37SLAAIIIICAM4F8n/87M3mxs0CCEEAAAQRGF9DIafHUqutGX1jfFU4PsDb190wuFsJ7ReSw+o5BNQQQQKC9BMxkdWIwmN9eUzENAggggAAC5Qnkkv4PROQt5e1iNQIIIIBANQJmYSoxuGZJNRm12Ov0AOuhJfP8XaG3WkSc5tZicDIRQACBZhZQk0tig8H5zdwjvSGAAAIIIFBrgWyy690q+q1a1yEfAQQQQOBZAmFs6qQD9LsrtjWTi9ODJu5/1UxvLb0ggEArC5jY3yXSmf9s5RnoHQEEEEAAgWoFhpfMOd4LozwgqlpI9iOAAAJlCoSe91czlq0u3SKqaV7ODrDsnYvG5R/culFEpjTNdDSCAAIItKhAM/6F0aKUtI0AAggg0MICt75z0bgZD23dLCaTWngMWkcAAQRaUeDN8XTwo2Zq3NkBVnbJPF9Db6iZhqMXBBBAoBUFzGRzPB0cqirWiv3TMwIIIIAAAi4Fskn/typyistMshBAAAEERhW4NJ4O3jDqqjoucHeA1Tcvqeal6tg7pRBAAIH2FFC5KJ4KuGFte767TIUAAgggUKZArq/7C2L2kTK3sRwBBBBAoCoBeywWXXCoDgwUq4pxuNndAVay+z9U7O8c9kYUAggg0KECdm48nRno0OEZGwEEEEAAgWcJ5Pu6X29ml8KCAAIIIFBfgTAiL57xi+D39a2692pODrBMRPNJv/T0Qb9ZBqMPBBBAoFUFVPTYWHrorlbtn74RQAABBBBwKbAh6Z8cEWmaX6BczkYWAggg0NQCap+IpzKfbpYenRxgZfu6j1Cz+5plKPpAAAEEWllgok2cMmXw9kdbeQZ6RwABBBBAwJVA9sz5h2u0eL+rPHIQQAABBMYscFU8HbxuzKtrvNDNAVbSf4eKfLfGvRKPAAIIdICADcXSmfkq3MC9A95sRkQAAQQQGIOALV0czd2e36IqE8awnCUIIIAAAq4ETO6NDwZHu4qrNsfJAVY+2X2xiV1QbTPsRwABBDpdwET+OZEOPt/pDsyPAAIIIIDAMwXyvd2/NrWXo4IAAgggUFeBcFfRZh1+eSZb16p7KeboAKvrNhM9rhkGogcEEECghQWsqIXDZ6bWbWjhGWgdAQQQQAAB5wLDS7o+7IX6RefBBCKAAAIIjCJg/xRPZ77QDExVH2DZ0qVefuXPtojofs0wED0ggAACLSzwUCwdTOPywRZ+B2kdAQQQQKAmAhvPOmZBGCmsrEk4oQgggAAC+xJYHUsHxzTD7yhVH2AN93Wd5Zku5/1GAAEEEKha4I54OlhYdQoBCCCAAAIItJnAvb3HHTxRR3IiMrHNRmMcBBBAoKkFTOzR/Wy/o5rhIVNVH2Ble/1fqMqSphanOQQQQKAFBFQlHUsFfS3QKi0igAACCCBQV4H8qxZMskk77hHRaXUtTDEEEEAAgZ2eFXqmD667u9EUVR1g2RlzJuQnRkv3ajms0YNQHwEEEGh1gVD0fTPSQ99s9TnoHwEEEEAAAdcCq/p7xh9StFViNsd1NnkIIIAAAvsWMJNzEoPBskY7VXWAtb5/3oxIwVujIvs3ehDqI4AAAq0uUPB2zpu17J61rT4H/SOAAAIIIOBawEQ03+v/UVROcJ1NHgIIIIDAKAJmP48PZl7faKeqDrByffNOFPNuEhGv0YNQHwEEEGhxgVw8HSRafAbaRwABBBBAoGYC+d6uC031bTUrQDACCCCAwN4EtmwZKRw29+p1OxpJVN0BVtL/hIh8qpEDUBsBBBBoCwGVK+Kp4Ky2mIUhEEAAAQQQqIFAttd/p6p8pwbRRCKAAAIIjCJQtOLxMwfX3t5IqCoPsLrvFLFjGjkAtRFAAIG2EFD9dDw1VPpQgBcCCCCAAAII7EEg1z/vBVLwbgYHAQQQQKAhAm+Op4MfNaTyU0UrPsDKJxdMM9mZ//M3sCrOaOTg1EYAAQSaSSA0+esZg8HPmqknekEAAQQQQKCZBLJnJvbX6IFPcPuSZnpX6AUBBDpGwOTr8cHgA42ct+LDp/w5PS+3YvjrRjZPbQQQQKBdBELVRTNSQ39ql3mYAwEEEEAAgVoI5JJ+TkRitcgmEwEEEEBgHwIqN8VTwcmNNKr4ACub7P57FftKI5unNgIIINAmAvZY0Q7yL8+UPlXmhQACCCCAAAJ7Ecgl/T+KyIkAIYAAAgjUXWBnbOqkyfrdFbvqXvmpgpUfYPX5P1WTv25U49RFAAEE2kVAzW6PDWaOb5d5mAMBBBBAAIFaCWST3SkVS9Yqn1wEEEAAgb0LmMnpicHgmkYZVXyAlUv6GRGZ16jGqYsAAgi0i4CJfCWRDv6hXeZhDgQQQAABBGolkE/6XzORht6DpVazkYsAAgg0u4CJfDWRDj7UqD4rOsBal1wwbRI3cG/Ue0ZdBBBoM4GiyJkz08GVbTYW4yCAAAIIIOBcIJfs/qiIfd55MIEIIIAAAqMKqMrvY6ngxaMurNGCig6wNizx3xQJ5aIa9UQsAggg0EkChYKnPbOWDa3tpKGZFQEEEEAAgUoEsr1dF6jqxZXsZQ8CCCCAQNUC931nYTB76VIJq06qIKCiA6x8r/9TU+5/VYE3WxBAAIHnCjzhTYzOnf6zuzZCgwACCCCAAAL7Fsgnu04z0WtxQgABBBBoiMCO2NRJBzTqRu5lH2CZiOaT/q0i8lcN4aIoAggg0F4CD1ph0pGJK1Zsa6+xmAYBBBBAAAH3Atkl83wNvSH3ySQigAACCIxFwMTOSKQzvxzLWtdryj/A6u+PbCzeeb+ZzHDdDHkIIIBA5wnYUDyd6em8uZkYAQQQQACB8gUePn/OgTu3RR8rfyc7EEAAAQScCJhdHB/M/I2TrDJDyj7AuvXMRfvPjG59zESiZdZiOQIIIIDAcwTMwu8mBte8CxgEEEAAAQQQGJtALuk/LCKHjG01qxBAAAEEHAtsi0WPPVAHBoqOc0eNK/sAK7ek61wJ9bJRk1mAAAIIIDCqgKqcH0sFl4y6kAUIIIAAAgggsFsgl+y+WcReAAcCCCCAQGMECtFw5qyBNcP1rl72AdZw0l/uiZxV70aphwACCLSjQBjuOnzG8rvXt+NszIQAAggggEAtBIaT3Zd5YufWIptMBBBAAIHRBQoWnjRrcM0fR1/pdkVZB1i2eHE0PyW/Q0Q8t22QhgACCHSigD0WT2cO7sTJmRkBBBBAAIFKBXJ9XV8Q049Uup99CCCAAALVCWgo58eW1/8qkrIOsLJ93Ueo2X3VjcpuBBBAAIGnBFbH08F8NBBAAAEEEEBg7AK53u73iNp/jX0HKxFAAAEEXAqEYhfOSGfe4TJzLFllHWANn+2/yPPkxrEEswYBBBBAYFSB38TTwctHXcUCBBBAAAEEEHhaILek+zUS2lWQIIAAAgg0RsBE1iTSQVe9q5d1gJXt636jmv243k1SDwEEEGhHATO5JDEYnN+OszETAggggAACtRLI93W/0Mx+LyJl/S5Tq37IRQABBDpRoChy2Mx0UHoqbN1eZf2hn1/if9dCqfvXxOqmQSEEEECgjgIm9tlEOvPxOpakFAIIIIAAAi0vsP6srgXjIvonE4m0/DAMgAACCLSogKf6yumpoV/Xs/2yDrBySX9IRPx6NkgtBBBAoH0F9E3x9BDfam3fN5jJEEAAAQRqILDprPlzipFi6feSaA3iiUQAAQQQGJOAfSSeznxpTEsdLRrzAdajrz12yvbxu0pfDxvzHkc9EoMAAgi0pUBR5EUz08Ef2nI4hkIAAQQQQKBGAg/3zZm506L3iMi4GpUgFgEEEEBgVAH9cTw99KZRlzlcMObDqOG+7ld4Zr9yWJsoBBBAoKMFtsqu6XPSd2/qaASGRwABBBBAoEyB7JnzDtOot0FEJpS5leUIIIAAAq4EVG6Kp4KTXcWNJWfMB1i5ZNeHRfSLYwllDQIIIIDAqAJbYungQBWxUVeyAAEEEEAAAQSeFtjU3zO5WAwfFJOJsCCAAAIINEzg4Xg6OKye1cs4wPIvEpG6fj2snhDUQgABBOopYCIrE+nguHrWpBYCCCCAAALtIGCLF0fzU/KPi8h+7TAPMyCAAAKtKrBTi7OPSK0tXdJdl9eYD7Cyye4bVOwldemKIggggECbC5hIKpEOlrT5mIyHAAIIIIBATQTySX/YRBI1CScUAQQQQGBMAmbyrsRg8N0xLXawaMwHWLmkPyz8JeGAnAgEEEBAxFP94vTU0EexQAABBBBAAIHyBfJ9/o1m8qLyd7IDAQQQQMCdgA7E00Pnusvbd9KYDrCeulHiRhHx6tUYdRBAAIF2FjCx9yTSmW+384zMhgACCCCAQK0Ecsnun4tYf63yyUUAAQQQGF1ARdYObY71nHr99YXRV1e/YkwHWLlkV7+I/rz6ciQggAACCJQEPNPk9MGhQTQQQAABBBBAoHyBXK//n6Ly/vJ3sgMBBBBAwKHApi0jhblzr15Xui9hzV9jOsDKJru/p2Jvr3k3FEAAAQQ6RUDttHgqc12njMucCCCAAAIIuBTY0Od/LGLyWZeZZCGAAAIIlC2wLRL1Zk8bWJ0ve2cFG0Y9wLKl4uVXdt8lYt0V5LMFAQQQQGAPAmZyQmIwWAEOAggggAACCJQvMLyk661eqN8vfyc7EEAAAQQcCljE8xZNW7b6NoeZe40a9QAr/8YFk2TLzrUmEq9HQ9RAAAEEOkGgEI3MnTWwal0nzMqMCCCAAAIIuBbI9c47Q9T7b9e55CGAAAIIlCdgnvxDYlnwlfJ2VbZ61AOsXP+cqVKIln7JOrCyEuxCAAEEEHieQLQwLT6w7kFkEEAAAQQQQKB8gU1L5hxfDKN/Kn8nOxBAAAEEnAqYXBkfDM50mrmXsFEPsLJ93Ueo2d0iEqlHQ9RAAAEEOkEgdtDIfnrRfSOdMCszIoAAAggg4FpgU39PrFgIc65zyUMAAQQQKFPAZFtsMJisIlbmzrKXj36AlfT7VGRZ2clsQAABBBDYs4DK1lgqOKAef8jzFiCAAAIIINCOAqv6e8YfUgh3tONszIQAAgi0mkC0aDOmXp7J1rrvUQ+wckn/GyLy3lo3Qj4CCCDQMQImq+ODwfyOmZdBEUAAAQQQqIFAPunvMpFoDaKJRAABBBAoQ0BVT46lhm4qY0tFS8dwgNW9SsR6KkpnEwIIIIDA8wXqeJ04/AgggAACCLSrQC7ZtU1E92vX+ZgLAQQQaBUBVT0vlhq6rNb97vMAa1N/z+SwGD5mJl6tGyEfAQQQ6BgBla/HU8EHOmZeBkUAAQQQQKAGArmk/6iIHFSDaCIRQAABBMoQULX/F0tlPlPGloqW7vMAK3f2nB7xoqsqSmYTAggggMAeBULPPjJjWeZL8CCAAAIIIIBA5QK5pL9JRKZWnsBOBBBAAAEnAqqXxVND5znJ2kfIPg+wsmf7p6snv6x1E+QjgAACnSRg5r0xMbj6J500M7MigAACCCDgWiCX9IdFJOE6lzwEEEAAgfIEVOSOWDpYWN6u8lfv8wAr39f1NjO9sPxYdiCAAAII7E3AU33l9NTQrxFCAAEEEEAAgcoFckn/XhE5svIEdiKAAAIIOBLYFVsYTNSlEjrK22PMvi8hTHZ/UcQ+XMsGyEYAAQQ6TUBDWRBbHtzZaXMzLwIIIIAAAi4Fcn3+WjGZ4zKTLAQQQACBygR2iR57eHrorsp2j23XKAdY/hUi8rqxRbEKAQQQQGAsAiq7psfSd5fu28ELAQQQQAABBCoUyCb9QEW6KtzONgQQQAABhwImdkEinfmpw8jnRY1ygNW1TkRn17IBshFAAIEOEyhEi3bI1MszT3TY3IyLAAIIIICAU4Fcn3+XmMx3GkoYAggggEClAl+Op4OaXsG31wOs9f0z94sWJ28RE6/S7tmHAAIIIPA8gZFI1Js6bWD1FmwQQAABBBBAoHKBXJ+/UkwWVJ7ATgQQQAABhwJXxtPBmQ7znhe11wOsXO+8F4h6N9eyONkIIIBAxwmYbNUDxk+PXXzH1o6bnYERQAABBBBwKJDt8/+kJsc7jCQKAQQQQKBiAf1jPD10UsXbx7BxrwdYPIFwDHosQQABBMoUUJHHwsKkROKKFdvK3MpyBBBAAAEEEHiGQK7Pv0VMTgAFAQQQQKAJBFTujaeCo2vZyV4PsLLJrv9Q0b+rZXGyEUAAgU4TMJFHpPD4rMQVWQ6wOu3NZ14EEEAAAacC+T7/D2byQqehhCGAAAIIVCqwJZ4ODqh081j27eMSwq6rRPU1YwlhDQIIIIDAmAU2FaJbjpw1sGH7mHewEAEEEEAAAQSeJ5BP+r8zkRdDgwACCCDQHALRCTZj6qWZbK262fsBVrL7ZhF7Qa0Kk4sAAgh0qEB+5KCRo4666L6RDp2fsRFAAAEEEHAikEt23yBiL3ESRggCCCCAQNUCRc9eP3NZ5udVB+0lYB8HWP7dIlLT6xdrNRS5CCCAQBMLZEc2j8w+6noOsJr4PaI1BBBAAIEWEMglu/9XxF7aAq3SIgIIINAZAibfiA8G76/VsPs6wHpMRA6sVWFyEUAAgU4UUJXh6dsLs/XqdTs6cX5mRgABBBBAwJVALun/VkROcZVHDgIIIIBAdQIqdkcsnVlYXcred+/xACvXP2eqFKIbRWSvB1y1aohcBBBAoM0FNmwZKcyZywFWm7/NjIcAAgggUGuBXNK/XkReVus65COAAAIIjFlg25aRwiG1+l1njwdUw31dZ3mmy8fcIgsRQAABBMYoYOu3jBTn1uoP9TE2wTIEEEAAAQRaXiCX9K8TkcUtPwgDIIAAAu0jsEOihVnxgXUP1mKkPR5gZfv8f1OTf65FQTIRQACBjhZQeWDL9sI8DrA6+qeA4RFAAAEEHAjkkv5vRORUB1FEIIAAAgi4ESh4Wuyanlp7j5u4Z6fs+RLCXv86UT7NqAU4mQgg0OECHGB1+A8A4yOAAAIIuBLIJf1rReQ0V3nkIIAAAghULRCGRe+EGZevvq3qpD0EPO8Ay5aKt3Fl98MmdnAtCpKJAAIIdLaArt8ysotLCDv7h4DpEUAAAQQcCHCA5QCRCAQQQMCxQCj6qhnpoV85jt0d97wDrLv7jz5ov8L4TSoyvhYFyUQAAQQ6WcBEhuMjPIWwk38GmB0BBBBAwI1Ars//jRiXELrRJAUBBBBwI2CmH0wMDn3NTdqzU553gDV89uxZnjeudL1itBYFyUQAAQQ6XCA7snlk9lHX3zfS4Q6MjwACCCCAQFUCPIWwKj42I4AAAjURMNXvJ1JDb69F+PMOsHJLeuZrGK40kUgtCpKJAAIIdLhAbmTzyNEcYHX4TwHjI4AAAghULZBNdv2vir606iACEEAAAQScCajKzbFU8EJngc8Iet4B1sakf3IocuOeLi+sRQNkIoAAAp0lYJtiB+04Qi/iG1id9b4zLQIIIICAa4FcsvsGEXuJ61zyEEAAAQSqEngilg4OUhGrKmUPm5//DazennNFw8tcFyIPAQQQQGC3wMOF6JZZswY2bMcDAQQQQAABBCoXyCf935vIyZUnsBMBBBBAoBYCRZHDZqaDh11nP/8eWEn/E57Ip1wXIg8BBBBAYLfAY1aYlEhcsWIbHggggAACCCBQuUCuz79FTE6oPIGdCCCAAAK1EChKeNzM9JqVrrOfd4CVTfqXqMgbXBciDwEEEEBgt8AWnTw+Frv4jq14IIAAAggggEDlAtmkf7uKLKw8gZ0IIIAAAjURCPW18eVD/+06+/kHWL3+n1TleNeFyEMAAQQQ2C0wEol6U6cNrN6CBwIIIIAAAghULpBL+qtEpKfyBHYigAACCNRCwEzelRgMvus6+7kHWJrr7d4iavu7LkQeAggggEBJwIrRokyZennmCTwQQAABBBBAoHKBbNJfoyJzK09gJwIIIIBAjQT+NZ4OPuk6+1kHWOuSs6dNknEbXRchDwEEEEDgLwJR1cTU1FAOEwQQQAABBBCoXCCb9O9TkSMqT2AnAgggdlEVLAAAIABJREFUgEAtBEzswkQ68w7X2c86wBpe0nO8F4Z/cl2EPAQQQACBvwiEWlg0I7WOP2v5oUAAAQQQQKAKgVzSL30YFKsigq0IIIAAArUQULkqngpe5zr6WQdYub7u14rZla6LkIcAAggg8BeBourrZqaGrsIEAQQQQAABBCoXyCX9R0XkoMoT2IkAAgggUAsBE1mRSAfOnxL77G9gnd39ds+z79ViADIRQAABBJ4UCCPhO2b8Ys2FeCCAAAIIIIBA5QK5Pn+7mEysPIGdCCCAAAK1EDCRDYl0MMt19rMOsPJ9XR8300+7LkIeAggggMBfBEzt04lU5hOYIIAAAggggEBlAtctXhz1p+R3isjznqpeWSK7EEAAAQQcCuyMLTxvP126NHSY+ew/8PN9/tfN5H0uC5CFAAIIIPBsATO7JDGYOR8XBBBAAAEEEKhM4KH+hTN2FXZsqGw3uxBAAAEEai0QhrsOn7H87vUu6zz7HljJ7p+LWL/LAmQhgAACCDxbQEX/GEsPnYQLAggggAACCFQmkO3rPkXNflvZbnYhgAACCNRaQM17RWxw9bUu6zzrACub9H+rIqe4LEAWAggggMDzBB6Op4PDcEEAAQQQQACBygRyS/w3SSgXVbabXQgggAACtRYwz96TWJb5tss6z/kGVtdqEe12WYAsBBBAAIHnCzwS9SbMH1hduncHLwQQQAABBBAoUyB3jr9UivLJMrexHAEEEECgTgIq8tVYOviQy3LPOcDyHxKRQ10WIAsBBBBA4PkCNjGcmvjZmtKfubwQQAABBBBAoEyBbLLrYhW9oMxtLEcAAQQQqJOAil0eS2fOdlnu6QMsW7rUy99x6S4x8VwWIAsBBBBA4PkChWhk7qyBVeuwQQABBBBAAIHyBbK9/o2q8qLyd7IDAQQQQKBOAiti6eBEFTFX9Z4+wHqg95jZ47TAL1OuZMlBAAEE9iFgRTsxcXnmVpAQQAABBBBAoDwBE9F8cveVI4eUt5PVCCCAAAJ1FFgd2xxbqNdfX3BV8+kDrOFk9ys9sWtcBZODAAIIILB3AS/UV05fPvRrjBBAAAEEEECgPIHsmYv2l+jWh1VkYnk7WY0AAgggUDcBlXu3bC90z7163Q5XNZ8+wMr2+e9SE6d3iHfVJDkIIIBA+wnYufF0ZqD95mIiBBBAAAEEaiuQ658zVQrR9SIyobaVSEcAAQQQqEIgZ4VJcxJXrNhWRcaztj7jG1hdn/dEP+oqmBwEEEAAgX0J2Efi6cyXMEIAAQQQQACB8gRyvf6R6skaMxlX3k5WI4AAAgjUS8DEHh1XlMOnXp55wlXNpw+w8smuy0z0XFfB5CCAAAII7F3ARC9MpIfegRECCCCAAAIIlCfwQLL7mHFit4tIpLydrEYAAQQQqJuAysjEcGJ8yuDtj7qq+fQBVq7Xv0lUTnIVTA4CCCCAwD4EzG6ID2ZOwQgBBBBAAAEEyhPYmPRPDkVuFJGnf5cpL4HVCCCAAAJ1ELCo6oypqaGcq1q7/9C3fonkC/5KEZnvKpgcBBBAAIF9HWDJxvhgEMMIAQQQQAABBMoTyJ/d/Xrz7NLydrEaAQQQQKDeAkWRF81MB39wVXf3Adaq/p7xhxTDVWIyx1UwOQgggAAC+xSwCdFJUw4ZWPEYTggggAACCCAwdoFc0v+UiHxi7DtYiQACCCDQCAFTOT+RCi5xVXv3Adb6/pn7RQqTMio6y1UwOQgggAACowho5AXx1KpbcEIAAQQQQACBsQtkk/6Aipwz9h2sRAABBBBohICq/r9YaugzrmrvPsDa1N8zuVgI7xaRaa6CyUEAAQQQGFXgzfF08KNRV7EAAQQQQAABBJ4WyCX9VSLSAwkCCCCAQNML/DCeDt7qqsvdB1h39x990P6F8feLyEGugslBAAEEEBhFQO2L8VTmozghgAACCCCAwNgErL9nfL4YbhcTb2w7WIUAAggg0CgBNbk+Nhic6qr+U5cQzj8kWigOi8hEV8HkIIAAAgiMJqAD8fTQuaOt4r8jgAACCCCAwJMCw/1dXV5BAzwQQAABBFpAwOSB+GBwhKtOdx9g3XPWMdP3jxayxicZrlzJQQABBEYVMJXfJ1LBi0ddyAIEEEAAAQQQ2C2Q6513hqj333AggAACCLSCgIWxhZlxulRCF90++Q2ss7oWRCO60kUgGQgggAACYxRw/InEGKuyDAEEEEAAgZYVGO713+epfL1lB6BxBBBAoMMEokU7cOrlmSdcjL37ACu3pPs1EtpVLgLJQAABBBAYs0DRCo8fmLgiu23MO1iIAAIIIIBABwvkkv6/i8iHOpiA0RFAAIGWEhiJevGjBlbnXTS9+wAr2+e/S02+7SKQDAQQQACBMgS88LXxZWu4FKIMMpYigAACCHSuQK7PXy4mZ3WuAJMjgAACrSWwywpzDh9cd7eLrncfYOX7uj9tZh93EUgGAggggMDYBcz0PxKDQ38/9h2sRAABBBBAoHMFcr3+KlHp6VwBJkcAAQRaS0CjsiA2ENzpouvdB1jDSf8HnshbXASSgQACCCBQjoAOxdND/EO8HDLWIoAAAgh0pICJaD7pbxeRCR0JwNAIIIBACwoUtXDyzNS6m1y0/uQ3sJL+NSbySheBZCCAAAIIlCXwUCTqHTVtYPWWsnaxGAEEEEAAgQ4TyPb6i1Tl1g4bm3ERQACBlhYomveKmYOrr3UxxJM3cU92rRbRbheBZCCAAAIIlCGgsrWwM+yadeWa4TJ2sRQBBBBAAIGOE8j2dX1QTb/acYMzMAIIINDCAhrKWbHlwRUuRvi/b2A9ZiIHuggkAwEEEECgLAHzPDtu+rLMHWXtYjECCCCAAAIdJpDr9S8XlTM7bGzGRQABBFpaQEXfEEsPXepiCLXFi6P5KfldLsLIQAABBBAoX8BU/z6RGvqP8neyAwEEEEAAgc4QKP3OkpuSv1NF/M6YmCkRQACB9hAwlXcnUsF3XEyjD57VdUAhoo+7CCMDAQQQQKB8ARP5VSIdvKr8nexAAAEEEECgMwTyr1owySbtLD2GfXpnTMyUCCCAQLsI2D/F05kvuJhG88nZ00zGbXQRRgYCCCCAQEUCuwrRLQfNGthQerISLwQQQAABBBB4jkD2zHmHadQr3S9yPDgIIIAAAq0joCKfj6WDf3bRsWb7uo9Qs/tchJGBAAIIIFCZgJmckBgMVlS2m10IIIAAAgi0t0BuybzXSOhd1d5TMh0CCCDQfgKq8p1YKni3i8k0u2Ser6E35CKMDAQQQACBCgVU3hJPBRdVuJttCCCAAAIItLVANtl9sYpd0NZDMhwCCCDQjgKql8VTQ+e5GE2Hz+o53ouEf3IRRgYCCCCAQIUCGn49nlrzgQp3sw0BBBBAAIG2Fbh10aJxM2ZteUhUeWp6277LDIYAAu0qYCr/k0gFr3Yxnw6f7b/I8+RGF2FkIIAAAghUKqB/jKeHTqp0N/sQQAABBBBoV4H7++YePd4ipRu480IAAQQQaDUBk5vjg8ELXbSt+WTXaSZ6rYswMhBAAAEEKhXQQiSqU6YNrN5SaQL7EEAAAQQQaEeBjWd3vyL07FftOBszIYAAAu0vYEE8nel2MafmenvOEA3/20UYGQgggAAClQuEoZ43Y/nQZZUnsBMBBBBAAIH2E8gmu/9exb7SfpMxEQIIIND+AiY2nEhnZrqYVDf2zusN1Uu7CCMDAQQQQKByARX9SSw99MbKE9iJAAIIIIBA+wnkkv6VIvLa9puMiRBAAIH2F1Cxx2LpzMEuJtV8X/frzexSF2FkIIAAAghULmAiKxPp4LjKE9iJAAIIIIBAewlYv0TyBf9xEdm/vSZjGgQQQKBTBCyMpzMRF9Nqrs9/s5j80EUYGQgggAAC1Qjo5lh66FAVsWpS2IsAAggggEC7CDzQN/eUcRb5bbvMwxwIIIBAJwpYYdKkxBUrtlU7u+Z6/feJyterDWI/AggggED1AibhSxPpNb+rPokEBBBAAAEEWl9gOOl/yhP5ROtPwgQIIIBA5wqo7JoeS9+9qVoBzff5/2wm/1ZtEPsRQAABBKoXMAmvSqTXvK76JBIQQAABBBBofYFssutqFX1160/CBAgggEDnCnhanD09tfaeagU0n/Q/ayIfqzaI/QgggAACTgQsWrSDpl6eecJJGiEIIIAAAgi0sECu179fVA5v4RFoHQEEEOh4Ac+LLpy+7K47qoUo3cT9q2b2wWqD2I8AAggg4EagKOFxM9NrVrpJIwUBBBBAAIHWFFi/pHtuNLRARLzWnICuEUAAAQRKAkXVk2emhm6qVkNzye5vidi7qw1iPwIIIICAGwEV722x9OofuEkjBQEEEEAAgdYUyC3xvySh/GNrdk/XCCCAAAJPC0Tk1PgvguurFdFc0v+RiPxNtUHsRwABBBBwJWC/iaczL3eVRg4CCCCAAAKtJnDd4sVRf0r+ARGJt1rv9IsAAggg8BwBC18TH1xzdbUumkt2XSai51YbxH4EEEAAAWcCxR2qs45MDeWcJRKEAAIIIIBACwk82NcdL4itFZNJLdQ2rSKAAAII7EHARJYk0kGqWhwd7vUv91TOrDaI/QgggAACDgVM3hIfDC5ymEgUAggggAACLSOQS/ovE5HrRERbpmkaRQABBBDYo4CpnJ9IBZdUy6PZXv9XqvKKaoPYjwACCCDgTsBEfppIBxe4SyQJAQQQQACB1hHIJf3SvSDf0jod0ykCCCCAwN4E1OztscHM96sV0myy6wYVfUm1QexHAAEEEHAoYHJvfDA42mEiUQgggAACCLSEwNoz5kyYPDH6hIiMa4mGaRIBBBBAYJ8CocoHZqSCr1fLpLk+/xYxOaHaIPYjgAACCDgVsDCMvmTG8rt+7zSVMAQQQAABBJpc4KnLB6t+WlWTj0l7CCCAQCcJfDieDr5c7cCaT/q3m8jCaoPYjwACCCDgVsBEUvF0cI6KmNtk0hBAAAEEEGhegVyf/8k//823tHk7pDMEEEAAgXIE1ORjscHgc+Xs2dNazSW7V4tYd7VB7EcAAQQQcC6Q08nj58YuvmOr82QCEUAAAQQQaFKBXK9/k6ic1KTt0RYCCCCAQPkCn4yng38tf9uzd2i+t3utqc2pNoj9CCCAAAJuBVSksEOLXUek1t7jNpk0BBBAAAEEmlPg4bOPmbXLK9xrIpHm7JCuEEAAAQTKFTCxzybSmY+Xu++56zWX9O8TkSOqDWI/AggggIB7ARP9WiI99EH3ySQigAACCCDQfAK5pP8pEflE83VGRwgggAACFQuYfTE+mPloxfuf2lg6wMqKSLzaIPYjgAACCNREYOf4/QtTD/3pusdrkk4oAggggAACTSJgIqX7894iIouapCXaQAABBBBwIKAiX42lgw9VG1U6wHpQRA6rNoj9CCCAAAK1ETBPXp1YFvxPbdJJRQABBBBAoDkEVvX3jD+kEJZ+NzmwOTqiCwQQQAABJwIq34ingvdXm6X5ZNejJnpQtUHsRwABBBComcA34+ngfTVLJxgBBBBAAIEmEMgnu95qot9vglZoAQEEEEDAoYCZfDcxGLyr2sjSN7CeEJHJ1QaxHwEEEECgZgKbRg4aOeKoi+4bqVkFghFAAAEEEGigwK3vXDQu8eDWe1VkRgPboDQCCCCAQA0EVOzCWDrzjmqjSwdYpcez719tEPsRQAABBGon4IldMD2d+WntKpCMAAIIIIBA4wRyZ8/vEa+4qnEdUBkBBBBAoHYC+oN4euht1eZrNulvV5GJ1QaxHwEEEECgdgIqck0sHZxeuwokI4AAAggg0DiBbNJ/h4p8t3EdUBkBBBBAoGYCJhfFB4O3VJtf+gZW6ZKUCdUGsR8BBBBAoHYCJvZofHN8ql5/faF2VUhGAAEEEECgMQK5pL9SRBY0pjpVEUAAAQRqKWAiP06kgzdVW6P0qNqdJjKu2iD2I4AAAgjUVsBMP5gYHPpabauQjgACCCCAQH0F1i/pOSkahjfVtyrVEEAAAQTqJmB6cXxw6G+qrVc6wNplItFqg9iPAAIIIFBzgce2jBSmz7163Y6aV6IAAggggAACdRLIJv2vqcgH6lSOMggggAACdRZQ0Z/E0kNvrLas5nr9UFS02iD2I4AAAgjUVkBFigUJF81MryldZsELAQQQQACBthDIJbtWi2h3WwzDEAgggAACzxMwkZ8m0sEF1dKU7oFl1YawHwEEEECgPgKh2X/NGMy8tz7VqIIAAggggEBtBYbP8V/kFeV3InygXltp0hFAAIHGCZjJJYnB4PxqO+AbWNUKsh8BBBCoo4CKFETGz4il79hUx7KUQgABBBBAwLmALRUvv9K/VkQWOw8nEAEEEECgaQQcfgOrqyCikaaZjEYQQAABBPYtYPL++GDwDZgQQAABBBBoZYFc/5ypWoiuNZGDWnkOekcAAQQQGO3XF/1JwsU9sHgKIT9qCCCAQKsJ6O/i6aGXtlrX9IsAAggggMAzBXJ9/pvF5AdcPsjPBQIIINDmAq6eQphL+iMiMqHNuRgPAQQQaB8BExMvclI8teqW9hmKSRBAAAEEOknAzpgzIT8xslZEZ3XS3MyKAAIIdKKAifw4kQ7eVO3spZu4bxOR/aoNYj8CCCCAQP0EVOXX01PBq1SEB3HUj51KCCCAAAKOBDb0znt5RL1fO4ojBgEEEECgmQVMLooPBm+ptsXSAdZWEdm/2iD2I4AAAgjUT0BFH/WiOmvawOot9atKJQQQQAABBNwI5JLd3xext7pJIwUBBBBAoLkF9Afx9NDbqu2xdID1hIhMrjaI/QgggAAC9RUwk48lBoPP1bcq1RBAAAEEEKhO4N7+ntjEQriW30Gqc2Q3Aggg0CoCJnZhIp15R7X9aj7ZtdlED642iP0IIIAAAnUX2FWIRmKzBlY9UvfKFEQAAQQQQKBCgWzS/6yKfKzC7WxDAAEEEGgxARX5TiwdvLvatjXX17VJTKdWG8R+BBBAAIH6C6jqebHU0GX1r0xFBBBAAAEEKhPIJv0hFfEr280uBBBAAIGWE1D5RjwVvL/avkuXEGZFJF5tEPsRQAABBBohYHfG0pmF3My9EfbURAABBBAoV2BDcv5pESn+SkS8cveyHgEEEECgNQVM5KuJdPCharsvHWDdJyJHVBvEfgQQQACBxgiYaTIxODTYmOpURQABBBBAYGwCa8+YM2HyxHGrRGz22HawCgEEEECgHQQ8sS9MT2f+qdpZNNfrrxWVOdUGsR8BBBBAoDECKnJNLB2c3pjqVEUAAQQQQGBsAsN93X/lmd3Ct6/G5sUqBBBAoF0EVO0zsVTm/1U7j2aT3atVrLvaIPYjgAACCDRMoGCqcxKpofsb1gGFEUAAAQQQGEUgm/R/pCJ/AxQCCCCAQMcJfDKeDv612qk1m/RvV5GF1QaxHwEEEECgcQIm9rt4NLNYB6TYuC6ojAACCCCAwJ4Fssm53SqRO0QkihECCCCAQGcJmMnHEoPB56qdWnPJrj+K6InVBrEfAQQQQKCBAiojEdUF05YNrW1gF5RGAAEEEEBgjwL5vq6vmukH4UEAAQQQ6DwBz+Qfpw8G/17t5KUDrP8V0ZdWG8R+BBBAAIHGCoRiP5iRzrytsV1QHQEEEEAAgWcL2DsXjcs/uDUvIodggwACCCDQiQL6vnh66JvVTl66hPAaFXlltUHsRwABBBBotIAVNdTjY8uDOxvdCfURQAABBBD4P4GNSf9Locg/IoIAAggg0JkCodnbZwxmvl/t9JpL+stF5Kxqg9iPAAIIINAEAmr/FU9l3tsEndACAggggAACkn/Vgkk2aWfp8vY4HAgggAACnSlgKucnUsEl1U6vw8muyzzRc6sNYj8CCCCAQFMIjIzXwtxDU+s2NEU3NIEAAggg0NEC+WTXW0206k/dOxqR4RFAAIEWFzAN+xKpNelqxyh9A+siEXlTtUHsRwABBBBoDgFVG4ylMsnm6IYuEEAAAQQ6VeD+vz52yoSRXRvNZFynGjA3AggggICIWPia+OCaq6u10Gyy61sq+u5qg9iPAAIIINAcAiryWKRos6ZennmiOTqiCwQQQACBThTIJrveraLf6sTZmRkBBBBA4BkCETk1/ovg+mpNSjdx/8qff9n5+2qD2I8AAggg0DwCJrr8d9GhJecOSLF5uqITBBBAAIFOEXjq3ld3iciRnTIzcyKAAAII7Fmg4HkvnLVs9c3V+mg+2f0ZE/uXaoPYjwACCCDQXAKRqHf8tIHVtzdXV3SDAAIIINAJAsPJ7o96Yp/vhFmZEQEEEEBg3wIaygIXT0rXfHLeP5l4nwMcAQQQQKC9BMxsWWIwc057TcU0CCCAAAKtIJBL+neLyNGt0Cs9IoAAAgjUVkCjdnRsIHNvtVU0l+x+r4h9o9og9iOAAAIINJ2AidrL46nMdU3XGQ0hgAACCLStQL7X/2dT+be2HZDBEEAAAQTKE4gWpsUH1j1Y3qbnry49hbD0BMLSkwh5IYAAAgi0mYCKXBNLB6e32ViMgwACCCDQpAK5/jlTpRC9R0QmN2mLtIUAAgggUGeBQnTK/rMG/rC92rKa6+06V1QvqzaI/QgggAACzSkQir5qRnroV83ZHV0hgAACCLSTQK7P/wcx+XI7zcQsCCCAAALVCFgxns5Eq0n4v72a7Z3Xq+qlXYSRgQACCCDQjAJ2txUmL0hcsWJbM3ZHTwgggAAC7SGwqX/+nGKhuFJE9m+PiZgCAQQQQKBaARV7NJbOTKk2p7RfNyW7Xl0UvdpFGBkIIIAAAk0pYKb6pkRq6OKm7I6mEEAAAQTaQmA46X/DE3lvWwzDEO0iUBCRnRyqtsvbyRytKGBiGxLpzCwXvWuur+tUMf2NizAyEECgMgET/baIPapmJ4rqUSJywFP/m1hZIrsQeLaAquwS2zUzlr57EzYIIIAAAgi4Fsj3dx1lBc2IyDjX2eQhMAYBE5GtKvKEiTz854fY3KCqVz+6y64/0NOUqrxiDBksQQCBmgjYUDyd6XERrRuT/smhyO9dhJGBAAIVCqj9VzyV2f2J5a2LFo2bcvTm/Q8sTth/q0h8vNirReS1anJy6VuTFVZgGwIial+IpzL/BAUCCCCAAAIuBUxE88muX4voaS5zyUJgFAFTkZsKKleKRa6KykjOi07YNnX+6m26VMLS3vX9Mw+JFiZtEtEImggg0DCBm+LpoPS7bNUv3dDbc1xEw9uqTiIAAQQqFlCRe6angzkqUvr0aI+v9f0n7xfufPyo8ZHwKDWZF6otklBOVJV5FRdmY2cJqGzViJwcGwju7KzBmRYBBBBAoJYCG5LzF3pSvFlFJtSyDtkdKqASSihrTe1Wz5NbrGhrwnF6z6MSuXf+wOrS5YF7fWWTfp+KLOtQOcZGoCkETOSXiXRwhotmdLi/q8sraOAijAwEEKhcIJTiq2ak15b9pLgH+7rjO01e5ln40j8/UbRbRGaIyuFiwuWHlb8dbbtTRa6JpYPT23ZABkMAAQQQqKvApv6eycVCcUhEZ9a1MMXaTkBVQgvlEVPZqCL3hSq3ihVvHF/0bpp6eeaJSgbO9flfF5P3VbKXPQgg4Ezg0ng6eIOLNH2kf/7hOwrF+12EkYEAAlUImN0QG8y8bF/fwionff2SnpMiYfh6NXmj6O57apUeXcrXp8tBbM+1pp53cmzZ6pvbczymQgABBBCop0C+13+DqVxSz5rUaguB0iV+u2+wriK3mIa/2DV+++Dhl67Pupwun+y+zcSOc5lJFgIIlCmg9q14KvO3Ze7a43LN9c+ZKoUoN/V1oUkGAtUJPDR+/8LsQ3+67vHqYp69e6mI967+OYdqYdz0ooZHq8lpanqaqBzrsg5ZLSWwab/9xvkHX3Ln5pbqmmYRQAABBJpK4LH++YdsKxRLV3JMbarGaKZZBVaJynUW2s2h2p1hUR+cNSHykI5yGWClw2TPPPpwLzr+bnvyQ1xeCCDQIAFV+VwsFXzMRXl98mu/YUVfyXTRABkIIPC0gImFr40Prrm6Hiab+ntixV2F49XzjgtDOUY9OUZM5vMtrXroN76GmXwsMRh8rvGd0AECCCCAQKsK5JP+10zkA63aP33XRMBE7EETyajJnSa6MqJyp1e0uyq9DLDSLvN9/mdL/96pdD/7EEDAkYDaR+OpzBddpOl1ixdH/Sn50s3veLqZC1EyEKhGwOS22HHBCf/35JRqoirZW7pR/Pjw0dOLxfB1f3708EmqMsVMDhXhflqVeDb1HhMrmCyctZwbujf1+0RzCCCAQJMKbO7rPmLEbLWI7N+kLdJW7QVGVOQRE3lYRG8zC3+10/OuPTI1lKt96X1XKD3VO3H41lUqMrfRvVAfgU4XMJN3JQaD77pw2H1olU92bTbRg10EkoEAAlUKRAvz4wPrSv8gbOjr5/0SecnIognFiSMTtbDzRZ5EzlORs0VkckMbo7hLgSvj6eBMl4FkIYAAAgi0v8Cq/p7xhxTsdhErPTyGV+cImIndoaLLo0W7Yltx/N3jvPE74hOP3qEDA8VmYsieOe8wjXr38u/WZnpX6KVTBVT1vFhq6DIX8z91gOXfaSLHuAgkAwEEqhQweX98MPhGlSk12W79/ZGcrJ6hxcJsKXrdFrFT1eTFIhKvSUFCay0Qiuhb4umhH9e6EPkIIIAAAu0jkOubf45Y8VJuO9A+7+lzJ1GVvIncoiJ/EJM7JSr3jxtfuN/1vVprJZhb4r9JQrmoVvnkIoDA2AVU5MxYOrhy7Dv2vnL3AVau1/+lqPBYdReiZCBQrYDKLbFUcJKrpxFW285o+23pUi+/asC3QuEUFX2hic5WsdkiEuPS5NH0Gv/fVSQ3Pjqp+5CBFY81vhs6QAABBBBodoH1r5s3IzrOK31T/MBm75X+xiSwRUTuK/3PTO70ot7NI6H9sRkuAxxT93tYZP0Sye/qWiWqXZVmsA8BBNwJqNjLY+mTe4MUAAAgAElEQVTMb1wk7j7Ayia7v6dib3cRSAYCCFQvELHi8dMG195efVLjEobPnj1LvOh5nsk5pt48EZuoIhM41Grce7K3ymbys/hxwQWNuvda84nQEQIIIIDA3gRyvf5/isr7EWo5gdIlfjtEZLuY3Wue90tTTc1Ytvq2lptklIZz/fN7pFBc1W5zMQ8CrSpQCIsvnLV87c0u+t99gDXcN2+pZ94nXQSSgQACDgRMvxUfHPpbB0kNjzARXXfGnAMm7TduStS8WUXd9XI17TPRYznMavjb83QDXkROn/6L4Jrm6YhOEEAAAQSaTSB7jv8qLUrpMpBxzdYb/exBwGSjiVwbqlwTFV0RKYaPjEzYunnWwIbt7eyV7fXfqSrfaecZmQ2BVhJQ0WNj6aG7XPT85D2w+rreZqYXuggkAwEEXAjoUDw91OMiqVkz1iVnT5tokWOjnh4bivyVmi4SkdLNYHkiagPeNDPJ7JCRFx41eN+jDShPSQQQQACBJhcofSCVT/p3CPfNbcZ3arOI3CEqd5rZKhUd8orRYNrld21qlVtSuETNJf3SpUqnuswkCwEEKhfYqcXZR6TW3lN5wl92PnkJ4RL/dA3lly4CyUAAAScCNk6i8w9L3zXkJK1FQh4+Y86BOydFTpeinrH7H8gqcTGZJiLjW2SEFm9Tvx1PD72nxYegfQQQQAABxwJLl4r3rpV+6WqNTziOJq4MARPZqSKbTOwhNVljGrluXDF63dTL78iUEdPWSzf2zpkdanRdWw/JcAi0mMD2YjR29OV3bXTR9u4DrIeX9MzfGYZOvtLloikyEECgJBDeEE+vOaVTLUqf9K5YtCh61LTofiP7bT5DzTtXRc4SkWinmtR+bisWPPmrWcsypU/YeSGAAAIIILBbIJ/sPsbEVoqIB0ndBR4ysUET7+c7N2+/4Ug5siCLrw+5b+We34dc0v+SiPxj3d8lCiKAwF4FIlHvgGkDq0sPjKj69eQlhMnZ00zG5fhLqWpPAhBwKbA9qjp7amqo9P9NXiJy75uPnBh9Yr9ZXkGO8DxZZGKnqcmLRWUSQG4ETGW4GIksmDWw6hE3iaQggAACCLSywPr+k/eLFDb/QUUWtvIczd67iTyiIr9XkRs9sdt3hDos4yPDMwdWbe7EywArfb/yye7b/nzgd1yl+9mHAAJuBVSkMH1hMMHVofvuA6xHX3vslO3jdw2LyH5u2yUNAQSqELCieK+fmV49UEVG229de8acCZMmR4+JFvSFodjJ9uR9tHwR2b/th6/RgCr2tW8vzHxo6VIJa1SCWAQQQACBFhEY7vWXeio87Mnd+1W6gXrpXjB3i8g6EV0p0V233iDHZ84dGCg9KZBXhQIPnz9n5s5t0ZItDxmo0JBtCLgWUJF7YulgtqvcJy8hPH/Ogbu2jbvfxA52FUwOAgg4EDC9LXbc0AmuTqwddNQSEbZUvOxd/gu1KK9X09eI2hQROYB7aY397QvF652RXr187DtYiQACCCDQbgL5M7uOsqisElE+5C7zzVWRools+/PlbFtMbJOKd41p4cr4srU3qIqVGcfyMQhkk10Xq+gFY1jKEgQQqJeA2bXxwcwrXJV78hLCNy6YZFt2lj4FmO4qmBwEEHAjULDwpFmDa/7oJq3zUqy/P/LAuODA8dt2HSQR7wVStCWm4ZnKP8b3+cOgYsMyeUJX7OI7tnbeTw0TI4AAAgiULtuf+NjEFSLS1k9FdvpOm2wW1V+rhL8sFuXGqIx7tGgTnkhcsaJ0kMWrhgLr++cfEt1VfIDbStQQmWgEKhAw0QsT6aF3VLB1j1t2H2DZm4+cmH98YkZMDncVTA4CCDgSMPtifDDzUUdpxIjIdYsXR+dOyR/teWGPFPUY8fTFanKCiBwG0DMEVK6IpYKzufcGPxUIIIBA5wnkkt2fF7GPiMju3xd4PfPvRxsR07WisuLPD5j5k6qsESuunRY57n7lMsCG/Kjk+rpOVdNfGw8aaIg/RRHYm4BZ+LHE4JrPuRJ68gDrnYvG5R7cukpF5roKJgcBBBwJmKwLHo11n3r99QVHicTsQcAWL45uOHTTokix+EpVfbGIHiFis0RkcqeClS5/8NTOm5bK/KJTDZgbAQQQ6ESBfLLrNBO9thNnf+bMKlYU0byp5MzkARG5US383fD6A247YcWKXZ3u00zzZ/u6rtp92wheCCDQVAIq+oZYeuhSV009eYC1VLz8Sr/0aNxjXAWTgwACLgXs3Hg6w83cXZKOIctENLtkznGeRd8qJn8tIqX7BJb+3OyoT6OjUfOnDmQyYyBjCQIIIIBAiwus6u8Zf0jB1j31IU6LT1NW+6YioahsCUWuMpUrt20rpOZevW5HWSksrrvA8FldXV5Eg7oXpiACCIwqsEvDFxyeWnPLqAvHuODpX8JySf/3InLyGPexDAEE6iigKr+fviB4KTdzryP6c0pZv0TW7+iaHvU0rp4cK2KvNpPTVbQTHn7xp5GDRl581EX3jTTuHaAyAggggEA9BPJ9/k/M5Px61GpwjdLTAEv3GP2t58nvLdThLbJz0+yFdz/Ev7ca/M6UWT7b2/VxVf10mdtYjgACtRcwrxiNT7/8ro2uSj3zAOtnInKeq2ByEEDAqcATO3eOO+KIq+7c7DSVsKoEdn9Dq79rnu6SE9XTk8xkQembrCpySFXBTbhZTb4eGww+0ISt0RICCCCAgCOBfK//BvHkR2YyzlFkM8SYlB5MorpSTIZE5K6iFVfauO2ZWQMbSodYvFpcIN/nr3zq32AtPgntI9BeAiYyssMmxo8avP1RV5M9fYCVTXZ/RsX+xVUwOQgg4FbAVD6XSAUfc5tKmmuB0s1Ds0t6Fnph2Fv6lpaIJuTJA639Xdeqc17oib56enroV3WuSzkEEEAAgToIrF/SPTca2h0iMrEO5WpZYpuJPOKpbAhFLg9Nls1MB2tqWZDsxglk+7pPUbPfNq4DKiOAwD4ENkeLdsTUyzNPuFJ6+gBruK/7bZ7Zha6CyUEAAecChUI0Mn3WwKpHnCcTWBOBpUvFe+eKRRMnT35i/6079FgxOVdE+0RkWk0K1j70EYkW/PjAugdrX4oKCCCAAAL1Eth936td4W2i0lOvmm7r2GMmMhCK/MwrlA7hDtgWv2LFdp6i61a52dJK34TP9fnXqMkrmq03+kEAgd03Dc6GhUlzE1es2ObK4y+XEPZ1nSqmv3EVTA4CCLgXUE/Oii0LrnCfTGK9BEoPzcjedswML7JrjqeeX7TwZDUpPfXwqFa4ObyJrJiwf+G0Q3+67vF6mVEHAQQQQKC2Atmk/+8q8qHaVnGW/oio3Cjm/a+F4Z3eeFszfX7mfu5b5cy3ZYKyZy7aX6Nb7xeRw1qmaRpFoLME7tkyUuhx+TCMv1xC2Nd9hJrd11meTItAawmY2C8T6cwZrdU13Y5FYH3/vBleIfJSFXmZivkicpSIzRTRyFj213ONiXw1ng7+gU+266lOLQQQQKA2Arm+rnPU9FITabq/b0TscRW911TWicgfQtHrEpFjVurAQLE2GqS2ksCGZNe7I6LfaqWe6RWBDhNYFWyOHXfq9dcXXM399AFW6VsBG1d27bQm/GXJ1bDkINAOAhHzjp82uPr2dpiFGfYtkH/Vgkk6aUdvUbx+ETtFd9+XxMY3xaFWRN8U/8XQj3kPEUAAAQRaV+CR/qMPGimMv6cJHj5iIlIQlZ1ilg9FUqLepYnU0G18WNK6P1+17Lz07SsvuvVRk7Z64EAtychGoP4CKrfGUsELXP45/vQBVmmafNLfaK17b5b6vyFURKABAiZ2YSKdeUcDSlOygQL2zkXjHty8/dBiKIeKFbtN9JWeyatM5MhGtGUim6PRA3qmDdySb0R9aiKAAAIIVCfw8PlzDty5LXqbiBxdXVLFu0uHVqtCtf+OSvgr1ej92ydEHzr8kjsfdfnLTsXdsbGpBTYlu15dFL26qZukOQQ6XMDMBhODmaRLhmcdYOX6/LvEZL7LAmQhgIBzgXws6h2hA6t3Ok8msOUE7uvrjo8zOSYickyo5nu7/wy3+SZ6cB2G2aCya1EsffemOtSiBAIIIICAI4HSza/zfd3fFLP3OIocLab0b5a1IrpCLfyTia4sqtw5Mx08PNpG/jsCexLIJf0rReS16CCAQPMKhCJfnpEOPuyyw+ceYP1GTE51WYAsBBCoicCH4+ngyzVJJrTlBUrf1so+tOUFXqivEJWXiUjiqRucThERz+WAJpIqRrdcMGtgw3aXuWQhgAACCNROIN/X836z8D9rVGFEVDaVLgUUkxXieVeNHLj92qMuum+kRvWI7TCB9Wf7x0Y9uaPDxmZcBFpOwDx5Z2JZ8D2XjT/7AKv3/7N35/Fy1vXd/z/fa+ZkZwmaZGaSAJJl5iQhQQKicFND3Yo24cyEY3GHolixeLvct1q09lhcWrUutztVxFLEesjMSUQR6a+kakWBCFnPTFYgycycJBKWBJKcmevzc5BSlpBz5pxrv175l+v6LM/vJT7yZuaa7A/FmL9wsgG1EEDAFYG6NibOcvInSV2ZkqK+C7T+K/uaKxYnF+8fk9zT3JdumuRSY2vro7zniUjSiQGNkc+kiuWPOVGLGggggAAC7grsXpbNmoRZa0TGOtZJ5UE1cnMiKTcbsdY/cuDI4I3nbB3s6RHbsR4UQuApgWo++89GzDsBQQCBYAs0VC6Y2Vde7eSUz30H1ldU5H1ONqAWAgi4IaBNY9nnpVZs+a0b1akZfYEdl546bsKjHRlbEzONWLNssV9uRF4uIgtE5Fn/3zCkhpFDTZW/mlEqf3/Ia7kAAQQQQMA3gXp+4VSVI60fgkmPZAgj8piKuUvE/JcxzTUN235QTGInXwUciSb3jERAe3qs+tof7nzq0+UjKcE9CCDgkUCyqdOnrKpUnWz37ACrkLtaVT7tZANqIYCASwJG7kgtLL/a8F83XQKOZ9nWLx/ak55YbEnyTFV9qYrMEpFTzR//snOsrx8+0hT7lTNKm9fGU46tEUAAgWALPPCG0yd3jBn8sfnjJ3CH+tP6yfNdIrJdn3x3laxJiH3XzgeP23TWmjWDQ93MP0fALYHdhdxVlopbX391a2zqIhA/ASOHUivKE4yR1g92OPbn2V8hzGcvEzHXOVadQggg4K5A0j4n3bv5LnebUB0BkdbPVdsdj1+QFF2m+uR7tV4sIuONkXGqTwdbh217cM70ldta/2WUPwgggAACARHQHrEG1uW+oSrvfs5Irb9YHFKRJ/746Sr9pTGyMtmQ26asqjwWkPEZA4EnBXZ2zxifbBy3Q0SnQYIAAoEXeCBdKjv+a+nPCrCqy7J/ZhL8HGngHwUGROBpAf1WulTx6heEcEfgSYHWX4Qe2jJ70hNPyPFJ7TixaexzLGO9Tmz9U1HZ8VCHdd58fiWTpwUBBBAIjECtK/d3YuQTT32StiGqdxrL3NoUc5s0E3sPjXn80dPmb3+MT3UH5sgY5CgC1eXZs4xtfiMiCYAQQCDoAuaudKn/HKenfFaAtSs/d1FCrNb34vmDAAIhEGj919LBpN05s3fz7hCMy4gxEKh2zz958HHrsVN+sn5/DNZlRQQQQCDwArrk1HF7Jo+9dFBM6yuBm7fsT22/YPXq1lcE+YNAaARa//Gsti73C6PD+gpsaPZiUAQiK2Dkx+lieZnT+z0rwHo0n3vRQZF9TjehHgIIuCig5pvpvv4rXexAaQQQQAABBBBAAAEEfBMYKGTPs9X8yrcBaIwAAm0JqJFrM8Xyc7+23laNo138vF+aquVzre+7Txp1ZQoggIBXAtV0qTzdq2b0QQABBBBAAAEEEEDAS4FqV+d3jNHLvexJLwQQGLmApdIzra/8yZFXOPqdRwuwWi+EPtvpRtRDAAH3BGxLrpq+ovw19zpQGQEEEEAAAQQQQAAB7wUeXJbNdCRM69cwJ3jfnY4IIDASAaPmnam+/u+O5N5j3fO8AKua77zBiL7V6UbUQwABFwWMHBpnj0tP7rvvYRe7UBoBBBBAAAEEEEAAAU8Fql25bxsjV3jalGYIIDAqARW9MFOq/GxURY5y8/MCrHohd7WqfNrpRtRDAAF3BVTtfKZvc5+7XaiOAAIIIIAAAggggIA3Avdcsbhj+t6DD4pIypuOdEEAAScEGklZOLO3vN6JWs+s8bwAayCfK9giK5xuRD0EEHBd4P5fJk+f/cbe3qbrnWiAAAIIIIAAAggggIDLAtVC58eN6jUut6E8Agg4LHDkSMdJbvwq+VE+gdX5clX9tYg87585vBPlEEDAaQGVy9J95eudLks9BBBAAAEEEEAAAQS8FKjnZ021pWOnERnjZV96IYDA6ASM6MPTSpWTjIiOrtLz737+S9wvmj/PWM11KpJwuhn1EEDAZQEjv00Vy69w418WLk9OeQQQQAABBBBAAAEEnhaoFXKXisr3IEEAgXAJqMqvM33l89yY+nkB1q7C7BkJTe4QkaQbDamJAALuCtgJ7Zp+c2Wlu12ojgACCCCAAAIIIICAOwJ6xeKO+t6DO0VkmjsdqIoAAm4JqJFvZ4rlv3Kj/vMCrL3LsscNJsw+PqrpBjc1EfBEoHzgUOOMObduPexJN5oggAACCCCAAAIIIOCgQK0r99di5KsOlqQUAgh4JmD+Ol3q/7ob7Z4XYPX0iPXutbm9InKSGw2piQAC7goYMQ1LrAumljb+yt1OVEcAAQQQQAABBBBAwFkBFTH1fG6diCxwtjLVEEDAC4Gm2q+e0bf5/3Oj11Ff1F7N535uRF7jRkNqIoCA+wJGzLZpSTPP9G464n43OiCAAAIIIIAAAggg4IzA7vy8yyyxr3OmGlUQQMBjAdsS+8xppc1r3eh71ACrlp/3SRH7E240pCYCCHgjYESWpkrlW7zpRhcEEEAAAQQQQAABBEYnUF26eIJJHtwkIqeMrhJ3I4CAHwLGyKAkNJvqrbTeq+74n6MHWF1zLxRj/dTxbhREAAHvBIzekypWzjEitndN6YQAAggggAACCCCAwMgE6vncn4tIn4okRlaBuxBAwGeBwxNFph9fKv/ejTmOGmDt7J5/UrLR3CciR/3nbgxCTQQQcEHAyGXpYvl6FypTEgEEEEAAAQQQQAABxwS2vGX28cc9niyrSNqxohRCAAFvBVQOPtRhnTTfpVfZvGBAVcvnHhaRE7zdlm4IIOCwwPpUqbzIiKjDdSmHAAIIIIAAAggggIBjAgOFzrfZqv/iWEEKIYCA9wKq96T7Kme71fgYAVbnVhGd5VZj6iKAgCcCKkb+kk9heWJNEwQQQAABBBBAAIERCGhPj1Vf+8N+EZk7gtu5BQEEAiKgIl/KlMofdGucFw6wCrnfiMo5bjWmLgIIeCOgog83k8lZM3s3PuRNR7oggAACCCCAAAIIIDB8gWoh+36j5kvDv4MrEUAgiAJq7EKmuLnk1mwvGGDVC7lVqrLUrcbURQAB7wRsY941vdj/He860gkBBBBAAAEEEEAAgaEFtEf+8OmrXOuXB7NDX80VCCAQYAGV5Php6d5797o147E+gfUFUfmQW42piwAC3gmoyJEJRx5PnfiTB/d715VOCCCAAAIIIIAAAggcW6DWlftrMfJVnBBAIPQCj6ZLZVffo36sAOtSUfle6AlZAAEE/iigek26r/IJOBBAAAEEEEAAAQQQCILA9mULpo1PNLaIyHFBmIcZEEBgNAJmW7rUP3s0FYa69wUDrN2FzjMt1TVDFeCfI4BAaAR+nzTm9CnF/lpoJmZQBBBAAAEEEEAAgcgK1ArzPiRqfyGyC7IYAnESMPLbdLH8cjdXfsEAa2P3vDEvauhBFU26OQC1EUDAU4FbUqXyMiOinnalGQIIIIAAAggggAACzxDYe0k20zxsHlAR/r7Jk4FABASMmJWpUn+Xm6u8YIDValrL5yr8lKmb/NRGwGMBI4ea0pgzo7h1l8edaYcAAggggAACCCCAwNMC1Xzui0bkA5AggEA0BIyRz6aK5avd3OaYAVa90FlSVVcTNDeXozYCCBxFQOXeA4cbr5hz69bD+CCAAAIIIIAAAggg4LXA7ksWzEwcbqxXEVdf+Oz1XvRDIM4CtrEvmV7c/G9uGhwzwKrmc581Ih91cwBqI4CA9wKqJp/p6+/zvjMdEUAAAQQQQAABBOIsoD1iDdyX61MjS+PswO4IRE3ATmpuem+l9S0+1/4M8RXC7GUi5jrXulMYAQT8Erg/tag8y/SI7dcA9EUAAQQQQAABBBCIn8Ce7nmpRsN+wIiMid/2bIxAZAUOpUrlCW6/a/mYAdZAofPVturtkSVmMQRiLGCMfCxVLH8mxgSsjgACCCCAAAIIIOChgF6xuKO+9+C9IjLfw7a0QgABlwVU5d5MX/lMl9vIMQOs3d3ZrNUwZbeHoD4CCPghYHbuOdjRuejn6w760Z2eCCCAAAIIIIAAAvES2J3PXmSJ4TUW8Tp2to2BgIrcmCmV3+r2qsd+B9bSxROs5MFHVSTh9iDURwAB7wVU9F/Tiyrv4KuE3tvTEQEEEEAAAQQQiJPAlgtnj500LrmGT1/F6dTZNS4CqnJ1pq/8Wbf3PWaA1Wpez3feq6JnuD0I9RFAwHsBFTnSIXL6lFJ5s/fd6YgAAggggAACCCAQF4FaV+eHxeg/xmVf9kQgTgIJo91Ti5Wb3d55yACrms990Yh8wO1BqI8AAv4IqMjvDp9w6LyXXH//IX8moCsCCCCAAAIIIIBAlAX0wtlja+OSW43IjCjvyW4IxFZA7XPSfZvvcnv/IQOs+vLcUrVllduDUB8BBPwTULGvyJQ2/7N/E9AZAQQQQAABBBBAIIoC2iNWfV3uu6JyaRT3YycEEBCxmsnUtFUbBty2GDLAeqh7/slHGs1tKpJ0exjqI4CAXwK6p5E86dSZvXc+4dcE9EUAAQQQQAABBBCInsCe7vmzG43mBiMyNnrbsRECCKjow5lSZbIXEkMGWNWlc19sJa2tKnKCFwPRAwEEfBIw5oZ0sf/tPnWnLQIIIIAAAggggEDEBFTE1PLZ/zRizo/YaqyDAAJPCahIMVMqL/cCZBgB1pO/RLhFRTJeDEQPBBDwTeCAZZqLphW3bPdtAhojgAACCCCAAAIIREagls92i5gfRWYhFkEAgecJ2JZcNX1F+Wte0AwZYLVS83o+t05EFngxED0QQMBHAZUdjY4D82f27uKrhD4eA60RQAABBBBAAIGwC+zsnjE+2ZjUeqkzf48M+2EyPwIvLKAm2bEo1bt+vRdIQwZYrSFq+VwrTXuvFwPRAwEE/BVoWtZfzFixif9S5u8x0B0BBBBAAAEEEAi1QC2f+ycR+WCol2B4BBA4toDKQctOzvLiBe6tQYYVYO2+OHuR1TR9nB0CCMRCYJ8mE4szvRsfjMW2LIkAAggggAACCCDgqMC27tNOmNAYs0NEPHmxs6PDUwwBBNoRGEg2dc6UVZXH2rlppNcOK8Da0XXqiePMuH0ikhhpI+5DAIHwCKjIjZlS+a3hmZhJEUAAAQQQQAABBIIgsLF73pjJDft2I/InQZiHGRBAwFWBSipZnm96pelql6eKDyvAal1b7co+aIyZ6cVQ9EAAAd8FtGn0VTOKlTt8n4QBEEAAAQQQQAABBEIjMHBx7rV2U24LzcAMigACIxbw+oMPww6wavlc6y+yS0a8GTcigECoBFR0Z0dT5nv1cdBQ4TAsAggggAACCCCAwPME/vji9okVET74wOOBQBwEmkYum1EsX+/Vrm0EWNnvipi/9Gow+iCAgL8CRkRV5EvpUvlD/k5CdwQQQAABBBBAAIEwCFTzuc8akY+GYVZmRACBUQto0zROnlHcumvUlYZZYNgBVjU/9wNGrC8Osy6XIYBARATUtv4ks3LTLyOyDmsggAACCCCAAAIIuCBQ68qdaoysVZHjXShPSQQQCJyA7kmXKtO8HGvYAdYfvkL4yj98hXC1l8PRCwEE/BdQkd9lSuXF/k/CBAgggAACCCCAAAJBFLjnisUd0/ceWCtiOoM4HzMhgIAbAuZX6VL/+W5UfqGaww6wtlw4+/hJ45P7RcXyckB6IYCA/wJqzKcyxf6/9X8SJkAAAQQQQAABBBAImkC1kHuzUfkXfrU+aCfDPAi4KvC9dKns6Wumhh1gtdaudeXWiZHTXSWgOAIIBFFgX9KYhVOK/bUgDsdMCCCAAAIIIIAAAv4I1JdmX6JJs0FEJvgzAV0RQMAPARXzwUyp/0te9m4rwNpdyH7dUnOllwPSCwEEAiOw8cChxuI5t249HJiJGAQBBBBAAAEEEEDANwEVMfV853dE1NNPYfi2MI0RQOB/BBJyQfrmsqevmWorwKrnOy9R0Zs4MwQQiKWAGrHemSptui6W27M0AggggAACCCCAwLMEqvlcwRL5kYokoEEAgXgJjE1OPPGk3jWPeLl1ewHW8nnnqG3/xssB6YUAAgESUDnYNInzZpQ2rg3QVIyCAAIIIIAAAggg4LGA9vRY9bU/7BeRuR63ph0CCPgvsCFdKnv+eqm2AqzdF82aaVkdD/pvxQQIIOCXgIrcnk6efqHp7W36NQN9EUAAAQQQQAABBPwT0O7uRK254dtG9XL/pqAzAgj4JmD0G+li5b1e928rwHryX1SN9Y8bkTFeD0o/BBAIjoCKfjxTqnw6OBMxCQIIIIAAAggggIBXArXC3LNFrdY3c/iFeq/Q6YNAkATU+ot036YfeT1SWwFWa7haIftDUfMXXg9KPwQQCI6AEXn0kDG5U/lVwuAcCpMggAACCCCAAAIeCOxdlj2ukTDrRORUD9rRAgEEAiigKmdl+sprvB6t7QBrdyG7zFKz0utB6YcAAsESUNG1jzbl/NyqymPBmoxpEEAAAQQQQAABBNwSGMjnPm+L/B+36lMXAQSCL5BIWumpvZvqXk/adoC15cILx04at+NR4WuEXhzI4L4AACAASURBVJ8V/RAInICK+WCm1P+lwA3GQAgggAACCCCAAAKOC+wuzD7TkuRvRKXD8eIURACBsAg8klpUPsn0iO31wG0HWNotiVojd78RmeH1sPRDAIHACTQaVnLxzBUbWh8j5w8CCCCAAAIIIIBARAW2XDh77HHjk+tVZU5EV2QtBBAYhoAt5jvTS/3vGsaljl/SfoAlYmqF3F1G5SzHp6EgAgiETsCI3Jkqlc8N3eAMjAACCCCAAAIIIDBsgXq+84sq+n4RafvvkMNuwoUIIBB8gaQsSfeW/9OPQUf0L59aV+57YuRSPwamJwIIBFDAmGtSC/t7/PgYaQA1GAkBBBBAAAEEEIiUwO7CnFdbmrg9UkuxDAIIjETgidT+8vFmtTRGcvNo7xlRgFXPd16iojeNtjn3I4BAZAQGLUmcPa20cW1kNmIRBBBAAAEEEEAAAakuXTzBJA9uEpFT4EAAgdgLbP/2ovKcHh/ef9WSH1GAtaPrjBPHWYd+LypW7I8PAAQQ+G+Bujbs0zM/3rwPEgQQQAABBBBAAIFoCPDtm2icI1sg4ISAivlVptR/vhO1RlJjRAFWq1Et37lRROeNpCn3IIBANAWM0e+mipV3RnM7tkIAAQQQQAABBOIlUCt0vkFVVxiRsfHanG0RQOBoAkbkH1Kl8t/4pTOKACt3vYi8w6/B6YsAAsEUMCpvTvWV+YpxMI+HqRBAAAEEEEAAgWEJ7OielxrXsDeLyHHDuoGLEEAgBgKNJenSVl9e4N7CHXGAVS/krlKV/xeDE2JFBBBoT2Bfan857deL/doblasRQAABBBBAAAEEjiZQy+duEZE3oIMAAgi0BFT0UHpRZaKfP9w14gCrls+9UkRWc5QIIIDAcwWM6H1247HzMj+uPo4OAggggAACCCCAQLgEal3Z94gx3wjX1EyLAALuCphfpkv9f+Juj2NXH3GAtbN7/knJRnOvCC9y9/MA6Y1AUAVU5EOZUvmLQZ2PuRBAAAEEEEAAAQSeL1BbPm++Nu1fGiOT8UEAAQT+W0BFvpgplT/kp8iIA6zW0NWu3D3GyGI/F6A3AggEVkAtkfOmlcp3BnZCBkMAAQQQQAABBBB4WkCXLEkOnFRfoyoLYUEAAQSeKaCib82UKjf6qTKqAGt3vvMjlug/+LkAvRFAINACm1Kl8gLT+so0fxBAAAEEEEAAAQQCLVDryn5djHnPaN6VHOgFGQ4BBEYuYFkL0is2bRx5gdHfOboAq9B5pqV6N18jHP1BUAGBqAqo0RvSicplpleaUd2RvRBAAAEEEEAAgbAL1LrmXijG+mnY92B+BBBwXkBFH05PmTTVXLtm0Pnqw684qgBrb6Ez3bB1ixiZOPyWXIkAAnESMEYGVUw+Xez/SZz2ZlcEEEAAAQQQQCAsArsKs2ckteNuFU2FZWbmRAAB7wRU9YZMX+Xt3nU8eqdRBVgbu+eNOalh7xSRqX4vQn8EEAi2gN3U3PRVlUqwp2Q6BBBAAAEEEEAgXgIqYuqFzltE9fXx2pxtEUBguAImIUtTN5dvGe71bl03qgCrNVQ9n/tXFXmLWwNSFwEEoiFgjPntrhdPOP8snz92Gg1NtkAAAQQQQAABBEYv0Aqvavncp4zIR3ktzOg9qYBARAUOm6R2pnorO/zeb9QBVrUr91pj5Da/F6E/AgiEQMDI19LF8lUhmJQREUAAAQQQQACByAvsvih3rmXJv4vI+Mgvy4IIIDAiARXZ/0TyyEtm9W5/ZEQFHLxp1AGW9ohVvy/3KO/BcvBUKIVAdAUaCWNeNbXY/4vorshmCCCAAAIIIIBA8AX2dS+aPtg8XBaVScGflgkRQMAvASPmvmml/jOD8Mvyow6wWoi1Qu5uUTnLL1D6IoBAqASeUGM6M8X+B0I1NcMigAACCCCAAAIREqh2df7EGN57FaEjZRUEXBFQS9+fWVH5iivF2yzqVID1PVG5tM3eXI4AAvEVuDPVmPhq8+M1j8eXgM0RQAABBBBAAAF/BGr53CdF5BP+dKcrAgiESKA5sWGnjv/x5n1BmNmRAGtXPveOhMj1QViIGRBAICwC5vPpUv+HwzItcyKAAAIIIIAAAlEQqHXNe5mI/R+8AiYKp8kOCLgrYES2pErlue52GX51RwKsvcuymUbC7BIRR+oNf3yuRACBMAuoJX+WWVHmRyDCfIjMjgACCCCAAAKhEfh9YeGMI3qk9UtiydAMzaAIIOCbgIpZmSn1d/k2wHMaOxY41fK5tSKyMCiLMQcCCIRCYODx5MTsrN41vv+iRSi0GBIBBBBAAAEEEBihwJYLZ4+dOC7xSyPm7BGW4DYEEIiZgIr8TaZU/oegrO1ggJX9nIj5v0FZjDkQQCA0AncmktZrp/ZuOhCaiRkUAQQQQAABBBAImUAtn/uaiLw3ZGMzLgII+Ciglp6dWVG5x8cRntXasQCrflFuqVqyKiiLMQcCCIRHwBb5+0yp3BOEn2YNjxqTIoAAAggggAACQwuoiNmdz72ddxYPbcUVCCDwLIF9qUWXTDM9PXZQXBwLsPZ0z5rdbHRsCcpizIEAAqESsG2Vt07vK98UqqkZFgEEEEAAAQQQCLjAvu650webVkVUJgZ8VMZDAIEACajIv2RK5XcEaCTnXrp+xxJJ5iZnqyJmSpAWZBYEEAiLgO7V5OBZmd7tD4ZlYuZEAAEEEEAAAQSCLLCrMHuGpck7jciMIM/JbAggEDwBY8mbUyuC9QEDxz6B1eKu5bP/IGI+Ejx6JkIAgTAIGCNbn7APnf2SvvsfDsO8zIgAAggggAACCARVYMelp44b/8i4H6hIPqgzMhcCCARXoGHpopkrKuuCNKGjAdZAYc5pqoktKmIFaUlmQQCB8AjYIt/bvD91xQWrVzfCMzWTIoAAAggggAACwRKodXV+XYxeGaypmAYBBMIgYEQGp52QOt5cv/pQkOZ1NMCqv23hRD1wZLuITA3SksyCAALhEjBG3pcqlr8arqmZFgEEEEAAAQQQCIbA7sLcd1pqfUNEOoIxEVMggECYBIyaf0319b8taDM7GmBptyRqjc57jOgZQVuUeRBAIFQCj4nI0nSp/J+hmpphEUAAAQQQQAABnwV2FTpfnlBdLSJjfR6F9gggEFKBpsi5M0rlO4M2vqMBVmu5Wlf2H8WYDwdtUeZBAIHQCTxwZHzHS0/5wfr9oZucgRFAAAEEEEAAAR8EBroWzLJN424RmexDe1oigEAEBFT0YWvS2BmpG9YdDNo6jgdY+5bPzQ3aVn/QFmUeBBAIn4BR2bpr6sR5Z127ZjB80zMxAggggAACCCDgrUCtK3e3GDnL2650QwCBiAlsLO9PnRHEdxI7HmC1Dq6Wz24TMadF7BBZBwEEfBBQo5/KFCt/60NrWiKAAAIIIIAAAqEQ0B6xautyNxvlFwdDcWAMiUCQBVS/ke6rvDeII7oTYBWy/yJqAvfCryAeADMhgMAQAkZsMfqm9IrKj7BCAAEEEEAAAQQQeLZA6z3EA4PZv1FjPin8GjyPBwIIjFKgaRqvmFHc+ptRlnHldlcCrHo+9y4VudaViSmKAAJxFNiXNGbhlGJ/LY7LszMCCCCAAAIIIPBCAvWu3JvUyA8QQgABBEYrYESqqVJ5+mjruHW/KwHW3nxubkOk4tbQ1EUAgRgKqOxI2rpoyqpK6xcK+YMAAggggAACCMReYGfXvAuTxi7xi4OxfxQAQMAhAfOjdKn/Lxwq5ngZVwIsFTG1fK5sROY6PjEFEUAgvgJGVh14ovHGObduPRxfBDZHAAEEEEAAAQRE9izvnNO0dbWIZPBAAAEEnBAwRt6XKpa/6kQtN2q4EmC1Bq0WOj9uVK9xY2hqIoBAfAVskb+bXir/fXwF2BwBBBBAAAEE4i6wfdmCaeMTjXtEZEbcLdgfAQScE2iKfcaM0ua1zlV0tpJ7AVZXbrExchcvEnT2wKiGAAIiasnFmRXlFVgggAACCCCAAAJxE9ix5NRx4yaPv1tEF8Rtd/ZFAAFXBWrpUjnQn+h0L8B609wXm0PWLr6P7eoDRnEE4irwULKpp09ZVanGFYC9EUAAAQQQQCCeAtVC7kaj8uZ4bs/WCCDgloCquSbT1/8Jt+o7Ude1AOuP78HK/saIeZkTg1IDAQQQeI7ALquZPGvaqg0DyCCAAAIIIIAAAnEQqOZz/2REPhiHXdkRAQQ8FbDF2C9PFzff7WnXNpu5FmC15qgW5uaNWsU2Z+JyBBBAYFgCKmZlM/nYm2b27npiWDdwEQIIIIAAAgggEEIB7ZZEbTB3uWXJN1XFCuEKjIwAAgEWUJFDJtk4Od27dW+AxxRXA6yeHrHevTa3X0SODzICsyGAQKgFvpgulT8U6g0YHgEEEEAAAQQQOIZANT+nYCRxs4i7f3/jEBBAIJ4Cqnpfuq9yphHRIAu4GmC1Fq8Vcr8RlXOCjMBsCCAQXgEVOSIqV2X6yteGdwsmRwABBBBAAAEEji4w0NXZZRu9UUQmYIQAAgi4IWCMfUmquPnf3KjtZE3XA6xqPvdFI/IBJ4emFgIIIPBMgT/8O+YRScr5qd7yemQQQAABBBBAAIGoCOxa2vnyRFJvEZEXRWUn9kAAgcAJPFbenzrpgtWrG4Gb7DkDuR5g1Qpzzxa17go6BPMhgEC4BVT0cKMpp53MLxOG+yCZHgEEEEAAAQSeFNhb6EwPqm4wIidBggACCLglYER+kyqVX+FWfSfruh5g/fE9WJ2bRXSWk4NTCwEEEHiegOovUx0LLzC9vU10EEAAAQQQQACBsArsKsyekdCOe0R0Wlh3YG4EEAiLgH4+Xap8OAzTuh5gtRBqhdwXRIWXLIfhiWBGBEIuoEa+nSmW/yrkazA+AggggAACCMRUYEf3vNS4hq4U0ZfFlIC1EUDAQwHbmMXTi/2/87DliFt5FGB1vkH0ye9u8wcBBBBwW0CN6PunLap8zfSI7XYz6iOAAAIIIIAAAk4J1N+2cKL92JGfGyPnOlWTOggggMALCRiRLalSeW5YhLwJsLpnT5FGck9YUJgTAQTCLqBNbVp/mlnV/4uwb8L8CCCAAAIIIBAPgR2Xnjpu7CPj7jMi2XhszJYIIOC7gNHPpYuVj/g+xzAH8CTAas1S7cr+zBjzumHOxWUIIIDAqASMyGO22K/PlDb/alSFuBkBBBBAAAEEEHBZoLp08QSTPLDCiHmdinj2dzSX16I8AggEXCAheuHUUuVnAR/z6fE8+5dj9aLc64wltwr/Qg7Ls8GcCERAwGyzdPB10/q2bovAMqyAAAIIIIAAAhEU0CsWd9T2HvzeH77K85YIrsdKCCAQXIGmJBvpdO/WvcEd8dmTeRZgPZrPveigSOsvkSeEBYc5EUAgEgKbzaQxZ6ZuWHcwEtuwBAIIIIAAAghERkB7xBq4L/t9NeatkVmKRRBAIBQCarQvU6zkQzHsU0N6FmBptyTqjc71ItoZJiBmRQCB8AsYkfUNbb49aZKN8G/DBggggAACCCAQFQEV/aCIvENErKjsxB4IIBAKAW3YzVfMXLnlt6GY1usAq9WvWsi+36j5UpiAmBUBBBBAAAEEEEAAAQQQQAABBBCIkMDvD+mh2S/pu//hMO3k2SewWiitn4XVA0dav0Y4IUxIzIoAAggggAACCCCAAAIIIIAAAghEQ8DclVrU/wrTI3aY9vE0wGrB1PK5O0RkSZiQmBUBBBBAAAEEEEAAAQQQQAABBBCIgoAt+pfTS5XvhW0XzwOsgULn39qqfx82KOZFAAEEEEAAAQQQQAABBBBAAAEEwi2gjxw64XDqJdfffyhse3geYO3Kz12UEOu+sEExLwIIIIAAAggggAACCCCAAAIIIBBuAXNrutT/+jDu4HmA1UKq53PrVOT0MIIxMwIIIIAAAggggAACCCCAAAIIIBBGAWP0A6li5cuhnN2PoWuFzitF9et+9KYnAggggAACCCCAAAIIIIAAAgggEEcBTSZOyfRufDCMu/vzCayLcqerJevCCMbMCCCAAAIIIIAAAggggAACCCCAQAgF/iNdKr8qhHM/ObIvAZZeOHtsfVxiQMScEFY45kYAAQQQQAABBBBAAAEEEEAAAQTCIqC2vCWzsvyDsMz73Dl9CbBaQ9QLub9Rlc+EFY65EUAAAQQQQAABBBBAAAEEEEAAgbAIWJqcPa1vw7awzBucAOttCyfqgSN7RWR8WPGYGwEEEEAAAQQQQAABBBBAAAEEEAi8gGo11VE52fRKM/CzvsCAvn0CS0VMvZC7T1QWhhWPuRFAAAEEEEAAAQQQQAABBBBAAIGgC6joWzOlyo1Bn/NY8/kWYLWGGsh3/oMt+pEwAzI7AggggAACCCCAAAIIIIAAAgggEGCB/elS+aQAzzes0XwNsO4vnJIeq+N3+/Uy+WEJcRECCCCAAAIIIIAAAggggAACCCAQUgE18utMsXxeSMd/emxfA6zWFLV87g4RWRJ2SOZHAAEEEEAAAQQQQAABBBBAAAEEAidg6ZXpFZVvBm6uNgfyPcCqdmX/tzHmy23OzeUIIIAAAggggAACCCCAAAIIIIAAAscWeGzMoRNmvOjW3z4adij/A6z8nE4jiY18jTDsjxLzI4AAAggggAACCCCAAAIIIIBAwAR+mC6V3xSwmUY0ju8B1pO/RpjP/VZEzh7RBtyEAAIIIIAAAggggAACCCCAAAIIIPA8AbXlLZmV5R9Egcb3AKuFWM3nCkbkZj6FFYVHih0QQAABBBBAAAEEEEAAAQQQQMBvASOmYcYlZky7acOA37M40T8QAdae7nmpZsPeIiKTnFiKGggggAACCCCAAAIIIIAAAggggECcBVT1hkxf5e1RMQhEgNX6GuFAPvs7FXNGVGDZAwEEEEAAAQQQQAABBBBAAAEEEPBJwB4Us+jkUv8Gn/o73jYQAVZrq4FC56tt1dsd35CCCCCAAAIIIIAAAggggAACCCCAQIwEVOT3Bw81Tptz69bQ//rgfx9bYAKs1kC1fO5+ETklRs8UqyKAAAIIIIAAAggggAACCCCAAAKOCqjRGzLF6Hx9sIUTtADr+yISme9nOvr0UQwBBBBAAAEEEEAAAQQQQAABBBAYWqCp5vCsTHHHA0NfGp4rAhVgDXTlXmsbuS08fEyKAAIIIIAAAggggAACCCCAAAIIBEjAyD3pYvnsAE3kyCiBCrDuWLIkmZ1c32RE5jiyHUUQQAABBBBAAAEEEEAAAQQQQACBeAn8fbpU/ruorRyoAKuFW8t3/l8R/VzUoNkHAQQQQAABBBBAAAEEEEAAAQQQcFmgYWkyN61vwzaX+3hePnAB1s7l2YVJ26z1XIKGCCCAAAIIIIAAAggggAACCCCAQLgFfpIulf883CscffrABVjaLYmBRq5f+RphFJ83dkIAAQQQQAABBBBAAAEEEEAAAZcEVGR5plQuulTe17KBC7BaGrvyuT9PiKwK2q8k+npSNEcAAQQQQAABBBBAAAEEEEAAAQReWEATSSsztXdTPYpIgQywqksXTzDJgztEZGoU0dkJAQQQQAABBBBAAAEEEEAAAQQQcFLAqPwg1Vd+i5M1g1QrkAGWipiBfO42FXlNkLCYBQEEEEAAAQQQQAABBBBAAAEEEAiagBFpHDLm5FOL/bWgzebUPIEMsFrL7b44d67VlP9yalHqIIAAAggggAACCCCAAAIIIIAAAhEVqKT2pxaY1asbEd1PAhtgtcDr+dx9KrIoqvjshQACCCCAAAIIIIAAAggggAACCIxWwIj5dKrU//HR1gny/YEOsKr57MeMmE8FGZDZEEAAAQQQQAABBBBAAAEEEEAAAR8FDj2UtKbM7910wMcZXG8d6ABrVz43NyFScV2BBggggAACCCCAAAIIIIAAAggggEAYBYz+W7pYuSSMo7czc6ADrNYi1Xz2p0bMhe0sxbUIIIAAAggggAACCCCAAAIIIIBALASMdqeLlZujvmvgA6xaPvdKEblDJNjv64r6g8J+CCCAAAIIIIAAAggggAACCCAQLAEV87B1sGNG6ufrDgZrMuenCXyA9cAbTp88ZszgbhEZ7/z6VEQAAQQQQAABBBBAAAEEEEAAAQTCKaBGrs4Uy58N5/TtTR34AKu1TrWQ/ZJR8/72VuNqBBBAAAEEEEAAAQQQQAABBBBAILICRxLJxPypvRu3RnbDZywWigBr77LscY2EqYrIpDgcCjsigAACCCCAAAIIIIAAAggggAACQwisT+1PnWlWr27EQSoUAVbrIOqF3O2q8uo4HAo7IoAAAggggAACCCCAAAIIIIAAAscQUNHkn6b7NqyOi1JoAqxqIfdmo3JjXA6GPRFAAAEEEEAAAQQQQAABBBBAAIGjCajI5nSpnDMiGheh0ARY2j1vTK1hbzYip8TlcNgTAQQQQAABBBBAAAEEEEAAAQQQeK6AUf1yqq/ygTjJhCbAah1Ktavz48boNXE6IHZFAAEEEEAAAQQQQAABBBBAAAEEniEw2Egm5s2Mycvb/3vvUAVY9XznAhVdz2OLAAIIIIAAAggggAACCCCAAAIIxFFARYqZUnl53HYPVYDV0yPWu9dmfy5iXhW3g2JfBBBAAAEEEEAAAQQQQAABBBBAwIgsTZXKt8RNIlQBVutwdi+f/VLLTt4lIsm4HRb7IoAAAggggAACCCCAAAIIIIBArAUeSjb11CmrKo/FTSF0AdbO7hnjk81JG0XlJXE7LPZFAAEEEEAAAQQQQAABBBBAAIEYC1h6ZXpF5ZtxFAhdgNU6pGohd7VR+XQcD4ydEUAAAQQQQAABBBBAAAEEEEAgfgIqsr+ZTMye2bvxofhtLxLOAGtpZoIkj7/fiEyJ46GxMwIIIIAAAggggAACCCCAAAIIxE7gJ6lF5WWmR+zYbS4hDbBaB1XLd35XRP8yjofGzgggMHwBFb3PiLVl+HdwJQIIIIAAAggg4LGA6gVi5MUed6UdAgiES6BhSeKsaaWNa8M1tnPThvITWK31B/K5V9gi/xXmEM65Y6QSAgi8kIBReV+qr/xVhBBAAAEEEEAAgaAK1PLZX4iY84M6H3MhgEAgBFanS+ULAjGJT0OENsDqEbGu6MrdZoy82ic72iKAQAgECLBCcEiMiAACCCCAQMwFCLBi/gCwPgLDEVC5LN1Xvn44l0b1mtAGWK0DGch3vsYW/XlUD4e9EEBg9AIEWKM3pAICCCCAAAIIuCtAgOWuL9URCLuAEdltJa3c1N5NB8K+y2jmD3WAtXdZ9rhGwlRFZNJoELgXAQSiK0CAFd2zZTMEEEAAAQSiIkCAFZWTZA8EXBKw5Kr0ivLXXKoemrKhDrBayvVC9nJV853QiDMoAgh4KkCA5Sk3zRBAAAEEEEBgBAIEWCNA4xYE4iOgmkycmund+GB8Vj76pqEPsLRHrPra3E4RycT9MNkfAQSeL0CAxVOBAAIIIIAAAkEXIMAK+gkxHwL+CRgjP5xWLL/ZiKh/UwSjc+gDrBZjtavzO8bo5cEgZQoEEAiSAAFWkE6DWRBAAAEEEEDgaAIEWDwXCCBwVAEjBxuJAyfP7N31EEIikQiwdhVmz0hIcruodHCoCCCAwDMFCLB4HhBAAAEEEEAg6AIEWEE/IeZDwDeB1elS+QLfugescSQCrJZpLd95k4heEjBfxkEAAZ8FCLB8PgDaI4AAAggggMCQAgRYQxJxAQKxFGgmmktn3Lzlllguf5SlIxNgDVyce63dlNs4WAQQQOCZAgRYPA8IIIAAAgggEHQBAqygnxDzIeC9gBq5N72wfJbpEdv77sHsGJkAS5csSdZPqveLyuxgUjMVAgj4IUCA5Yc6PRFAAAEEEECgHQECrHa0uBaBeAiokb/KFMvfjse2w9syMgFWa93dF3W+2rL09uGtzlUIIBAHAQKsOJwyOyKAAAIIIBBuAQKscJ8f0yPggoA2kokXz+zdyMvbn4EbqQDroe7TTjjUGLPdiJzkwgNESQQQCKEAAVYID42REUAAAQQQiJkAAVbMDpx1ERhKQKUn3Vf+5FCXxe2fRyrAah1eNd/5KSP6sbgdJPsigMDRBQiweDIQQAABBBBAIOgCBFhBPyHmQ8BDAZWDyXE6d8oPK1UPu4aiVeQCLO3psQbW3lRTMVNDcQIMiQACrgoQYLnKS3EEEEAAAQQQcECAAMsBREogEBUB1dtSfZULjYhGZSWn9ohcgNWCqedz31KRdzuFRB0EEAivAAFWeM+OyRFAAAEEEIiLAAFWXE6aPREYUmDQGpecOe2mDQNDXhnDCyIZYO1c3jmnw9aNKtIRwzNlZQQQeIYAARaPAwIIIIAAAggEXYAAK+gnxHwIeCawKl0qX+RZt5A1imSA1TqD3fncdZbIZSE7D8ZFAAGHBQiwHAalHAIIIIAAAgg4LkCA5TgpBREIpYDa8meZleXbQjm8B0NHNsCqdc19mRjrtx4Y0gIBBAIsQIAV4MNhNAQQQAABBBB4UoAAiwcBAQTUyK8zxfJ5SLywQGQDrDuWLEnmTqzfJUZeygOAAALxFSDAiu/ZszkCCCCAAAJhESDACstJMScC7gkYkaWpUvkW9zqEv3JkA6zW0TyY71yQFF1jRMaE/6jYAAEERiJAgDUSNe5BAAEEEEAAAS8FCLC81KYXAsETMCJ7rKQ1a2rvpgPBmy44E0U6wNLu7kS9sb71NcLFwSFnEgQQ8FKAAMtLbXohgAACCCCAwEgECLBGosY9CERGwLaN5qcXK6sis5FLi0Q6wGqZ7S5kl1lqVrrkR1kEEAi4AAFWwA+I8RBAAAEEEECAd2DxDCAQb4HtqSkTc+baNYPxZhh6+8gHWCpiBgq5X6vKy4fm4AoEEIiaAAFW1E6UfRBAAAEEEIieAJ/Ait6ZshECwxcwH02X+v9x+NfH98rIB1ito91VyF2aUPlefI+ZzRGIrwABVnzPns0RQAABBBAIiwABVlhOijkRcFzgpdj/gwAAIABJREFUgVTSmmt6Nx1xvHIEC8YiwNLueWPqjeZOETM1gmfISgggcAwBAiweDwQQQAABBBAIugABVtBPiPkQcEfA2PKx1MryZ9ypHr2qsQiwWsdWLXTmjeoKEYnNztF7XNkIgfYFCLDaN+MOBBBAAAEEEPBWgADLW2+6IRAQgUEjY2akSuv2BGSewI8RmzDnoe7TTjjUGLPdiJwU+FNhQAQQcEyAAMsxSgohgAACCCCAgEsCBFguwVIWgQAL2KIfnV6q8O6rNs4oNgFWy6SWz14mYr7Lp7DaeEK4FIGQCxBghfwAGR8BBBBAAIEYCBBgxeCQWRGBZwoYOXhYzJxTi/01YIYvEKsAq8VSzef6jUhu+ERciQACYRYgwArz6TE7AggggAAC8RAgwIrHObMlAk8LqHwt3Ve+CpH2BGIYYHV+wIh+sT0mrkYAgbAKEGCF9eSYGwEEEEAAgfgIEGDF56zZFAERGdDGxNMyP17zOBrtCcQuwNqx5NRx4yaP3yCis9qj4moEEAijAAFWGE+NmRFAAAEEEIiXAAFWvM6bbWMuoPqNdF/lvTFXGNH6sQuwWkr1rs7L1eh3RiTGTQggECoBAqxQHRfDIoAAAgggEEsBAqxYHjtLx1PgiUTSOm1q76Z6PNcf3daxDLC2dZ92woRmR13UjBsdH3cjgEDQBQiwgn5CzIcAAggggAACBFg8AwjEQ8CI+XSq1P/xeGzr/JaxDLBajNV89i1GzA38IqHzDxUVEQiSAAFWkE6DWRBAAAEEEEDgaAIEWDwXCMRBQG3L2HOmFbdsj8O2buwY2wCr/raFE+0Dh8tGzAw3YKmJAALBECDACsY5MAUCCCCAAAIIvLAAARZPBwIxEDD6uXSx8pEYbOrairENsFqitYtz/0ea8nnXdCmMAAK+CxBg+X4EDIAAAggggAACQwgQYPGIIBB5gYceTx45bVbv9kciv6mLC8Y6wNIrFnfU9x7cICJzXTSmNAII+ChAgOUjPq0RQAABBBBAYFgCBFjDYuIiBEIroLb5Vnpl/5VGREO7RAAGj3WA1fKvdeU+JEa+EICzYAQEEHBBgADLBVRKIoAAAggggICjAgRYjnJSDIGACeiecTo+O7nvvocDNljoxol9gLWz+xXjk43920QkHbrTY2AEEBhSgABrSCIuQAABBBBAAAGfBQiwfD4A2iPgooAR+UyqVP6Yiy1iUzr2AVbrpAfyuYItsiI2p86iCMRIgAArRofNqggggAACCIRUgAArpAfH2AgMIaAihyaM78ic+IP1+8EavQABlojsXZY9rpEwO0TkRaMnpQICCARJgAArSKfBLAgggAACCCBwNAECLJ4LBKIpoKLvyZQq34rmdt5vRYD1lPnufOdrEqI/VZGk98dARwQQcEuAAMstWeoigAACCCCAgFMCBFhOSVIHgeAIGJHH7IZ9WubHm/cFZ6pwT0KA9YzzqxZydxuVs8J9pEyPAALPFCDA4nlAAAEEEEAAgaALEGAF/YSYD4G2BVRF35YpVW5s+05ueEEBAqxn0NS65l0oxv4pzwsCCERHgAArOmfJJggggAACCERVgAArqifLXjEW2JQqlRcYEY2xgeOrE2A9h7SWz90iIm9wXJqCCCDgiwABli/sNEUAAQQQQACBNgQIsNrA4lIEQiGgf5kuVb4XilFDNCQB1nMDrEL2AlHzHyE6Q0ZFAIFjCBBg8XgggAACCCCAQNAFCLCCfkLMh0BbAnenS+WXtXUHFw9LgADrOUwqYmpduZ8ZI68dliAXIYBAoAUIsAJ9PAyHAAIIIIAAAiJCgMVjgEB0BGzRrumlysrobBScTQiwjnIWu5dls1bC3Csi44NzVEyCAAIjESDAGoka9yCAAAIIIICAlwIEWF5q0wsB9wRU9O50MvG/TO+mI+51iW9lAqyjnL32iFVbm1tleBdWfP+XweaRESDAisxRsggCCCCAAAKRFSDAiuzRsliMBFTkiFqNl09fsbX1YRj+uCBAgPUCqNu6TzthwuCY3WJkogvulEQAAY8ECLA8gqYNAggggAACCIxYgABrxHTciECABMzvyvunnXPB6tWNAA0VqVEIsI5xnPV87lsq8u5InTjLIBAzAQKsmB046yKAAAIIIBBCAQKsEB4aIyPwbIEjaszcTLH/AWDcEyDAOobtzu650xMNa70RmezeEVAZAQTcFCDAclOX2ggggAACCCDghAABlhOK1EDAPwFVvSHTV3m7fxPEozMB1hDnXMt3vldEvxaPx4EtEYieAAFW9M6UjRBAAAEEEIiaAAFW1E6UfWIlYORgw5iXzlzRvyVWe/uwLAHWEOh7l2WPayTN70Wlw4fzoSUCCIxSgABrlIDcjgACCCCAAAKuCxBguU5MAwRcEzBG/zZVrHzKtQYUflqAAGsYD8Ou/Pw/TUjzdhGxhnE5lyCAQIAECLACdBiMggACCCCAAAJHFSDA4sFAIKwCaieSielTezfVw7pBmOYmwBrGaWl3d6LeWH+niJw9jMu5BAEEAiRAgBWgw2AUBBBAAAEEECDA4hlAIDoCaov1zumlTddFZ6Vgb0KANczz2V3InpdQc4cKXyUcJhmXIRAIAQKsQBwDQyCAAAIIIIDAMQT4BBaPBwJhFND+VHLh6aa3txnG6cM4MwFWG6dWzef+1Yi8pY1buBQBBHwWIMDy+QBojwACCCCAAAJDChBgDUnEBQgETkDV5DN9/X2BGyzCAxFgtXG4teXz5hvbXqsiiTZu41IEEPBRgADLR3xaI4AAAggggMCwBAiwhsXERQgERkBVf5rpq7whMAPFZBACrDYPuprPfdqIXN3mbVyOAAI+CRBg+QRPWwQQQAABBBAYtgAB1rCpuBCBIAjYti3nT19Z/nUQhonTDARYbZ729mULpo1PNLaKyKQ2b+VyBBDwQYAAywd0WiKAAAIIIIBAWwIEWG1xcTEC/gpY5lvpFf3v8XeIeHYnwBrBudfyne8V0a+N4FZuQQABjwUIsDwGpx0CCCCAAAIItC1AgNU2GTcg4JfA403TyM4obt3l1wBx7kuANcLTr+Vz60Tk9BHezm0IIOCRAAGWR9C0QQABBBBAAIERCxBgjZiOGxHwVMAy5hPTiv3XeNqUZk8LEGCN8GGodWXfKMbcJCLWCEtwGwIIeCBAgOUBMi0QQAABBBBAYFQCBFij4uNmBLwS2JgulRd41Yw+zxcgwBrhU6EiplboLBrVrhGW4DYEEPBAgADLA2RaIIAAAggggMCoBAiwRsXHzQh4JKBvTJcqvR41o81RBAiwRvFY7Oqac0bCJO4dRQluRQABlwUIsFwGpjwCCCCAAAIIjFqAAGvUhBRAwF0BIytSC8tvND1iu9uI6scSIMAa5fNRK+S+ICofGmUZbkcAAZcECLBcgqUsAggggAACCDgmQIDlGCWFEHBDwLbEPnNaafNaN4pTc/gCBFjDtzrqlXu6501qNuzNIpIeZSluRwABFwQIsFxApSQCCCCAAAIIOCpAgOUoJ8UQcEzAiKiIfDZVKn/MsaIUGrEAAdaI6f7nxmp+7ruMWNc6UIoSCCDgsAABlsOglEMAAQQQQAABxwUIsBwnpSACTgnsSiStzqm9mw44VZA6IxcgwBq53dN3tl7oXs/n7hCRVzpQjhIIIOCgAAGWg5iUQgABBBBAAAFXBAiwXGGlKAKjFVAVfVumVLlxtIW43xkBAixnHGVnV25J0sjtIpJ0qCRlEEDAAQECLAcQKYEAAggggAACrgoQYLnKS3EERiSgIj/PlMqvG9HN3OSKAAGWg6zV5dmvGNu8z8GSlEIAgVEKEGCNEpDbEUAAAQQQQMB1AQIs14lpgEDbAg21z5nZt/mutm/kBtcECLAcpN1b6Ew3VR5Q0Q4Hy1IKAQRGIUCANQo8bkUAAQQQQAABTwQIsDxhpgkCbQiYz6dL/R9u4wYu9UCAAMth5Fq+8+1G9DoVSThcmnIIIDACAQKsEaBxCwIIIIAAAgh4KkCA5Sk3zRAYQsA8njQye0qxvwZVsAQIsFw4j3oh9xtVOceF0pREAIE2BQiw2gTjcgQQQAABBBDwXIAAy3NyGiLwQgK2GvvSTHHzDRAFT4AAy4Uz2VvoPLMhereoWC6UpyQCCLQhQIDVBhaXIoAAAggggIAvAgRYvrDTFIGjCdydKpXPMSIKT/AECLBcOpNaIfcFUfmQS+UpiwACwxQgwBomFJchgAACCCCAgG8CBFi+0dMYgWcKHNam/q/Mqso9sARTgADLpXPZ0z0v1WzY60RkikstKIsAAsMQIMAaBhKXIIAAAggggICvAgRYvvLTHIEnBYyRz6aK5avhCK4AAZaLZzNQyJ5nq/mFCF8ldJGZ0ggcU4AAiwcEAQQQQAABBIIuQIAV9BNivugLmMcP6RPTX9J3/8PR3zW8GxJguXh2umRJsj65/u8i8koX21AaAQSOIUCAxeOBAAIIIIAAAkEXIMAK+gkxX8QFGmrMqzLF/taHT/gTYAECLJcPZ0f3vNS4RnOtiJnqcivKI4DAUQQIsHgsEEAAAQQQQCDoAgRYQT8h5ou4wM92T5m47Kxr1wxGfM/Qr0eA5cER1gu5q1Xl0x60ogUCCDxHgACLRwIBBBBAAAEEgi5AgBX0E2K+CAvsO3CoMWvOrVsfjfCOkVmNAMuDo2x9lbB2Yv0uY+SlHrSjBQIIPEOAAIvHAQEEEEAAAQSCLkCAFfQTYr7oCuiH06XK56O7X7Q2I8Dy6DwHLs6dazflvzxqRxsEEHhKgACLRwEBBBBAAAEEgi5AgBX0E2K+SAoY86vU8U+8xlx//6FI7hfBpQiwPDpUFTG1fO7bRuRdHrWkDQIItH4OV+V9qb7yV8FAAAEEEEAAAQSCKkCAFdSTYa4oC6ilZ2dWVO6J8o5R240Ay8MTfepXCbeKyCketqUVArEWIMCK9fGzPAIIIIAAAqEQIMAKxTExZJQEVL+R7qu8N0orxWEXAiyPT7m2fN4bxbb/zeO2tEMgtgIEWLE9ehZHAAEEEEAgNAIEWKE5KgaNhIBuP3CoOW/OrVsPR2KdGC1BgOXDYdfy2R+JmG4fWtMSgdgJEGDF7shZGAEEEEAAgdAJEGCF7sgYOLQC2lRjdWeK/aXQrhDjwQmwfDj8Pd2zZtuDHWvUyPE+tKclArESIMCK1XGzLAIIIIAAAqEUIMAK5bExdCgFzHXpUv/loRydoYUAy6eHoL589lK1kytb75j2aQTaIhALAQKsWBwzSyKAAAIIIBBqAQKsUB8fw4dH4IiRwZmp0rY94RmZSZ8pQHji0/Ow5cLZY48bn/wPVTnXpxFoi0AsBAiwYnHMLIkAAggggECoBQiwQn18DB8OgWZCraVT+zbdGo5xmfJoAgRYPj4XO7vnn5RsNDeJyDQfx6A1ApEWIMCK9PGyHAIIIIAAApEQIMCKxDGyRKAF9NbdUyZddNa1awYDPSbDHVOAAMvnB6Sa7/yAEf0nvkro80HQPrICBFiRPVoWQwABBBBAIDICBFiROUoWCaZALbUodbLpWd0I5nhMNVwBAqzhSrl03R1LliRzJw2sFNXXu9SCsgjEWoAAK9bHz/IIIIAAAgiEQoAAKxTHxJAhFWgauWxGsXx9SMdn7GcIEGAF4HGo5hd0WtJcp6LJAIzDCAhESoAAK1LHyTIIIIAAAghEUoAAK5LHylKBEDC9qUX9l5gesQMxDkOMSoAAa1R8zt1cLeTebVS+LiIJ56pSCQEECLB4BhBAAAEEEEAg6AIEWEE/IeYLqcDjliYXTuvbsC2k8zP2cwQIsALySOiSJcn65PoaEVkYkJEYA4FICBBgReIYWQIBBBBAAIFICxBgRfp4Wc4fARXL/Hl6Rf9P/WlPVzcECLDcUB1hzVpX7lQxep+IOWGEJbgNAQSem9KrvC/VV/4qMAgggAACCCCAQFAFCLCCejLMFV4B/WV5f/pPL1jNi9vDe4bPn5wAK2CnWc3nPmpEPhuwsRgHgdAK8Ams0B4dgyOAAAIIIBAbAQKs2Bw1i3ohYKSuicQ5md6ND3rRjh7eCRBgeWc9rE5PfpXwxNqdYsxZw7qBixBAYCiBn9kidw11Ef8cAQQQQAABBBDwS8BSuVSMnOxXf/oiECkB1SvTfZVvRmonlnlSgAArgA/C7u5s1mqYjbzQPYCHw0gIIIAAAggggAACCCCAAALBFLCkmLJOf6Pp7W0Gc0CmGo0AAdZo9Fy8t96VvVyNuVZELBfbUBoBBBBAAAEEEEAAAQQQQACBCAiYx5tmMDujuHVXBJZhhaMIEGAF+LGo53O3qchrAzwioyGAAAIIIIAAAggggAACCCDgq4CKHDGWyfOrg74eg+vNCbBcJx55g1r37CnSSG4TkeNGXoU7EUAAAQQQQAABBBBAAAEEEIiwgOq/pfsql0R4Q1bjHVjBfwZq+dw7ROT64E/KhAgggAACCCCAAAIIIIAAAgh4K6AiW8ZOaJz1ohu3PuptZ7p5LcAnsLwWb7OfXrG4o77v4A9E5eI2b+VyBBBAAAEEEEAAAQQQQAABBCItYBvzmunF/n+P9JIs96QAAVYIHoSH33D65CfGDLZ+lTAdgnEZEQEEEEAAAQQQQAABBBBAAAG3BVRUP5/uq3zE7UbUD4YAAVYwzmHIKQYuzp1rN+VXhI5DUnEBAggggAACCCCAAAIIIIBA1AXUPNjoODE3s/fOJ6K+Kvv9UYAAK0RPQq0r9//EyFUhGplREUAAAQQQQAABBBBAAAEEEHBWQOVRTXSck1mxvuxsYaoFWYAAK8in85zZysuyx52QNL8SlYUhGptREUAAAQQQQAABBBBAAAEEEHBMwIh+PFWqfNqxghQKhQABViiO6X+G3LN83kubtn2PiFghG51xEUAAAQQQQAABBBBAAAEEEBiVgKX6y6mlyiuNER1VIW4OnQABVsiOTEVMrZB7l1H5dshGZ1wEEEAAAQQQQAABBBBAAAEERiUwqMnZJ/dt2DaqItwcSgECrBAeW0+PWFfcl/upMfK6EI7PyAgggAACCCCAAAIIIIAAAgi0JaAiR4xaXem+Tbe2dSMXR0aAACukR7krn3tRQuV3YuTkkK7A2AgggAACCCCAAAIIIIAAAggMV+Bf0qXyO4Z7MddFT4AAK8RnWit0vkFUbwnxCoyOAAIIIIAAAggggAACCCCAwLEFVNan+sqLjPDeqzg/KgRYIT591db7sLJXW2Kuab0bK8SrMDoCCCCAAAIIIIAAAggggAACRxFQW5PmZZne8hp44i1A6BHy89/TPW9So6G/NKJnhHwVxkcAAQQQQAABBBBAAAEEEEDgmQJNI9YVqdKm62BBgAArAs/AQ92nnXC4MWariLw4AuuwAgIIIIAAAggggAACCCCAAAKiqqsrD6dfc8Hq1Q04ECDAisgzUMvnWi+zuz4i67AGAggggAACCCCAAAIIIIBAvAU2N5IHzpjZu+uJeDOw/X8LEGBF5FlovQOrns99VUTeG5GVWAMBBBBAAAEEEEAAAQQQQCCOAioN2zRfP7205fY4rs/ORxcgwIrQk1FdOvfFpsNaIyonR2gtVkEAAQQQQAABBBBAAAEEEIiRgBr76kxx82djtDKrDkOAAGsYSGG6pJ6fNVW1Y7sYmRimuZkVAQQQQAABBBBAAAEEEEAAARGt7H5w0ulnrVkziAYCzxQgwIrY89D6KmEtn73KiPlKxFZjHQQQQAABBBBAAAEEEEAAgSgLGKkbHVyUKm3bE+U12W1kAgRYI3ML/F21fO77IvL2wA/KgAgggAACCCCAAAIIIIAAAgiIPGEbvWR6sbIKDASOJkCAFdHnYlv3aSdMGBxzjxiZHdEVWQsBBBBAAAEEEEAAAQQQQCA6An+fLpX/LjrrsInTAgRYTosGqF41v6DTSGOdiCQDNBajIIAAAggggAACCCCAAAIIIPC0gIr+rLI/vfSC1asbsCDwQgIEWBF/NmqF+ReLNm8ixIr4QbMeAggggAACCCCAAAIIIBBOgYcOG7Pg1GJ/LZzjM7VXAgRYXkn72Keaz11rRN7l4wi0RgABBBBAAAEEEEAAAQQQQOBZAkbkkaZlXTB9xaZ7oUFgKAECrKGEIvDPVcXUC9nfipizI7AOKyCAAAIIIIAAAggggAACCIRfQFXlY5m+8mfDvwobeCFAgOWFcgB67FzeOSdp6ya+ShiAw2AEBBBAAAEEEEAAAQQQQCDmAiry/XTy9MtNb28z5hSsP0wBAqxhQkXhsury3OvElpVGZGwU9mEHBBBAAAEEEEAAAQQQQACBMAroNiNjz02V1u0J4/TM7I8AAZY/7r50VRFTy+e+bESuEhHO3pdToCkCCCCAAAIIIIAAAgggEF8BI/LoYdN86SnFLdvjq8DmIxEgxBiJWojveSrEus2IvCbEazA6AggggAACCCCAAAIIIIBACAWMJW9OrSjfFMLRGdlnAQIsnw/Aj/bV7tNONo0xd4pIxo/+9EQAAQQQQAABBBBAAAEEEIifgGXMN6cV+6+M3+Zs7IQAAZYTiiGsUS90vlxV/0tErBCOz8gIIIAAAggggAACCCCAAALhEvhFatKY15sb1h0M19hMGxQBAqygnIQPc1QLc99mqXWdiiR9aE9LBBBAAAEEEEAAAQQQQACBeAgcaJpG54zi1l3xWJct3RAgwHJDNUQ1q13Z7xhjLg/RyIyKAAIIIIAAAggggAACCCAQFgGVg6app6d+XNkRlpGZM5gCBFjBPBfPptpx6anjxj0ytihiLvSsKY0QQAABBBBAAAEEEEAAAQTiIKBq5D2ZYvnbcViWHd0VIMBy1zcU1avd8082g807xfBS91AcGEMigAACCCCAAAIIIIAAAiEQUKNfzhQrHwjBqIwYAgECrBAckhcj7lk2f3Yj0dxgRMZ60Y8eCCCAAAIIIIAAAggggAACkRbYkNqfeqlZvboR6S1ZzjMBAizPqIPdSEXM7nz24oTITSImEexpmQ4BBBBAAAEEEEAAAQQQQCDAAvsSSev0qb2b6gGekdFCJkCAFbIDc3vcar7zy0b0f7vdh/oIIIAAAggggAACCCCAAAKRFPi9bVmvmb5i072R3I6lfBMgwPKNPpiNtafHqq394c+MyGuCOSFTIYAAAggggAACCCCAAAIIBFSgqaJ/nSlVvhXQ+RgrxAIEWCE+PLdGr3XPniKN5HYRmeRWD+oigAACCCCAAAIIIIAAAghETED1mm+fUenp6RE7YpuxTgAECLACcAhBHKG6fG5ObHOnEXNiEOdjJgQQQAABBBBAAAEEEEAAgQAJGLkjkbCWTe3ddCBAUzFKhAQIsCJ0mE6vUs1n32LE/LOIjHe6NvUQQACBYwmo6MctowMoIYAAAgi0J6BqnS8ib2/vLq5GAAEERi1QbiQnnzmz984nRl2JAgi8gAABFo/GMQXq+dxHVeQzIsKzwrOCAAKeCdhNzU1fVal41pBGCCCAQEQEdhc6r7RUvx6RdVgDAQRCIKBiHu4wMm9Ksb8WgnEZMcQChBIhPjwvRtcrFncM7Hv8c6r6fi/60QMBBBB4UsBuzE+v3LoJDQQQQACB9gSqhez7jZovtXcXVyOAAAIjFlDbmNdOL/b/+4grcCMCwxQgwBomVJwv27sse9ygZX5mjJwbZwd2RwAB7wSMmNNTpf4N3nWkEwIIIBANgVoh+2FR84/R2IYtEEAgyAJGpKkil6dL5e8HeU5mi44AAVZ0ztLVTXTJkmR98sA6Ee10tRHFEUAAgdYHsCzrzOkrNt0LBgIIIIBAewL1Quc1qvrx9u7iagQQQKBtAduI/PO0ReUrDb842DYeN4xMgABrZG6xvOv3F82aecTqaH2lZ1IsAVgaAQQ8E2iKnDujVL7Ts4Y0QgABBCIiUCt0fl1Ur4zIOqyBAALBFbglVSovMyIa3BGZLGoCBFhRO1GX96lenHutacptLrehPAIIxF1A5YJ0X3l13BnYHwEEEGhXoNqV+4Ex8qZ27+N6BBBAoA2BXxw50tF1yk/W72/jHi5FYNQCBFijJoxfgXohe7mq+YaIjInf9myMAAKeCKj9+nTf5ls96UUTBBBAIEIC1a7c7cbIqyO0EqsggECABIxI7Ygmzz+5b8O2AI3FKDERIMCKyUE7uaaKmFoh9y2j8i4R4RlyEpdaCCDwlIC+MV2q9MKBAAIIINCeQK0rVxYj2fbu4moEEEBgaAEj8pg0xixK/XjdjqGv5goEnBcgfHDeNBYV71iyJJk7qf5DUVkei4VZEgEEPBUwRt+ZKla+62lTmiGAAAIREKh1dR4UoxMisAorIIBAsASaotbSVN+mn/Heq2AdTJymIcCK02k7vOuufO5FSSOrVOVch0tTDgEEYi9gPpou9fMz8LF/DgBAAIF2BHZ2zxifbEx6vJ17uBYBBBAYloAxH0kX+z83rGu5CAGXBAiwXIKNS9ndFy2YaVmN34pIOi47sycCCLgvoGK+kin1v9/9TnRAAAEEoiOwp3teqtmwa9HZiE0QQCAQAipfTfeV3xeIWRgi1gIEWLE+fmeW33Lh7LGTxiV3i8iLnKlIFQQQiLuAMaaUKvYX4u7A/ggggEA7ArXl8+aLbW9o5x6uRQABBI4tYO5KJReca3p7m0gh4LcAAZbfJxCR/gMXLzjXbjZuE5FJEVmJNRBAwEcBVVmT6Suf5eMItEYAAQRCJ1C9aN75xrJ/EbrBGRgBBAIpYIz8elrCusD0bjoSyAEZKnYCBFixO3L3Fq7ls91GzE0qknCvC5URQCAWAir70n3lKbHYlSURQAABhwTq+exFKqbPoXKUQQCBGAuoyNpEM/m6aas2DMSYgdUDJkCAFbADCfs4uwud70yofosQK+wnyfwI+C8wTsdNntx338P+T8IECCCAQDgEal3Z94gx3wjHtEyJAAJBFVCR/ZrUV0zvrVSCOiNzxVOAACue5+7a1tojVu2+eZ83xv6ga027cTvMAAAgAElEQVQojAACsRBoGvOKGcX+38RiWZZEAAEEHBCoL899UW35gAOlKIEAAnEVMHIw2dDFU1YRXsX1EQjy3gRYQT6dkM6mIqZeyF0nKpeGdAXGRgCBYAhcmi6Vvx+MUZgCAQQQCL5ALZ+7RUTeEPxJmRABBAIqcEBV/v/27gS+rrrM//j3OedmacvWQpulRVpomzSFIpZRccGgjCMq0LQTcGNRHHRw3Jf5O4oUxvkPKjqMgAvqiI6IEtuU1r8oLnTEDaXK0iUpS6ttk7SFltIty73n+XuL48aWpPfmnuWT14uXL+Gc3+/5vp9TSJ6ce86ixmVdt8W0PsrKuAADrIxfAOWK7+0t1X35wi2SvaJce7AuAgikXuCqhs6u96c+JQERQACBEgn0Lmh+SKYZJVqOZRBAIFsCeZe/vbGz+3PZik3aJAkwwEpStxJW6yNnzDxssDa8X7IpCSudchFAIA4CphUNS7vOikMp1IAAAgjEXWD7WU2H5kN7LO51Uh8CCMRUwPS+hqVdn4xpdZSFwAEBBlhcCGUV6G2fOdnzVatMfnRZN2JxBBBIo8Cqhs6uk9MYjEwIIIBAqQV6FzS3ynR7qddlPQQQSL9AZLq2MQzeax1rB9OfloRJFmCAleTuJaT2rW2zT4xkKyRjiJWQnlEmAjER6Gvo7GqISS2UgQACCMRaoKet+T0mcfdErLtEcQjET8BNSxrCrnOtQ4X4VUdFCPylAAMsrogxEeg5e/aLLQiKDxY9bEw2ZBMEEEiDgBcO1eRpX+16JA1hyIAAAgiUU6Cvrfkml15Tzj1YGwEEUibg+l59Z9cZZvKUJSNOSgUYYKW0sXGM1bug5bmy6KeScnGsj5oQQCB+ApH7m6cu6/5S/CqjIgQQQCBeAj1tTXea7LnxqopqEEAgtgKutWFV8LwpHWv3xLZGCkPgrwQYYHFJjJmAS9Z39pwzFKhD8vFjtjEbIYBAggXs/zV0rnt1ggNQOgIIIDAmAr1tzT2S+Nj1mGizCQLJFjDXAxblXlS3fPXWZCeh+qwJMMDKWsdjkLdvQfPFbvq0pJoYlEMJCCAQYwGXPTqwc3/DjJUb+2NcJqUhgAACFRXYuHBOQ437ZklBRQthcwQQSIJA9/jcnhcc3rF5RxKKpUYE/lyAARbXQ0UEetqa3mqyz/AmzIrwsykCiRFwqd+j3Oypt6zelJiiKRQBBBAYY4EtbXPeH8g/Psbbsh0CCCRMwKVHlAuf09ix5ncJK51yETggwACLC6EiAre3tuaaJva9w6SruA4r0gI2RSApAp736PlHL1v/y6QUTJ0IIIDAWAv0tTXf69IJY70v+yGAQKIE8oHCk+s619yTqKopFoE/E2CAxeVQMQFvbc31Tuy9ymTvYIhVsTawMQLxFzD7SMPSdf8a/0KpEAEEEBh7gd++6oSJ1TVDm+SaMPa7syMCCCRE4DELgpfXL1l7Z0LqpUwEnlSAARYXRsUFtixo/nJgurDihVAAAgjEU8B9Xf2y7rkmXvEczwZRFQIIVFKg9+y5LRYU7nHe8lzJNrA3AnEW2K3AXtOwZN134lwktSEwHAEGWMNR4piyCvhiBb33NH/LpLaybsTiCCCQXIEazWj4RtfG5AagcgQQQKA8An1tTW9y2ZfKszqrIoBA0gXM9Pr6pV1fT3oO6kegKMAAi+sgFgKPnDHzsIFxuVvN9YJYFEQRCCAQKwFzva5+WddNsSqKYhBAAIEYCPS2Nf9Q0ktjUAolIIBAvAQ8ivyixlu6b+Au9ng1hmpGL8AAa/R2nFligQMPdj+i7/tmai3x0iyHAAIJFzDT9fVLu96S8BiUjwACCJRUoK9t3hTXYK+koKQLsxgCCCRawKUBk19af2L3J22xokSHoXgE/kyAARaXQ6wE1rS3VE8q+I/l/rxYFUYxCCBQUQGT7q/r7GriN4gVbQObI4BAzAR625raJbs5ZmVRDgIIVFDApLyZXVHHC3Aq2AW2LpcAA6xyybLuqAUOvE2neuh/xOugR23IiQikUMALik6a1rmeVz+nsLlEQgCB0Qn0Lmz6jNz+cXRncxYCCKRTwD5Qf+I67rxKZ3Mzn4oBVuYvgXgC9Jw5+yjLBcVnOsyLZ4VUhQACYy5g9tmGpesuGfN92RABBBCIqUDvgub7ZZoZ0/IoCwEExlTAC2Z2aV14wseto6MwpluzGQJjJMAAa4yg2WbkAj1nzh9vub13SHrOyM/mDAQQSKFAV9fO+hNOW7kyn8JsREIAAQRGJLC5rfmUUPrZiE7iYAQQSKVA8WODkfu1P6nqft85HWJ4lcouE6oowACL6yDWAtvPajo0H9p9ko6JdaEUhwACZRdwaTC3Mzhyysq1e8q+GRsggAACMRfoXdD0DZmdG/MyKQ8BBMZAwNyurl+27t1jsBVbIFBRAQZYFeVn8+EI9Jw591mWK9wpqX44x3MMAgikWMC1uGFZ1+UpTkg0BBBA4BkFDrz0Jh91S5r+jAdzAAIIpFrApSsbJk/4iF2/aijVQQmHAHdgcQ0kRaC3feZkH8rdYaampNRMnQggUAYB196wKqif0sFdWGXQZUkEEEiIQE/brDmm8F5JuYSUTJkIIFB6gUjun9szUHjPrFsfGCj98qyIQPwEuAMrfj2hoqcQ2PraGXXRQM3P5ZoBEgIIZFcgVPjiKZ1rfpJdAZIjgEDWBXraZi8xBQuz7kB+BDIs4O66qWFZ1xtM8gw7ED1jAgywMtbwpMfd2N40oyZvd0s6LOlZqB8BBEYn4OZXNy7t5jkPo+PjLAQQSLjAxoVzGmrcN0sKEh6F8hFAYJQCZrp+3Y76t/Fim1ECclpiBRhgJbZ12S1801nHzcyFVT+W1JBdBZIjkGmBXf3eP33Gso2PZlqB8AggkEmBLQvnnBu4fyOT4QmNAAJupuuioQn/3Lhi1T44EMiaAAOsrHU8JXm3nnV8XRQO3S7ZnJREIgYCCIxAIIrsbVNvWfeZEZzCoQgggEAqBHramv/HpFNTEYYQCCAwEoGC5F/dkQvfOrdj7eBITuRYBNIiwAArLZ3MYI5N7dMm5fKH/FrSMRmMT2QEsi6wsqGz67SsI5AfAQSyJbBl4ZznBO6rspWatAggIMld+mJjZ9fFaCCQZQEGWFnufgqyP7Jw3rRBH/qJ5AyxUtBPIiAwAoGhftfsGcu6No7gHA5FAAEEEi3Q09Z8vUn/kOgQFI8AAiMWMPm/bZ58yOUnX79qaMQncwICKRJggJWiZmY1Sm/7SZOtsP8H7pqXVQNyI5BJAdOKz8/rWrB4saJM5ic0AghkSuCu+fOrpj5r7295Bmim2k7YjAuYlJfsY4/k7Ao+Npjxi4H4BwQYYHEhpEKg58z545Xb+2OT5qciECEQQOAZBUx6zAq52XXLV299xoM5AAEEEEi4QG9b8/skfSLhMSgfAQSGKWDSUCRd23Bi1/uMX9YNU43D0i7AACvtHc5Qvm3tLYcUhqKfyXRChmITFYFMC3jg72pc0v2fmUYgPAIIpF7gwPc4+ehBSVNSH5aACCBwQMDdLm1Ytu7fTHJIEEDgcQEGWFwJqRLobZ852fLhbS57dqqCEQYBBJ5KYLfno2MbV6x/GCIEEEAgrQJb2+b8bST/rqQgrRnJhQACfxRwc393XdW8a62jo4ALAgj8SYABFldD6gS8tTXXN7HvNkm8oSx13SUQAk8UCOT/WNfZ/TlsEEAAgTQKeHtLdW8++o1JLWnMRyYEEPgzAVO/uS6vO7Hr43xskCsDgScKMMDiqkilwO2trbmmiX0/NOnUVAYkFAII/OnXlNKa7p31zz5t5co8LAgggEDaBPraml/t0oq05SIPAgg8QWBICv6loXPtVdgggMCTCzDA4spIrUDxeRH5fPRVk9pSG5JgCCDwuID7JQ3Luj8LBwIIIJA2gZ6Fzd831+lpy0UeBBD4S4HA/bwpy7pv5JlXXBkIPLUAAyyujlQLbLhwem3trprrJHtTqoMSDgEE1jZ0ds2FAQEEEEiTQM+C5pcHgW5159lXaeorWRD4cwGX9odmr69buq4TGQQQeHoBBlhcIZkQ6F3YfI1cl/Dw00y0m5DZFPAo0tlTb+niYzbZ7D+pEUilQG9b888lPT+V4QiFAAJFgYcL5udMW9p9OxwIIPDMAgywntmII1IisKVtzj8H8itTEocYCCDwVwJmiqrDwUmTOh7aBQ4CCCCQdIGeRbObLQrW8tbwpHeS+hF4cgEzDeU9/JtpnWvuwQgBBIYnwABreE4clQKBu+bPr2o4ZvcFgQefkVSVgkhEQACBJwyx7B/ql677IjAIIIBAkgX6Xj5vgk8YfFBSXZJzUDsCCDyVgO9SUHhhw5IH1mCEAALDF2CANXwrjkyBgEvW29byFrPoKrkmpCASERBA4C8Ftpuqj6/vvHcbMAgggEBSBXoXtJwji76Z1PqpGwEEnlZgTZgLTp/SsbYPJwQQGJkAA6yReXF0SgQe/8awcINk41ISiRgIIPAngU81dHa9FxAEEEAgiQLFtygX8tED3H2VxO5RMwJPL2Dyu8PCUadOXv7T3VghgMDIBRhgjdyMM1IgULwTa0tb8/NDaaWk6hREIgICCPyvgGmvwnEzGjp+sx0UBBBAIGkCvQvmXCHzS5NWN/UigMAzCJjurAkn/N2kjlU8q5OLBYFRCjDAGiUcp6VDoG/hzOe755ZIakxHIlIggMABAdf36qtOeJV1dBQQQQABBJIi0Nc2b0rkg2vMdFRSaqZOBBAYhoDr29UT8q8/8sYHHhvG0RyCAAJPIcAAi0sj8wI9C5rnB4FucteszGMAgEB6BAYtKJxav+T+O9MTiSQIIJBmgdtbW3NNE/tWmPSKNOckGwIZE3CZf61haff5GctNXATKIsAAqyysLJo0gYfOmlFXG1bfa7IpSaudehFA4MkFzHxXNHRIY+OKVfswQgABBOIu0Hd28wke6NeScnGvlfoQQGBYAi73jzYs6/7IsI7mIAQQeEYBBljPSMQBWRHYuWD6EfutZoXJXpSVzOREIP0C/oGGzu5PpD8nCRFAIMkCO9qPPXwgX71OUkOSc1A7Agj8UWCwoOgf+iYfetPJ168awgUBBEojwACrNI6skhKB+8+YWXNIbe7zki5ISSRiIJB1gT35SC84+pau+7IOQX4EEIivQG9bc/EOjcvjWyGVIYDAcAVc/qgie1vDLV03WfGpnHwhgEDJBBhglYyShdIk0Ltwzsfk/v7ffzPJn5E0NZYsGRXwO+o7u1/CN5EZbT+xEYi5QO+ilrmKot9Iqop5qZSHAALPIODSw4H83PrO7h+BhQACpRfgh/PSm7JiCgR8sYKee5ouCGRflBSkIBIREMiygFvgb65f0v1fWUYgOwIIxFOgt635Z5JOiWd1VIUAAsMVcNe+oMqPr+/o3jDcczgOAQRGJsAAa2ReHJ0xgd6FTX+vyG6QaULGohMXgbQJ7Lecz+WbyrS1lTwIJFugZ8GcD5t58aOD/LIs2a2k+swL+C8HLFgwfem63sxTAIBAGQUYYJURl6XTIbC5remloewmSbyhMB0tJUVGBcz0g7rD+s+0Gzb2Z5SA2AggECOBzW2zT8wp+JXz0cEYdYVSEBiNgN3a7/tfN2PZxkdHczbnIIDA8AUYYA3fiiMzLPC7s5oaq0K7i7cDZfgiIHo6BFzva1jW9cl0hCEFAggkVWBD6/TamiNq7zZTU1IzUDcCCBQf0O7fqs/Ne611dBTwQACB8gswwCq/MTukRKC3feZk5XPflfSclEQiBgLZEzDttSp7fv03163OXngSI4BAXAR62po/adJ74lIPdSCAwMgFItPljTvqP2orV+ZHfjZnIIDAaAQYYI1GjXMyK9Bz5uyjLBdcI+k1mUUgOAKJF/B19bnw2daxdjDxUQiAAAKJE+hdOOdV7r7EpJrEFU/BCCBQFNhvZu+oX7qu+LInvhBAYAwFGGCNITZbpUNgTXtL9cR8dK1JF0iqTkcqUiCQLQGXPt8zecLbT75+1VC2kpMWAQQqKbC5rfnInHSvS42VrIO9EUBgdAIu7VDB2hqXr/vx6FbgLAQQOBgBBlgHo8e5mRbYsrDposDtC5L4c5TpK4HwiRVwP7dhWffNia2fwhFAIFEC3tqa65vYd4+klkQVTrEIIPC4gKvH9lXPrr/t3r2QIIBAZQT4wbsy7uyaEoEtC+ecHrovdenQlEQiBgJZEtgVmb106tJ1v85SaLIigEBlBHoXNF/2+195La7M7uyKAAIHJWD2nf7QLprRsbbvoNbhZAQQOCgBBlgHxcfJCEg9bbPmyMNO3iTE1YBA8gRcfncuF754SsfaPcmrnooRQCApAlvbmhe6dLNLYVJqpk4EEDggELn0pWBv9bu584orAoHKCzDAqnwPqCAFAt7eHvbl771dshenIA4REMiYgN1RP3n8y4znYWWs78RFYGwEdrfNm7LHBlfLNXlsdmQXBBAokcCAuX+ibln3R6z4AUK+EECg4gIMsCreAgpIi8Cm9mnjckMTrpLZJWnJRA4EMiLgkeyDUzvXfSwjeYmJAAJjJPDI62ceNrgvV3zu1fQx2pJtEECgBAImDRWCcNHUJWtWlGA5lkAAgRIJMMAqESTLIFAUuP+MmTWH1Obe7tK/GW8o5KJAIEkCHrleP3VZ101JKppaEUAgvgIbLpxeW7ur9kZJC+NbJZUhgMCTCPTJo7Mblq3/JToIIBAvAQZY8eoH1aREoGfB7PNkwdUmTUpJJGIgkAWB3cpHL2tYsf5XWQhLRgQQKJ+AS9a3oOlKmX2gfLuwMgIIlF7AfpnfF5xx9PfW7Cj92qyIAAIHK8AA62AFOR+BpxDobZ/bonzhF+INhVwjCCRGwKQt63bWTz9t5cp8YoqmUAQQiJ1A74Lmf5LpmtgVRkEIIPCkAn94xtU36ju7XgcRAgjEV4ABVnx7Q2UpENh61vF1UZj/pqSXpCAOERDIhoDpIa+Jntd40/qHsxGYlAggUEqB3oVzT3MvfNuk8aVcl7UQQKBsApHM3r5n/9CXZt36wEDZdmFhBBA4aAEGWAdNyAIIPL2AL14c9N7zzU+Zon+SjNdnc8EgkAyBb+cK/rrJy7t3J6NcqkQAgTgI9C1qeZ4X/Ccyz8WhHmpAAIGnFzCpR+b/WLe0ewVvGuRqQSD+Agyw4t8jKkyJwJYFTRcFsv+UaUJKIhEDgVQLuPt/Nzza8Cbj44Sp7jPhECiVwLZFc2blC36nmSaWak3WQQCB8gmYtDrKDb6qseOh35VvF1ZGAIFSCjDAKqUmayHwNALFB7pub597XCFfKL7RhG9uuVoQiL+Au/lNDfO6z7PFiuJfLhUigEClBHrOnD/ecnvXSJpeqRrYFwEEhi/gipZu31t7/om33bt3+GdxJAIIVFqAAValO8D+mRN4ZOG8aYM+8BXJXpq58ARGIHkCBZc+0XBi14cYYiWveVSMwFgI7Fzw7CMGrP8Ol44fi/3YAwEEDkpgQPJL6ycfcrVdv2rooFbiZAQQGHMBBlhjTs6GCEh+xsya3tqqq03+VjwQQCD+Am76UMPSrn/n+Rjx7xUVIjCWAgde1pLLf1uuk8dyX/ZCAIFRCWyVB+9oWLb25lGdzUkIIFBxAQZYFW8BBWRZYMuiWa8NovDLkmqy7EB2BJIg4G6XNi5b99Ek1EqNCCBQfoENrdNrayfW/kjSKeXfjR0QQOBgBFzaKbOTGpeu++3BrMO5CCBQWQEGWJX1Z3cEtGlBy3Nz5rdIXg8HAgjEWmDQFV3W2Ln+ylhXSXEIIFB2geJzLXvbmu8w6YVl34wNEEDgoARMWl41Pn/ekTc+8NhBLcTJCCBQcQEGWBVvAQUgIO1cOOeY/VH0GTM7QxJ/LrkoEIivQCT5/6lf2n2VmTy+ZVIZAgiUS6C3feZkDeVukXHnVbmMWReBEgkUXH5Z986Gj53GG4VLRMoyCFRWgB+UK+vP7gj8UcAvnl/Vt33PpyW7UFItNAggEF8Bl3/4+hO7/30xbyeMb5OoDIEyCPS1zZviNrhcrueVYXmWRACB0gn0RObnTF3a/dPSLclKCCBQaQEGWJXuAPsj8FcCvQubTpPbdyVVg4MAAvEUMFMk6TN1S7vewYPd49kjqkKg1AIbWltrayf2/lqyOaVem/UQQKCEAqZf9e/oP3XGyo39JVyVpRBAIAYCDLBi0ARKQOCvBbac1dRkod1o0nx0EEAgngIm5SX/6u7+wiWzbn1gIJ5VUhUCCJRCYPvCOQ1595WSZpdiPdZAAIHyCJjZR4PQPjalY+2e8uzAqgggUEkBBliV1GdvBJ5GwOfPr+p91t7rTHqjpBxYCCAQVwH7r1whetfk5d2741ohdSGAwOgFti+c85y8R9+VbPLoV+FMBBAos8A2M3tH3dJ1N3NndJmlWR6BCgowwKogPlsjMByB3rbmCyRdK+mQ4RzPMQggUAEB0+02ofrM+v++d28FdmdLBBAok8CWhU0vDFzfl2xcmbZgWQQQOHiBNUHtwMvqbtqw9eCXYgUEEIizAAOsOHeH2hD4g0DPotnNgQc/dhe//eWqQCC2Av6gKf+C+s4Ht8W2RApDAIFhC2z++6b2MG9flmnCsE/iQAQQGEsBd/mnHyvo0mbugh5Ld/ZCoGICDLAqRs/GCIxM4MH2Yw8fV6i5xtzPG9mZHI0AAmMo8FBkfj5vPRpDcbZCoMQC3t4ebi3c98/uupyP8JcYl+UQKJ3ATrneU/9o/dds5cp86ZZlJQQQiLMAA6w4d4faEHgSgd625vf9/rP9lzkfKeT6QCCuArsj8zdMXdq9PK4FUhcCCDy5wLb2lkOiQvRJd12MEQIIxFTAtMYjXdC4rGtVTCukLAQQKJMAA6wywbIsAuUU2NbeUl/IR2skTSrnPqyNAAKjFnA3f0/j0u6rR70CJyKAwJgKeLvCvnzzbySdMKYbsxkCCAxfINI36k+qP88Wc9fV8NE4EoH0CDDASk8vSZIxgV3tcyftHYo+buYXZSw6cRFIjIDJOsNCdAFvKExMyyg0owI9ZzWdbKF1SJqeUQJiIxB3gZ1u0UUN4frl1qFC3IulPgQQKI8AA6zyuLIqAmMi4JL1tc05T/LreEvhmJCzCQKjEfhVVRCdf9SS9V2jOZlzEECgvAJb2preFMj+k/+OlteZ1RE4CIGV+cDfefSS7nsPYg1ORQCBFAgwwEpBE4mAwPazXnjoUPjISpNOksSfay4JBOInsC9n4auPCtf8mN8cx685VJRNgZ4zG8db1WFXyvX2bAqQGoF4C7g0KPf/3lkVXjK3Y+1gvKulOgQQGAsBftAdC2X2QGAMBDZcOL123O6aD3tkHxqD7dgCAQRGLlB8S9KnGzq73jvyUzkDAQRKKbB54cxpOeVud9dx/OKnlLKshUBpBEz+6GAUnvWsW9beUZoVWQUBBNIgwAArDV0kAwJ/EPDFCrbc0/zK0PRfck0GBgEE4ijgP4qiqgun3rJ6UxyroyYE0i7Q29b0Rsk+Kqkx7VnJh0ACBdzMbomkdzUuXffbBNZPyQggUEYBBlhlxGVpBColsKl92qRc/tCvSf4KfrNcqS6wLwJPKzAQud7YO2XCt06+ftUQVgggUH6BnjNnHxXk7MMuK35kMCj/juyAAAIjETDTLnd9qn5n/f+1lbxlcCR2HItAVgQYYGWl0+TMpMDWRc3viSJ9TFIukwCERiD2AtZRn7M3GM/2iH2nKDDZAn1tc46XfKVLRyY7CdUjkFqBbQqClzYsWbsmtQkJhgACBy3AAOugCVkAgfgKFD9SuPU3zXM9UPHV4E3xrZTKEMiwgOuBgoL2acvW3p1hBaIjUBaBm9sVvjg/598kfxtvGSwLMYsicFACJkVu/rl8mLv06I41Ow5qMU5GAIHUCzDASn2LCYiA1HVW06GHh7bYpHe6FGKCAALxEjCpINmV1bmBT0zqeGhXvKqjGgSSKbCjbc7x/fJPmXQ6H6dPZg+pOvUCv5X5++qXdi8xyVOfloAIIHDQAgywDpqQBRBIjkBvW/NLJH1F0jHJqZpKEciOgEv3R4rap564/j5brCg7yUmKQOkENrVPG5fLH/omyT8lqbp0K7MSAgiURMAUmesHUW30+sab1j9ckjVZBAEEMiHAACsTbSYkAn8S2HDh9Nrxu8Z9NZK344IAArEUyLv09YbJE95sPOA9lg2iqPgKbH9NU2O+334u09HcdRXfPlFZpgX6f//Lmtf/JNd1yzkdxbuP+UIAAQSGL8AAa/hWHIlAagS8XWFfvmmhyb7g0uGpCUYQBNIl0FVwv2zasu6b0xWLNAiUXuCui+dXNW7fe4W53i7ThNLvwIoIIHCwAi7dpiB6Z+OS9V0HuxbnI4BANgUYYGWz76RG4IDA9oVzGvLuX5B0Bq8U56JAIJYCeUmft7x/sn5F94ZYVkhRCFRQwNvbw778fS+S9BlJLRUsha0RQOCpBfZI+kR9LriSt+5ymSCAwMEIMMA6GD3ORSAlAn0Lmt/upisljU9JJGIgkDIBL8iCd+TD3V8+umPz/pSFIw4CoxLobT9psuf3f96ktlEtwEkIIFB2AZPuH7DCK45Zev9DZd+MDRBAIPUCDLBS32ICIjA8gW2L5swquC+Xq3l4Z3AUAgiMpYCZInffINlFDZ1d/zOWe7MXAnESKH5ccNr2vVe49BZJE+NUG7UggMCfBNz9X2smFK468sYHHsMFAQQQKIUAA6xSKLIGAikRuL1VudkTm94byD4ono2Vkq4SI4UCLtm3osD+feqStb9JYT4iIfCkAsULv29BU7ssuExyPi7IdYJAfAVWq+DvqF/evdIkj2+ZVIYAAkkTYICVtI5RLwJjIPC7tjnHV8lvkOkkuYIx2JItEEBghAIu3x/IrgjNvjJ56breEZ7O4QgkRuD21tbcrCO2HB9a+ElJL01M4RSKQMYEXNov2fUNJ9a9zxavLD7DkS8EEAdb9Z8AAB59SURBVECgpAIMsErKyWIIpEfAFyvoubv5ktB0tUthepKRBIHUCRRM+nB9Z1fxOXZ8IZAqgd72mZOVD2+SrDi44vvWVHWXMGkScNMODYUnNa5Y87s05SILAgjES4BvBOLVD6pBIHYCPYtmN1sUXCXpVbErjoIQQOCPAu7aINP1A4fXXz3jhpX90CCQZIG+tuOmSFVXS3ql85H2JLeS2tMvEEXSR6sLftXk5d270x+XhAggUEkBBliV1GdvBBIi4O0t1X1D0dtl+hdJkxJSNmUikE0BV7fLP9ow5ZBv2vWrhrKJQOqkCmxdOOvYgocXyfVeM9UkNQd1I5ABATfpF3npvdM6u36egbxERACBGAgwwIpBEygBgaQIFF9Zrvy+pZK9QOLZWEnpG3VmVMC0w+RvrNpfWHnkrbwBKqNXQSJiL16s4JI1LVMKUf5ij4J/MTG4SkTjKDK7Aqa9gfu1Uzq7P8hD2rN7GZAcgUoIMMCqhDp7IpBggeLdWNvy0avd9A13VSU4CqUjkAWB4tuftrr0iYbOrv/gB40stDxZGYsfFXTlrpHsFZIOS1b1VItABgVcaz2MFjUuWd+VwfRERgCBCgswwKpwA9gegaQK9J3ZNCMK9SkzW5DUDNSNQMYEfivpK6ah6+o7H9yWsezEjZnA1rbmUyLZu13+KpPGx6w8ykEAgScK7DK3y6LCri80rujZBxACCCBQCQEGWJVQZ08EUiTQ2zbnfJkvlmtGimIRBYHUCpjsUZd9OggKS9Y+0rD2tJW86jy1zY5ZsE3tp4yryu84xV3vldkrY1Ye5SCAwFMK+A9zsksmd3atBwkBBBCopAADrErqszcCKRHw1tZc3xFbvybzdp6NlZKmEiMTAi792ix8a3245tfWoUImQhNyzAWK/43oOaL3giDQtXKrHfMC2BABBEYlYNJuhUFb/bfW/nBUC3ASAgggUGIBBlglBmU5BLIs0Lug5blSdJ1MJ2fZgewIJEnAZHmXPxiZvlGd90/yGvQkdS/etW5ua54duv9fmb1QUn28q6U6BBD4CwHXNbnIr5y8vLsHGQQQQCAuAgyw4tIJ6kAgJQJ9582bEO0ZeJdk7zbpyJTEIgYCWRF4WO43u2nFwOEDK2fcsLE/K8HJWRqBXe1zJ+0rFM4y12vddLqcN9aWRpZVEBgbgeKduYH8/fWd3T8amx3ZBQEEEBi+AAOs4VtxJAIIjEBgU/vsqbl88FVJrXyscARwHIpATARM6olkVwW5aFnd9oZNxrOyYtKZ+JXR9/J5E4Lx+2flLbzEpDdL4vvL+LWJihB4JoFdJru2vnPdh5/pQP45AgggUCkBvsGolDz7IpABgQPPxprY90KZ/p9cEzIQmYgIpE7ApQGTtpgVLq1fev/XUxeQQKMW2NQ+d1KYL7y/OLQy6QiXcqNejBMRQKBiAib9NG/510xb+sDmihXBxggggMAwBBhgDQOJQxBA4OAEtrW31OeHovcFpne5FB7capyNAAIVFOhx6c5A/u3q3NCSSR0P7apgLWxdAYFN7cfNrBqqanfTK8w03/nlRAW6wJYIlExgsyJ/d/2uhmXcZVsyUxZCAIEyCjDAKiMuSyOAwF8K9Jw9+8VBEHzcpefysUKuDgQSL7DHTcvNfVlg0aq6pfc/lPhEBHiCwP1nzKwZVxs05yw41d3eIHnx3998IYBAggVcGgykr0T56F8aV6x/OMFRKB0BBDImwAArYw0nLgIxELCehc0Xm+sTkg6NQT2UgAACJRHwX3pgH6kNJvxi4kTts+tXDZVkWRYZUwGXbGPr9JqqibUTAtNbAvd3u+yoMS2CzRBAoFwCkaR1Xhu1Nt7E4KpcyKyLAALlE2CAVT5bVkYAgacR6Gs7bopb7j1yez93Y3GpIJAqgT2Siq9d/3Vk9qXGeet+ZItV/KGJrxgLFO+0mlATtgdBcIG7z5LUKKkqxiVTGgIIjEDA5Y9KdtHA4f3f4Q2zI4DjUAQQiJUAA6xYtYNiEMiWQPE3/T1nN58Smi4/8Lp1vhBAIIUCvk1md7pHt+dNPxnYH90769YHBlIYNFGRes6cfVRUFT6vyqMXF6QXSPY8k6oTFYJiEUBgOAK7Xboukq6a1tn1yHBO4BgEEEAgrgIMsOLaGepCIGMCPYta3mBR9K+SjuEV7BlrPnGzJrDPpdvlWp4Lg1/tc+87Zt66rdylVb7LYEPr9NqaSePqvOBTLfDTzO1M2YFnEfJ9YPnYWRmBSgtELv0kiPRP9bd03VfpYtgfAQQQKIUA37iUQpE1EECgJAIHfsg6YtyVZv7OkizIIgggEHeB4g9Y+UC2082/VoiCr01btvbuuBedhPr84vnje7fvfYVJbzLpVJdqJeUYWiWhe9SIwMEJuOxR+eDpDc9+8Df8cuDgLDkbAQTiJcAAK179oBoEEJC0aVHTvFykD0vWDggCCGROYH/x08WSb5Zrg5vfWYjspz+vPmHtOR0dhcxpPENgb2+p7ikU/iaQPV+ukx+/i9WmSd7wh4EVZAggkB2BQZdfEck+x8cFs9N0kiKQJQEGWFnqNlkRSJCAt7eHWwv3neuRPiRTS4JKp1QEECiDgEs7TbrHzda5fF0o/20U2ZZCVdQ3bXvjVlu5Ml+GbWOx5Lb2lkMGZPVhIWpUwacp9GMlm2Ou4yXNlRTGolCKQACBSgkMuOnboQofqFt6/0OVKoJ9EUAAgXILMMAqtzDrI4DAQQv0Lmy61Nze69LhB70YCyCAQBoF8iZfHSm4ywK/J1fQ6qFC+FBoNjBY40N7B/JDNY8NDP1q8sahczoUm7u47rp4flVjr6r21+6sGtefq8qbVY+v8sMKHs6JrHCCe3hS4P43Lk1NY9PIhAACBy3gkrqViy5o6Fj/y4NejQUQQACBmAswwIp5gygPAQQeF9jQ3lJfky8sNtnFPMOFqwIBBIYhEEnqlzRgpgGPNChpUOY73NVjZlvctMVcPQWzh+W+o8rz2waranZO61hTvNur+IPhqL42tZ8yrnpg92EeFiYPuR8VmiZFgdXlClGjm021xwdSDS5NcKnmwNv/XDUy1ejxNwHy/dmo5DkJgQwJuB6T22vz1btvP7pj8/4MJScqAghkWIBvkDLcfKIjkESBvoVzni/5B9zVlsT6qRkBBJIhYKYhdw2ZfNBlxeHX/37l5crLDgyagj/8zeL/Fv//gWGUM4BKRpOpEoFkCuyR+3/kq3JXH92xZkcyI1A1AgggMDoBBlijc+MsBBCooEDxh8PeRXPOVhRdZrITuVuhgs1gawQQQAABBBAYC4H9JrttKFd429Ed67eMxYbsgQACCMRNgAFW3DpCPQggMCKBzQuazglNX5eMhxiPSI6DEUAAAQQQQCAJAi6/p6qgV05e3t2ThHqpEQEEECiXAAOscsmyLgIIjJnA5rbmIwPZ+YH8cpcOHbON2QgBBBBAAAEEECifwPrA7G1T9g/dYbc+MFC+bVgZAQQQSIYAA6xk9IkqEUBgGAI97XOfpXzhX0y6sPgsmmGcwiEIIIAAAggggEC8BExd7v7Zhty866yjIzZvTo0XEtUggEAWBRhgZbHrZEYg5QIPnXV83bhc/ia5ni9pXMrjEg8BBBBAAAEE0iHwsCu6fm9/dMUs7rhKR0dJgQACJRVggFVSThZDAIG4CPhiBb33zGqShV801wviUhd1IIAAAggggAACfyXgbvpwbTh43aSOh3ahgwACCCDw5AIMsLgyEEAg1QJ+8fyq7dv3vCxScLnLn5vqsIRDAAEEEEAAgSQJ7DHTNR7p+oZlXRuTVDi1IoAAApUQYIBVCXX2RACBigj0LJxznrm/U9JJkoKKFMGmCCCAAAIIIJB1gf2S3RIVosVTl3d3Zx2D/AgggMBwBRhgDVeK4xBAIBUCLlnvouaFivQ5k46UxL8HU9FZQiCAAAIIIBBvAZPyLt1TkP5uWmfXI/GuluoQQACB+Anwg1v8ekJFCCAwBgI72o89fH++5gxz/6KZJozBlmyBAAIIIIAAAhkVcNMP3IIPNJ6w9h5brCijDMRGAAEEDkqAAdZB8XEyAggkXaDv5fMm+IShS6TorZIdm/Q81I8AAggggAAC8RAwHRhU/dDD4D/qbe5t1tFRiEdlVIEAAggkU4ABVjL7RtUIIFBigQ0XTq+t2V3zXov0Fsmm8dHCEgOzHAIIIIAAApkR8IJka1z+z42d3d/NTGyCIoAAAmUWYIBVZmCWRwCBZAkcGGQ9VntB4LrGpapkVU+1CCCAAAIIIFBJAZfuL+S06IHt9etOW7kyX8la2BsBBBBImwADrLR1lDwIIFASgW3tLfX5ocK5ZvYRSZNKsiiLIIAAAggggEAaBdzdf2Lyf+8/YvD2GTds7E9jSDIhgAAClRZggFXpDrA/AgjEWqD4jCwdOvCuKLLzTZod62IpDgEEEEAAAQTGUqD4jKsfu+vahmVdS03ysdycvRBAAIGsCTDAylrHyYsAAqMS8NbWXO/E3ktM+pBkk3lG1qgYOQkBBBBAAIHEC5hpKHJtiBSdM61z/T2JD0QABBBAICECDLAS0ijKRACBeAjsaD/28P6o9kyLouskHRaPqqgCAQQQQAABBMZCwKXvRx58YOqjU1Ybz7gaC3L2QAABBP4owACLiwEBBBAYhYBfOL22b1fNayV7m6T5o1iCUxBAAAEEEEAgCQKmfnd1Wqjr6+2EO6yjo5CEsqkRAQQQSJsAA6y0dZQ8CCAwpgIuWe+i5oUW6YOS5ok3F46pP5shgAACCCBQRoHdkn/PA7+0ccn6rjLuw9IIIIAAAsMQYIA1DCQOQQABBJ5JoDjI2ryo6YRcFNwkecszHc8/RwABBBBAAIH4Cpj0+brcCW/jbqv49ojKEEAgewIMsLLXcxIjgEAZBe66eH5V48698yxvl0h+vqRcGbdjaQQQQAABBBAomYDvcvkV5sHShmVdG0u2LAshgAACCJREgAFWSRhZBAEEEHiiQG/7zBblw7e7B+ea+USMEEAAAQQQQCCGAqZ73e0G5cd/vnHFqn0xrJCSEEAAAQR4DTzXAAIIIFB+AW9tzW2dtPUyd79Y0mT+3Vt+c3ZAAAEEEEDgGQQGJT1UkH9kamf3t0xyxBBAAAEE4i3AHVjx7g/VIYBAigQeOWPmYYPjq16kyL8saUqKohEFAQQQQACBpAi4TCtUCD+4Z3DgwVm3PjCQlMKpEwEEEMi6AAOsrF8B5EcAgTEXuLld4UuGml8Wmd4o6VzuyBrzFrAhAggggEDGBEzaJumLQ4F/c9qS7vu44ypjFwBxEUAgFQIMsFLRRkIggEBSBfram2Z43hZL+ltJDUnNQd0IIIAAAgjET8ALkq2LIv9aVXV43ZSOtXviVyMVIYAAAggMV4AB1nClOA4BBBAoo4C7rHdh01tMdrWkau7KKiM2SyOAAAIIpF0gkltXUOVvruvo+nnaw5IPAQQQyIoAA6ysdJqcCCCQCIGus5oOnZgLnldwXWbyFyWiaIpEAAEEEEAgHgKD7tENgYXX1O2s67KVK/PxKIsqEEAAAQRKIcAAqxSKrIEAAgiUWMAXK+i7u/lUmZ/nbm1mmljiLVgOAQQQQACBVAi4tN6kG6No6MtTb3lwUypCEQIBBBBA4AkCDLC4KBBAAIGYC2xrbzkkX/B3mXvxoe/HSApjXjLlIYAAAgggUGYB2yf5Og/so41L1i0r82YsjwACCCAQAwEGWDFoAiUggAACwxG4/4yZNeMOsTlhIbxarpcM5xyOQQABBBBAIE0CJstHij5ziOyKQ3MnPGodHYU05SMLAggggMBTCzDA4upAAAEEEiZwc7vCl+RnH1+w4FVyv8RkUxMWgXIRQAABBBAYiYC7/GeSPttfqPrBsctXbx3JyRyLAAIIIJAOAQZY6egjKRBAIKMC3t5S3TtUOEdm50v+IpONyygFsRFAAAEEUifgm032/aEo+PzRt6y9M3XxCIQAAgggMCIBBlgj4uJgBBBAIL4Cft68CX17Bj8m6XxJh0ji3/HxbReVIYAAAgg8ucCQuTZHgV3WMG/djbZYEVAIIIAAAggUBfjhhusAAQQQSJnApva5k8L8UIsUfMSkv01ZPOIggAACCKRTYJ/LvmBRcP2ewYEHZ936wEA6Y5IKAQQQQGC0AgywRivHeQgggEACBHoWzW6Wh39v8na5TuAXFwloGiUigAACGREwKe/SDyS7yfOF7zSuWP9wRqITEwEEEEBgFAIMsEaBxikIIIBAEgW2LJxzeuDReyV79u8fhFvHMCuJXaRmBBBAINkCZorctdFkK4Lc/iundGzsS3YiqkcAAQQQGCsBBlhjJc0+CCCAQAwEvPjR8faWqr7IT1fk10g6NgZlUQICCCCAQAYE3PQ9yd7SsKNui61cmc9AZCIigAACCJRQgAFWCTFZCgEEEEiSgLe25rZO3NocmU4393dJOiZJ9VMrAggggEDsBYoPYP+xPPhsVBv8fOo3Vm+KfcUUiAACCCAQWwEGWLFtDYUhgAACYyfgi1tzW+7pe0UotUt6CcOssbNnJwQQQCBdAl5w6b7Agm9HVrixccn6rnTlIw0CCCCAQKUEGGBVSp59EUAAgRgLbG5rfnVOfqnLmiUdyvOyYtwsSkMAAQQqL1C802qHmW6zKPeRumWrH6x8SVSAAAIIIJA2AQZYaesoeRBAAIESCfhiBVvvOe4o95pWWeFDks0r0dIsgwACCCCQCgHLu/zrQ0H+4/kg2nxcx0O7UhGLEAgggAACsRRggBXLtlAUAgggEC+BxYsV/MOaplnhUPAKN2+T9GJJQbyqpBoEEEAAgXILmLQrkr4TRPq2gqEf1Hc+uK3ce7I+AggggAACRQEGWFwHCCCAAAIjFug5c+6zgrDwVg/0KrlmS6od8SKcgAACCCCQFIHtJq0pmJbuG5f/yqwbH3gsKYVTJwIIIIBAegQYYKWnlyRBAAEEKiLwyOtnHjbYn3uXXB+Uq4ZfjlSkDWyKAAIIlFrA5Xowyvn7pn6r+5ZSL856CCCAAAIIjFSAAdZIxTgeAQQQQOBJBe4/Y2ZNbXVudpizl1rkb5VUfAA8XwgggAACCRJw1/fCIPp8FAW/qX921+9ssYoPaOcLAQQQQACBigswwKp4CygAAQQQSJ+AS9a7qGm+uRU/Ytjq0gtMqk5fUhIhgAACiRfYLul/TMGtUW1+eeNN6x9OfCICIIAAAgikUoABVirbSigEEEAgXgIbWltrayb1vtXc3iRpmqQj+KhhvHpENQggkA0Bkwouf8Tc7vWgcHV9+OzvWkdHIRvpSYkAAgggkGQBBlhJ7h61I4AAAgkT8Pb28Hf7ug6rGTf0Qo/0frlOTVgEykUAAQQSKWDS7oLrK1WhfdqGor6jlnfvMckTGYaiEUAAAQQyKcAAK5NtJzQCCCAQD4G+tuOmuIfzpeBlMlsg+XHxqIwqEEAAgaQLePGuqlWRwg5Z4efhhJq76//73r1JT0X9CCCAAALZFWCAld3ekxwBBBCIlYAvVtBzb9MpYeTnRkEwP3BrcXnxo4Z8IYAAAggMQ8CknkhaI/fvVNXq5snf6O4ZxmkcggACCCCAQCIEGGAlok0UiQACCGRPYE17S/WkvM6WCu+X7PjiQ+BdCrMnQWIEEEDgKQXyJu2N5N/O5cKrpnSsvRsrBBBAAAEE0irAACutnSUXAgggkCKBzW3NR9a4pucDP1tu50manqJ4REEAAQRGIpCPXCvNghukoV/nclWbpnSs3TOSBTgWAQQQQACBJAowwEpi16gZAQQQyLCAS9ZzVtPsMNQLXcELZX6aXDMyTEJ0BBBIt8CQm1ab64eB2c/2hfbzGR1r+9IdmXQIIIAAAgg8UYABFlcFAggggEDiBTYtapqXcztfrtMkTZU0RRL/jUt8ZwmAQCYFBmTaKtcGN91UCMOOozvW7MikBKERQAABBBD4MwG+uedyQAABBBBIjUDxQfCb10yrqdKkei8MvEVuF0k6KjUBCYIAAikW8C558GkvFDr25qPds259YCDFYYmGAAIIIIDAiAUYYI2YjBMQQAABBJIicNf8+VX1z9o7w8ybQ9nz3f3M4gPhk1I/dSKAQGoF+iP5zwLpu14I7gzCwa76zge3pTYtwRBAAAEEECiBAAOsEiCyBAIIIIBAcgS2tbfU54cKp5sFp8l9rqTjZZqQnARUigACiRMw9cnV7a5VQU6378/3/2TGso2PJi4HBSOAAAIIIFBBAQZYFcRnawQQQACBygvc3K7w1KGWVrfoPDP9nbsOkTReUlD56qgAAQQSKJA3aW8kbTV5pyn/tfrOB1cnMAclI4AAAgggECsBBlixagfFIIAAAghUUsAvnl+1fef+IweHVB8E0SvlOsekeTwQvpJdYW8EEiEw4KbvuKmjSnbXYOQ7puZOeNQ6OgqJqJ4iEUAAAQQQSIAAA6wENIkSEUAAAQQqJ/Do6541cW//uJbAg2fL/GRzzZe8xWVh5apiZwQQqJSAm/olrQrc73LZb9y1eu9AfjUPXa9UR9gXAQQQQCArAgywstJpciKAAAIIlEygr+24KZFyf2uyl5tZk7saJa+XVFWyTVgIAQQqL+DaK9NWybe4208Kpu89sLP+p6etXJmvfHFUgAACCCCAQLYEGGBlq9+kRQABBBAosYBLpsUy9cwPe3fsPc0K9mbJz5JUU+KtWA4BBMZAwOXbJVuq3NAXGvTg3ZfPlS9erGgMtmYLBBBAAAEEEHgaAQZYXB4IIIAAAgiUWKD4LK3enf0NQeQNinyGm79QrlOl4lsP+ehhiblZDoHRCgzI/Zdm+rFHwc9MvimKot6GFesfMclHuyjnIYAAAggggEB5BBhglceVVRFAAAEEEHiCwG9fd8LEsH/w2VVuJ7k026VZMs2QdIyctx5yySBQJoFBk37r0vriXybdYzn9um7ua9bY4sXcWVUmdJZFAAEEEECg1AIMsEotynoIIIAAAgiMUGBbe8shQ154meV1WmD2MpcmmTTBpQmSciNcjsMRyKpA8eHqe/X4c6s2uvyOvAW3Hb2j7mfGM6uyek2QGwEEEEAgRQIMsFLUTKIggAACCCRfoPhMrd4z54+Tdo9XVThB0VCTgtxLzPV3kp6j4jO3+EIAAUm+X7JfyrRSUfSdXGSbc8G4fQ8P7NnPGwG5QBBAAAEEEEifAN8Ep6+nJEIAAQQQSKnApvZTxgXa8azQw2mej46W/FhZ0OTyuSY1cbdWShuf7Vh7THowMq2R6z6TP2gWbMpraPPU8KRe6+goZJuH9AgggAACCGRHgAFWdnpNUgQQQACBFAv4GTNremtyx5vpeEnHyzRbbhNdXmfSkZImcfdWii+A5EbLS9op0yNybXXXFrnWBKGv7g913zFzu39rvAEwud2lcgQQQAABBEoowACrhJgshQACCCCAQFwFtp/VdOhQtZ1iHj1f+eAUD/RcSRNMBx4e/79/8X1BXBuY3LqKD0n/378KLt9ksl+46WeRh7+4f+fkNafxfKrkdpfKEUAAAQQQGEMBvlEdQ2y2QgABBBBAIC4CxWdtPXxW0yFW44cNDUaHW676UCmaUnCbY64Z5tFcmc39w51bcSmbOmIsYNJWl69203p5cH8orQ5Mj/SHwWMD+f7Hjuu3XXbrAwMxjkBpCCCAAAIIIBBjAQZYMW4OpSGAAAIIIFBJgeKQa9frnnVE/9D4adGQGszU4FJD4FYXmdcF8ikuq5M0WY9/TJE3JlayYWXY21x73fSwXNtl2ir5VpdtC+S9LvW6vDc079l32FDPjBs2Ft8CyBcCCCCAAAIIIFAWAQZYZWFlUQQQQAABBLIl4IsV9HQdN9UGq2eY+Qwv+HEmTXdpemDBoZG81kw1ctVIqpVULWmcpDBbUpVLa1LeXQMyFe+CKg6bBiXbL/N+ufVJ/pBcG/LSRlPhwYGqwzYc17FqV+UqZmcEEEAAAQQQQOBPAgywuBoQQAABBBBAoKwCxTu51NoaatzmsDd3eLg3vyt3VM0hwf7CvlxVLpg0IJ8WhsE0L0RHm4Jpkfu00GxapGiqyYp3d/H1jALeL9lWkza7+2aXbVZgm0PzTa7C5kK+pufQIL+v4LWFhwf2RBNyh+cHjnwkmr5xel4rVxZM8mfcggMQQAABBBBAAIEKCjDAqiA+WyOAAAIIIIDA0wsUh1+9ZzaOi3KHjZPlx7lVjatWNM7z4bgo9BpFXhu4aiJTdWhe67LxbjpMrgn++B1e4w/c6WVeK9k4k8a5e/HvTSjuHMiKd4SFxX8m88Ddi///Dx+FtFB24G6xZ/7y4oPKff8fDzQr3uFUMFfx70XRgbudPG9m/cW7oMyKd0DZvsfP8f1y2+9Sf+DaIwv2FlTYHSrYH1lhwKJcf+A+pDDaX8hrwKrC/RYU9gUK9+8d2tefH8jtn8WzpZ65RxyBAAIIIIAAAokW+P9gTTQL3iq/NgAAAABJRU5ErkJggg==;" vertex="1" parent="1">
          <mxGeometry x="125" y="162.87" width="25" height="24.79" as="geometry" />
        </mxCell>
        <mxCell id="1YvNloGY1ujTHs0pBfhD-9" value="" style="shape=image;verticalLabelPosition=bottom;labelBackgroundColor=default;verticalAlign=top;aspect=fixed;imageAspect=0;image=data:image/png,iVBORw0KGgoAAAANSUhEUgAAAeQAAAIACAYAAABTkx/wAAAABGdBTUEAALGPC/xhBQAAACBjSFJNAAB6JgAAgIQAAPoAAACA6AAAdTAAAOpgAAA6mAAAF3CculE8AAAAB3RJTUUH5QEaFToR3W0hygAAAAZiS0dEAAAAAAAA+UO7fwAAE2pJREFUeNrt3XmQ3ndh3/H3d7WSLPAhAWMMtjlsc5twmJhAbBjAEEPCEQgNpJ2MAK8ipmlJM+kfYcAdkpI26RGaNtSV3Fad0EmbTnFLy4SU2JOLYg7TZBhzxoQrxRw+uGzwSvvrH7skBuzaknf3eeR9vWY8MDCS0Gcfnvd+n+f3/HZ0jKZLum+jPdWDqvMbPb6pxzZ6RHVaW8utTf15o09U1zZ6Xyt9pNFNLfT1cVkrcVyaLumEtcf5aWuP8yc09ehG51RnbrE5lpv6eKNPVR9u9MGmrq1ubOqr42CHPWLg2I2jenLa20Lb293oMU09p7q40ZOrnab8LitNfbTRldUfNfWhpj47Lu+IaY6TEO/rxOpxTT29ekF1QaMTLPN9/rK6qql3V1c39elxectmgQ0M8rSvnU09u3pho2dX51TbTHiXbqr+pKl3VFeMg91gkrkO8UJ1fvWS6kerR1eLlrlLX63e29TvN/Vfx+V92iSwAUGelnpw9bpGL6nOFuJj8uXqyuo3x4H+xBxzGOP97e5I+xv9ZPWYvPJzLL5evaepy1rud8ehbjMJrFOQp6WeUv3DRhdW9zHZPXK4+nhT/6L67XGwb5hkbk7Gj2zqTY1eUJ1skXtkpfpcdaCp3xwH+6pJ4B4EeVrqhOqnGr2pOsNU6+pbTf1a9a/Hwa43xwxDvNSORs+t3lw9wSLr7u1Nvb76xDjYZA64cwv/nxi/stEbxHhDnNDo0ka/Mi31IHPMLMaL1YurfybGG+aljd5cnWUKOIYgr52M31g93EQb6qervzctdYopZmD0zLVYPMoYG+pljX5pWhJlOKogT0v94NrL1GK88bY1elX1mmlv282xiafjfT2q1ZepH2GNTYry6jef9zMF3I0gr11N/ct5mXoz3b/Ra9ve80yxSTHe3ylNvaE6zxqbZmejl1ev8M0n3EWQ1943/rm1q6nZPKM6p9HPT0s9dtprkA0+GW/vSK9t9KJ8vnizPbDRUjv6oWn/0d2UCLZMkKe9LVTPavTifLRpVi6ofqzt7TLFhnrC2ufpfbRpNp5Y/VQrXrqGOz4hL7a7emGrN/1gNnY0enWTq6437HS81H2r569Fgdn5iepcp2S4oyAv9JhGz8kduGbt7Bb6UTNskNHDqpfnDlyz9oDq5a20wxRwuyBP+7pvdZHT8VxYrF5thg05HW9r9bPGj7XGXPjpjnR/M8B3n5D3VBc7Hc+Nx037utgM625XU6/0OJ8bJ7XQS8wAtw/y6nuWTzLFXH1NXOm+/que3OgCQ8yVF5gAbv80NXpq3lObr69Jne+zmuts6geq3YaYI6Nzp6X2GAJu9+Rvhjl7mhqd0aKrrdfZ400wd05q9cdcAq2+PHqOGebOCQ13S1vnE/IPGmHuLDZ6qBngO0Eebvg+h3Y2Os0M6+q+Jpg7O5qckOGvg1wPNMPcGbkaeL35Bmc+H+fuDAi3CzLzeEKeOtUM6/rUf7oRAEHmaG3PFcEAgszMfav6ghkABJnZOtzoZjMACDKzNZkAQJABAEEGAEEGAAQZAAQZABBkABBkAECQAUCQAQBBBgAEGQAEGQAQZAAQZABAkAFAkAEAQQYAQQYABBkABBkAEGQAEGQAQJABQJABAEEGAEEGAAQZAAQZABBkABBkAECQAUCQAQBBBgBBBgAEGQAEGQAQZAAQZABAkAFAkAEAQQYAQQYABBkABBkAEGQAEGQAQJABQJABAEEGAEEGAAQZAAQZABBkABBkAECQAUCQAQBBBgBBBgAEGQAEGQAQZAAQZABAkAFAkAEAQQYAQQYABBkABBkAEGQAEGQAQJABQJABAEEGAEEGAAQZABBkABBkAECQAUCQAQBBBgBBBgAEGQAEGQAQZAAQZABAkAFAkAEAQQYAQQYABBkABBkAEGQAEGQAQJABQJABAEEGAEEGAAQZAAQZABBkABBkAECQAUCQAQBBvhdaMQGAIDNbt1SfMQOAIDPr0/FK3zIDgCADAIIMAIIMAAgyAAgyACDIACDIAIAgA4AgAwCCDACCDAAIMgAgyAAgyACAIAOAIAMAggwAggwACDIACDIAIMgAIMgAgCADgCADAIIMAIIMAAgyAAgyACDIACDIAIAgA4AgAwCCDACCDAAIMgAIMgAgyAAgyACAIAOAIAMAggwAggwACDIACDIAIMgAIMgAgCADgCADAIIMAIIMAAgyAAgyACDIACDIAIAgA4AgAwCCDACCzCY7oYVON8P6mPZ3arXNEnNneA4CQZ5326vdZlgnhztDkOfSjkbnmgEEeb5PyJMT8jo+yh9WLRpiLi1O+9tpBhDkeXVSoydN+zvBFOtg6rllyzm1p5XOMQMI8rzaVp3dSmeZ4h62eF8Pb/TkVt8GYP6c0dTTzQCCPM/OrS6YlhqmOMYYX9Jo6uLqbGvMrfs1euL0Kq9ggCDPr93Vy6pHTXuNcYzOafTj1f1NMdfPQRe12DOn/Z6P8H8G5tcPN3p+250ejvp0vNSuRs+vnmKNuffIRi9tpfuZAkFmXt23Wmr0Q6Y4ihhf0rbqGY32VXssclx4SfXCaZ+r4RFk5tdjmvqVacnHoO62bT20enP1OGMcN06tLm3qiaZgqxrTviYzzL0jTf1+9dpGnx4HfM3u8GS81EKrF3D9x0bn+YbzePwi9qGmXt3ow+NgKwZBkJlHK029r9E/qP54HOhbJll7Dt/baLGT194zvrTRo8vV6cexv6he39S7Wu6r45DnKASZ+fSR6kD17nGgj2z5GL+mXS10XvXiRn+zepCHyL3Cl5p6W/X2Vrpm/FvfgCLIzKdbqqurK5r6w7b1yXHZ1nnCmva22PYe0uhJTZ3f6OLqsbk95r3N4erapt7V6ANNfajlPjcOddg0CDLz5ubquurT1furv6w+39QNm/so6pxq1yb8SQ9rand12tqfeUZ1WrXDQ+Fe7bbq+rXH9hfXHu/fbPSpcnJmHk4J3Vh9prpuHGxZkLe2lerWtSeu5bWTxWba2eZcQLWj1duKLjoNb+GnvtXH+crt/hVm7cja4/HW6h3VOzrSNW3rmy20Mi4TZACYlY9Vb23qqrb1iXHZXZ+cfSwEANbfo6vfaPTfWulvTft6iBMyAMzWTdU7m/qXLXfNONQRJ2QA2Hx7qpdXv9r2LpqW7vjHwQoyAGy8nY0ubPU+Ehfd0U/xE2QA2BzbGj2k+p0WO1eQAWCWRic2euu0r4cKMgDMNsrnVX97WuokQQaA2blP9YpGPyLIADBbp1cvm5Y6Q5ABYHYWqmdUT5wuaUGQAWB2HtzoBY1OFmQAmK3nVnsEGQBm6+HVOYIMALO1rdEFggwAszb1TEEGgNm7jyADwKyNzhBkAJi9BwkyAMwBQQYAQQYABBkABBkAEGQAEGQAQJABQJABAEEGAEEGAAQZAAQZABBkABBkAECQAUCQAQBBBgBBBgAEGQAEGQAQZAAQZABAkAFAkAEAQQYAQQYABBkABBkAEGQAEGQAQJABQJABAEEGAEEGAAQZAAQZABBkABBkAECQAUCQAQBBBgBBBgAEGQAEGQAQZAAQZABAkAFAkAEAQQYAQQYABBkABBkAEGQAEGQAQJABQJABAEEGAEEGAAQZAAQZABBkABBkAECQAUCQAQBBBgAEGQAEGQAQZAAQZABAkAFAkAEAQQYAQQYABBkABBkAEGQAEGQAQJABQJABAEEGAEEGAAQZAI4HiyYAtpDl6kvVynH2v/vEao8vnyADHG9uqq6tPl59Zu2fqsNN3VhNx9nfZ1ejk9f+/QOq06szq/Oqs3y5BRlgvk6/U/+j0Tuaurb6SvWNpm4Zl3fLveUvOV3Sjka7Gu1qak+j06uLqx+vHpa3Io9bY9p33H2nCNDaKfeWpj5dHWql326hL1VHWm5lHNoiI1zSaLSt0WJTz6ne2Oicane1zcNEkAE20pHqT5u6ovoP42CfN8lfBXpno+c1Wqp+uNX3nodlBBlgvd1cXVFd1m39n3GoZZPcQZj3dWarL2O/pnq8KAsywHq6rnprU28bB/uSOe4iyntbbHtPbXRp9TyLzDdv/gPHiw9UP9vUv2lZjO/WietQh8fB3lP9bPWvqtusMr9cZQ3Mu5XqfU39XPXBcfC4+wzxPCz4yUaXNrqxel11ilEEGeBovb+pvzMOdo0pjvGkfHlVN01L/XqjsXZidqOROeMla2CefbypXxDjdQrzwW5u6ter3yqvNAgywN1zU/WPqveZYl2jfFNT/7T6I2sIMsBdWa7+XaN3jIMdNse6R/lzTf1y9X+tIcgAd2al+sPq3ze6yRwbZOq9Tb0lV14LMsCd+HL1tnGga8dlxtiwU/Ll3droiurdeT9ZkAG+x5Hq6lZ6pyk2wW39RfWfy+e6BRngu32zqd8al/cVU2zCKflQR5q6qnq/U7IgA/y1qc829buG2ETLfaHV9+y/ZgxBBlg7snXZvelnFx8np+SV6srqi9YQZICqWxr9nhlmEOUD/VlT1+Rla0EGaPXnG19vhllVuatavagOQQa2uPc2+dnGMzN1pROyIAOs3qhiRZBnZrnPNfn4kyADW93hRtd3xAltVsahjlR/bglBBrb26fhTTX1tHDLFjH3MBIIMbPUTsvcv5+CY7CNns7RoAmAOQvDF6lZDzNzNJnBCBra2b66dkpmlqc8YQZABmD0/ilGQAUCQAQBBBgAEGQAEGQAQZAAQZABAkAFAkAEAQQYAQQYABBkABBkAEGQAEGQAQJABQJABAEEGAEEGAAQZAAQZABBkABBkAECQAUCQAQBBBgBBBgAEGQAEGQAQZAAQZABAkAFAkAEAQQYAQQYABBkABBkAEGQAEGQAQJABQJABAEEGAEEGAAQZAAQZYENsq4YZZmz0SCPMzqIJgJmbOrs62RAzd4oJnJABmL0dJhBkYCsbndpolyFmbOqhRhBkYGvbXZ027fecNGM/YAJBBji3Fde1zOxw/DOd0eiBlhBkYMsXoQua2m6IGVnpwlzoK8gAjc5rod2GmJlntfrxMwQZ2OJObepHzLD5pn2d2eh8TRBkgO94pQlmUeSeUz3YEIIM8B1Pnpa62Ayb2OKf6X6Nfqx6gDUEGeA7djfaN13iM8mbEuP9LTR1cfW03LpUkAG+5znpiY0umva6wGjDrfTg6kV5uVqQAe7AmY32tr2HmGIDT8eXtL2pZ1XPtYYgA9yRxeqiRi+elrx0vYEe0uh11f1MIcgAd+bk6heqC6dXe55a99Pxvna20D+pnmQNQQa4K6c3+qW2da4p1jHGS52y9s3OizRAkAHurqc2+ufTUmeaYh1ifEknNnpV9fO5K5cgAxylCxu9adrXY01xj07Ge1roNWsx9r6xIAMctR3VK6p/PC15z/MYY3yfRq+uXl9ebZhXY9rXZAbgOHC4+nAr/f3qj8fl3WaSuwzxQiud2kK/2ugnqvtYRZAB1qky3Vq9sdHbW+hz47IOG+V7JtrbaHt7Gj2tqV9s9PTciUuQATbotHxVdaipP2i5L45DrZilptd0Ygs9pXppo79RPdAqggywkVaqL1RXN3VV9c5xsM9s2RDv78RWOq+pn2x0YfXoVm+ygiADbJobqk829QfVu6o/HQf76haI8GJTZ7fSsxtdvBbhs4RYkAFm7dvVLU19rdGfVR+srmvqC40+W914HP/dtlcPbeq0Rg9v6uxGz6xOr3at/eOTM4IMANwTvpsCAEEGAAQZAAQZABBkABBkAECQAUCQAQBBBgBBBgAEGQAEGQAQZAAQZABAkAFAkAEAQQYAQQYABBkABBkAEGQAEGQAQJABQJABAEEGAEEGAAQZAAQZABBkABBkAECQAUCQAQBBBgBBBgAEGQAEGQAQZAAQZABAkAFAkAEAQQYAQQYABBkABBkAEGQAEGQAQJABQJABAEEGAEEGAAQZAAQZABBkABBkAECQAUCQAQBBBgBBBgAEGQAEGQAQZAAQZABAkAFAkAEAQQYABBkABBkAEGQAEGQAQJABQJABAEEGAEEGAAQZAAQZABBkABBkAECQAUCQAQBBBgBBBgAEGQAEGQAQZAAQZADg7lpZqG60AwDM1PULTX3UDgAwUx9baPQpOwDArIM89R47AMBMvWeh0VXVDbYAgJm4ofrAQnVzdaU9AGAm/ld100Ir3Vz9XvUNmwDAprq5qf/Z1M0L4/KWq/dXH7ILAGyq91fXjIMdXr0xyNTHm/ov+UwyAGyWG5v6742uq7U7dY2DLVf/qXp3ddhGALChDq8193fGgdXu/tWtM8fBvlK9pbrWTgCwoa6t3rLW3r4ryFXjQFc39ebqy7YCgA3x5abePA509e3/w+//4RLLXdHUG0QZADYkxm9ouSu+97/4viCPQx1upbeJMgBsQIxXets49P3Xa407+1XT3hbb3kWNfrF6arXTlgBw1L5dvaepS8fBO79d9bir32Xa19nV361eVD3MrgBwtxyprqveVf3GOLD68aZjDvLaaXln23t+o+dXz6jOrrbbGgC+z/JaiK+s3tltXTUO9e27+kXj7v7u095G29tdPabR06unVedXZ9geAPp8q3feem9T/7v6aMvdPA413Z1fPI7lT5z2taupkxqd1NRp1SManVXd39cDgC3khqY+VX2y0fVNfb3R18eBbj3a3+j/AZydb/I27BvRAAAAJXRFWHRkYXRlOmNyZWF0ZQAyMDIxLTAxLTI2VDIxOjU4OjE3KzAwOjAwHI60xwAAACV0RVh0ZGF0ZTptb2RpZnkAMjAyMS0wMS0yNlQyMTo1ODoxNyswMDowMG3TDHsAAAAASUVORK5CYII=;" vertex="1" parent="1">
          <mxGeometry x="490" y="167.56" width="19" height="20.1" as="geometry" />
        </mxCell>
      </root>
    </mxGraphModel>
  </diagram>
</mxfile>
